<svg id="svg" version="1.1" xmlns="http://www.w3.org/2000/svg" xmlns:xlink="http://www.w3.org/1999/xlink" width="400" height="400" viewBox="0, 0, 400,400"><g id="svgg"><path id="path0" d="M194.000 79.850 C 139.902 86.738,122.303 154.903,166.466 186.497 C 203.124 212.723,255.105 188.222,258.750 143.000 C 261.673 106.740,229.471 75.334,194.000 79.850 M189.200 213.462 C 143.427 217.849,107.105 240.843,89.200 276.769 C 82.731 289.748,77.990 311.051,79.468 320.500 L 79.702 322.000 199.851 322.000 L 320.000 322.000 320.000 316.420 C 320.000 256.811,256.709 206.993,189.200 213.462 " stroke="none" fill="#fbfbfb" fill-rule="evenodd"></path><path id="path1" d="M0.000 200.000 L 0.000 400.000 78.270 400.000 L 156.539 400.000 155.574 398.900 C 155.044 398.295,151.805 394.920,148.378 391.400 C 138.216 380.964,130.187 372.684,128.954 371.369 C 128.319 370.691,123.030 365.217,117.200 359.204 C 111.370 353.191,105.700 347.336,104.600 346.192 C 86.321 327.195,81.870 322.817,80.178 322.170 C 78.469 321.518,77.809 320.412,78.773 319.816 C 78.979 319.690,79.147 317.202,79.147 314.289 C 79.147 311.376,79.316 308.544,79.524 307.996 C 79.893 307.020,80.618 302.084,80.477 301.508 C 80.348 300.982,81.285 297.011,81.643 296.563 C 81.836 296.323,81.890 296.023,81.764 295.897 C 81.638 295.772,81.723 295.318,81.952 294.889 C 82.182 294.461,82.469 293.543,82.591 292.849 C 82.714 292.155,83.251 290.209,83.787 288.523 C 84.322 286.838,84.651 285.283,84.518 285.068 C 84.385 284.852,84.470 284.796,84.706 284.942 C 84.961 285.099,85.332 284.595,85.617 283.704 C 85.882 282.877,86.603 281.120,87.221 279.800 C 87.838 278.480,88.734 276.539,89.214 275.486 C 89.693 274.434,90.293 273.354,90.547 273.086 C 91.320 272.274,92.027 270.369,91.741 269.870 C 91.593 269.612,91.619 269.534,91.800 269.697 C 92.080 269.951,93.368 268.591,93.407 268.000 C 93.435 267.580,95.005 265.385,95.499 265.075 C 95.784 264.897,95.912 264.582,95.785 264.375 C 95.657 264.169,95.735 264.000,95.958 264.000 C 96.180 264.000,96.655 263.384,97.012 262.631 C 97.369 261.878,97.918 261.164,98.231 261.043 C 98.544 260.923,98.800 260.560,98.800 260.235 C 98.800 259.911,99.205 259.362,99.700 259.015 C 100.195 258.668,100.600 258.229,100.600 258.038 C 100.600 257.847,101.093 257.176,101.695 256.546 C 105.014 253.073,105.979 252.000,105.785 252.000 C 105.666 252.000,105.936 251.606,106.384 251.125 C 106.833 250.643,107.200 250.103,107.200 249.925 C 107.200 249.746,107.425 249.598,107.700 249.596 C 107.975 249.594,108.830 248.876,109.600 248.000 C 110.370 247.124,111.180 246.403,111.400 246.397 C 112.114 246.378,113.673 244.441,113.369 243.950 C 113.180 243.644,113.248 243.583,113.563 243.777 C 114.159 244.146,115.683 242.857,115.329 242.285 C 115.190 242.060,115.244 241.980,115.449 242.107 C 115.655 242.234,116.267 241.976,116.811 241.534 C 117.355 241.092,117.575 240.847,117.300 240.989 C 117.025 241.131,116.800 241.155,116.800 241.042 C 116.800 240.930,117.430 240.539,118.200 240.173 C 118.970 239.808,119.600 239.349,119.600 239.154 C 119.600 238.959,119.830 238.800,120.111 238.800 C 120.392 238.800,121.107 238.247,121.701 237.570 C 122.294 236.894,122.965 236.454,123.190 236.594 C 123.416 236.733,123.600 236.570,123.600 236.231 C 123.600 235.892,124.050 235.502,124.600 235.364 C 125.150 235.226,125.600 234.942,125.600 234.733 C 125.600 234.524,125.761 234.452,125.958 234.574 C 126.155 234.696,126.420 234.525,126.547 234.194 C 126.674 233.863,126.918 233.631,127.089 233.679 C 127.529 233.800,129.900 232.493,130.064 232.038 C 130.139 231.830,130.463 231.601,130.784 231.530 C 131.106 231.458,131.718 231.091,132.145 230.714 C 132.572 230.336,133.061 230.114,133.233 230.220 C 133.404 230.326,133.664 230.221,133.809 229.986 C 133.954 229.751,135.091 229.052,136.336 228.434 C 137.581 227.815,139.997 226.564,141.704 225.654 C 143.411 224.744,145.176 224.000,145.627 224.000 C 146.078 224.000,146.337 223.822,146.203 223.605 C 146.063 223.378,146.223 223.311,146.579 223.447 C 146.922 223.579,147.200 223.476,147.200 223.219 C 147.200 222.963,147.380 222.864,147.600 223.000 C 147.820 223.136,148.000 223.057,148.000 222.824 C 148.000 222.591,148.414 222.400,148.920 222.400 C 149.426 222.400,150.027 222.213,150.255 221.985 C 150.483 221.757,151.192 221.476,151.831 221.360 C 152.470 221.244,153.278 220.891,153.627 220.576 C 153.975 220.261,154.729 219.964,155.301 219.916 C 155.874 219.869,156.269 219.712,156.179 219.567 C 156.090 219.422,156.688 219.200,157.508 219.073 C 159.957 218.696,161.287 218.382,161.962 218.020 C 162.313 217.833,163.455 217.551,164.500 217.394 C 165.545 217.237,166.400 216.938,166.400 216.729 C 166.400 216.521,166.715 216.389,167.100 216.437 C 167.485 216.486,168.250 216.342,168.800 216.118 C 169.350 215.895,170.970 215.586,172.400 215.433 C 173.830 215.280,176.170 214.883,177.600 214.551 C 179.030 214.219,180.920 213.885,181.800 213.809 C 188.051 213.271,189.738 213.069,189.300 212.912 C 189.025 212.814,188.800 212.605,188.800 212.449 C 188.800 212.293,186.590 209.923,183.888 207.182 C 170.040 193.134,160.074 182.769,159.847 182.178 C 159.702 181.799,159.341 181.614,159.001 181.744 C 158.661 181.875,158.450 181.765,158.505 181.486 C 158.557 181.219,158.362 181.049,158.070 181.110 C 157.779 181.170,157.641 181.057,157.764 180.859 C 157.886 180.660,157.270 179.683,156.393 178.687 C 155.517 177.692,154.800 176.720,154.800 176.528 C 154.800 176.335,154.485 175.880,154.100 175.517 C 152.996 174.475,152.400 173.669,152.400 173.217 C 152.400 172.988,152.209 172.800,151.976 172.800 C 151.743 172.800,151.657 172.631,151.785 172.425 C 151.912 172.218,151.765 171.903,151.457 171.725 C 151.149 171.546,150.560 170.769,150.148 169.998 C 149.737 169.227,148.985 168.016,148.479 167.307 C 147.972 166.597,147.489 165.664,147.407 165.234 C 147.227 164.304,146.459 162.800,146.162 162.800 C 146.047 162.800,146.082 163.025,146.241 163.300 C 146.399 163.575,146.380 163.666,146.199 163.502 C 146.018 163.337,145.807 162.629,145.730 161.928 C 145.653 161.226,145.305 160.337,144.956 159.952 C 144.605 159.564,144.456 159.033,144.623 158.763 C 144.803 158.471,144.757 158.380,144.507 158.534 C 144.129 158.767,143.832 157.899,143.435 155.400 C 143.365 154.960,143.183 154.139,143.030 153.576 C 142.877 153.014,142.686 152.204,142.606 151.776 C 142.527 151.349,142.434 151.000,142.400 151.000 C 141.338 151.000,140.874 129.162,141.909 127.906 C 142.139 127.628,142.431 126.500,142.558 125.400 C 142.686 124.300,143.133 122.285,143.551 120.923 C 143.970 119.561,144.212 118.346,144.090 118.223 C 143.967 118.100,144.077 118.000,144.333 118.000 C 144.590 118.000,144.800 117.772,144.800 117.494 C 144.800 117.216,145.169 116.300,145.620 115.458 C 146.071 114.617,146.233 114.056,145.980 114.212 C 145.635 114.426,145.633 114.286,145.974 113.648 C 146.224 113.182,146.612 112.800,146.838 112.800 C 147.063 112.800,147.149 112.640,147.028 112.445 C 146.907 112.250,147.077 111.868,147.404 111.596 C 147.732 111.324,148.000 110.894,148.000 110.640 C 148.000 110.386,148.311 109.734,148.691 109.192 C 149.071 108.649,149.421 107.939,149.468 107.614 C 149.516 107.288,149.870 106.792,150.254 106.511 C 150.638 106.230,150.815 106.000,150.647 106.000 C 150.479 106.000,150.713 105.529,151.166 104.953 C 151.618 104.377,151.874 103.719,151.733 103.491 C 151.584 103.251,151.671 103.197,151.938 103.362 C 152.215 103.533,152.400 103.387,152.400 103.000 C 152.400 102.644,152.560 102.451,152.755 102.572 C 153.169 102.828,154.102 101.836,153.765 101.498 C 153.640 101.373,154.080 100.869,154.744 100.379 C 155.407 99.888,156.163 98.972,156.423 98.343 C 156.684 97.714,157.041 97.200,157.217 97.200 C 157.393 97.200,158.316 96.468,159.268 95.574 C 162.073 92.940,162.246 92.800,162.714 92.800 C 162.959 92.800,163.304 92.556,163.480 92.258 C 163.656 91.961,164.210 91.501,164.711 91.238 C 165.216 90.973,165.501 90.563,165.349 90.318 C 165.197 90.072,165.257 89.988,165.485 90.129 C 165.709 90.268,166.232 90.007,166.646 89.550 C 167.423 88.691,169.600 87.405,169.600 87.805 C 169.600 87.930,169.994 87.664,170.475 87.216 C 170.957 86.767,171.528 86.400,171.744 86.400 C 171.960 86.400,172.431 86.134,172.789 85.810 C 173.148 85.485,173.811 85.163,174.262 85.094 C 174.714 85.025,175.553 84.661,176.127 84.284 C 176.702 83.908,177.502 83.600,177.906 83.600 C 178.310 83.600,178.824 83.416,179.049 83.191 C 179.275 82.965,179.882 82.700,180.400 82.600 C 180.918 82.500,181.444 82.275,181.571 82.098 C 181.816 81.756,185.746 80.811,187.907 80.575 C 188.626 80.497,190.246 80.256,191.507 80.040 C 195.566 79.344,202.889 79.094,206.016 79.544 C 207.657 79.781,210.485 80.182,212.300 80.436 C 214.115 80.690,215.600 81.011,215.601 81.149 C 215.601 81.287,216.238 81.445,217.016 81.501 C 217.795 81.557,218.843 81.872,219.347 82.202 C 219.851 82.532,221.168 83.071,222.273 83.399 C 223.378 83.728,224.934 84.438,225.731 84.979 C 226.527 85.519,227.922 86.184,228.831 86.457 C 229.740 86.729,230.573 87.186,230.684 87.473 C 230.794 87.761,231.046 87.895,231.245 87.772 C 231.443 87.650,231.714 87.831,231.846 88.175 C 231.978 88.519,232.336 88.800,232.643 88.800 C 232.949 88.800,233.200 88.958,233.200 89.151 C 233.200 89.345,233.705 89.712,234.321 89.967 C 234.938 90.223,235.920 90.875,236.504 91.416 C 237.087 91.957,237.663 92.400,237.783 92.400 C 237.902 92.400,238.360 92.760,238.800 93.200 C 239.240 93.640,239.476 94.000,239.324 94.000 C 239.171 94.000,239.395 94.254,239.819 94.565 C 240.244 94.875,240.756 95.027,240.957 94.903 C 241.159 94.778,241.212 94.858,241.075 95.079 C 240.938 95.301,241.720 96.316,242.813 97.335 C 243.906 98.354,244.800 99.333,244.800 99.510 C 244.800 99.688,245.520 100.495,246.400 101.304 C 247.280 102.113,248.000 102.883,248.000 103.014 C 248.000 103.146,248.471 103.871,249.047 104.627 C 249.624 105.382,249.944 106.000,249.758 106.000 C 249.573 106.000,249.822 106.280,250.311 106.623 C 250.800 106.965,251.200 107.443,251.200 107.684 C 251.200 109.828,253.968 113.651,259.933 119.748 C 263.380 123.270,266.830 126.803,267.600 127.598 C 268.370 128.393,273.770 133.975,279.600 140.001 C 285.430 146.027,291.100 151.888,292.200 153.024 C 301.554 162.683,313.422 174.965,314.983 176.600 C 316.033 177.700,322.407 184.246,329.146 191.146 C 335.886 198.046,341.490 203.832,341.600 204.002 C 341.710 204.173,347.290 209.933,354.000 216.802 C 360.710 223.672,366.726 229.856,367.370 230.546 C 368.013 231.236,373.334 236.750,379.194 242.800 C 389.302 253.236,395.445 259.624,397.081 261.400 C 397.486 261.840,398.308 262.636,398.909 263.170 L 400.000 264.139 400.000 132.070 L 400.000 0.000 200.000 0.000 L 0.000 0.000 0.000 200.000 " stroke="none" fill="#2393d3" fill-rule="evenodd"></path><path id="path2" d="M255.404 116.298 C 255.952 117.452,256.400 118.667,256.400 118.998 C 256.400 119.329,256.580 119.600,256.800 119.600 C 257.020 119.600,257.200 119.881,257.200 120.224 C 257.200 120.598,257.387 120.732,257.668 120.558 C 257.988 120.360,258.050 120.491,257.866 120.971 C 257.718 121.357,257.852 122.692,258.164 123.937 C 260.012 131.321,260.254 147.489,258.567 150.837 C 258.279 151.408,257.919 152.815,257.767 153.964 C 257.615 155.113,257.258 156.285,256.974 156.569 C 256.690 156.853,256.334 157.743,256.184 158.547 C 256.033 159.351,255.750 160.107,255.555 160.228 C 255.360 160.349,255.194 160.752,255.188 161.124 C 255.181 161.496,254.288 163.510,253.204 165.600 C 252.119 167.690,250.860 170.165,250.406 171.100 C 249.952 172.035,249.399 172.800,249.177 172.800 C 248.956 172.800,248.676 173.057,248.556 173.372 C 248.321 173.982,246.221 176.487,244.113 178.669 C 243.405 179.402,242.919 180.245,243.034 180.543 C 243.161 180.875,242.788 181.273,242.073 181.570 C 241.431 181.836,240.306 182.672,239.574 183.427 C 238.842 184.182,238.034 184.800,237.778 184.800 C 237.522 184.800,236.702 185.428,235.956 186.196 C 235.210 186.963,234.403 187.593,234.162 187.596 C 233.921 187.598,233.398 187.960,233.000 188.400 C 232.602 188.840,232.010 189.200,231.684 189.200 C 231.358 189.200,230.675 189.650,230.165 190.200 C 229.644 190.762,228.792 191.200,228.219 191.200 C 227.659 191.200,227.200 191.378,227.200 191.595 C 227.200 191.813,226.480 192.106,225.600 192.246 C 224.635 192.401,224.000 192.720,224.000 193.051 C 224.000 193.353,223.663 193.600,223.251 193.600 C 222.602 193.600,221.387 194.045,217.800 195.598 C 217.360 195.788,216.100 196.132,215.000 196.361 C 213.900 196.590,212.100 196.980,211.000 197.228 C 206.730 198.189,193.773 198.057,188.896 197.002 C 182.035 195.518,177.236 193.918,174.406 192.172 C 173.184 191.417,171.867 190.800,171.480 190.800 C 171.092 190.800,170.676 190.543,170.555 190.228 C 170.435 189.913,169.855 189.461,169.268 189.223 C 167.797 188.626,164.555 186.290,161.540 183.653 C 160.693 182.913,160.000 182.404,160.000 182.522 C 160.000 182.722,172.682 195.814,183.888 207.182 C 186.590 209.923,188.800 212.293,188.800 212.449 C 188.800 212.950,189.766 213.086,190.949 212.752 C 192.892 212.203,210.742 212.182,211.288 212.728 C 211.548 212.988,212.849 213.206,214.180 213.213 C 217.303 213.230,226.821 214.569,227.892 215.142 C 228.345 215.385,229.770 215.701,231.058 215.845 C 232.346 215.990,233.850 216.353,234.400 216.652 C 234.950 216.952,236.570 217.453,238.000 217.766 C 241.302 218.487,245.221 219.771,247.855 220.993 C 248.984 221.518,250.574 222.071,251.386 222.224 C 252.199 222.376,252.955 222.737,253.065 223.026 C 253.176 223.315,253.831 223.675,254.520 223.826 C 255.940 224.138,256.194 224.244,259.100 225.728 C 260.255 226.317,261.476 226.800,261.813 226.800 C 262.150 226.800,262.529 227.070,262.655 227.400 C 262.782 227.730,263.164 228.000,263.505 228.000 C 263.846 228.000,264.681 228.423,265.362 228.941 C 266.821 230.049,269.200 231.320,269.200 230.990 C 269.200 230.863,269.785 231.309,270.500 231.981 C 271.215 232.652,272.124 233.307,272.520 233.434 C 272.916 233.562,273.855 234.282,274.607 235.033 C 275.358 235.785,276.178 236.400,276.429 236.400 C 276.849 236.400,279.467 238.287,280.742 239.507 C 281.040 239.793,281.985 240.384,282.842 240.821 C 283.699 241.259,284.400 241.870,284.400 242.181 C 284.400 242.492,284.715 242.847,285.100 242.970 C 285.485 243.094,286.340 243.739,287.000 244.404 C 287.660 245.068,288.442 245.834,288.738 246.106 C 289.646 246.940,291.202 248.524,293.314 250.765 C 294.021 251.516,295.087 252.573,295.682 253.115 C 296.277 253.656,297.881 255.599,299.247 257.432 C 300.613 259.265,301.972 260.857,302.266 260.970 C 302.560 261.083,302.800 261.516,302.800 261.934 C 302.800 262.351,303.160 263.150,303.600 263.709 C 304.040 264.269,304.400 264.919,304.400 265.154 C 304.400 265.389,304.850 265.876,305.400 266.237 C 305.950 266.597,306.400 267.237,306.400 267.659 C 306.400 268.080,306.670 268.529,307.000 268.655 C 307.330 268.782,307.600 269.226,307.600 269.643 C 307.600 270.059,307.791 270.400,308.025 270.400 C 308.259 270.400,308.991 271.615,309.651 273.100 C 310.311 274.585,311.470 277.073,312.226 278.630 C 312.982 280.186,313.600 281.737,313.600 282.076 C 313.600 282.415,313.937 283.121,314.348 283.646 C 314.759 284.171,315.223 285.230,315.378 286.000 C 315.533 286.770,315.993 288.133,316.399 289.029 C 316.805 289.924,317.254 291.364,317.397 292.229 C 317.540 293.093,317.810 294.160,317.996 294.600 C 318.764 296.417,319.200 298.203,319.208 299.560 C 319.212 300.352,319.476 302.440,319.794 304.200 C 320.112 305.960,320.378 308.784,320.386 310.476 C 320.394 312.168,320.544 313.642,320.720 313.751 C 321.203 314.049,321.331 320.800,320.854 320.800 C 320.633 320.800,320.396 321.295,320.327 321.900 L 320.200 323.000 201.133 323.000 C 135.647 323.000,82.161 323.090,82.275 323.200 C 82.573 323.486,102.202 343.702,104.600 346.193 C 105.700 347.336,111.370 353.191,117.200 359.204 C 123.030 365.217,128.319 370.691,128.954 371.369 C 130.065 372.554,132.994 375.569,149.290 392.307 L 156.781 400.000 278.390 400.000 L 400.000 400.000 400.000 332.076 L 400.000 264.151 398.300 262.542 C 397.365 261.656,395.081 259.327,393.224 257.366 C 391.367 255.405,385.054 248.850,379.194 242.800 C 373.334 236.750,368.013 231.236,367.370 230.546 C 366.726 229.856,360.710 223.672,354.000 216.802 C 347.290 209.933,341.710 204.173,341.600 204.002 C 341.490 203.832,335.886 198.046,329.146 191.146 C 322.407 184.246,316.033 177.700,314.983 176.600 C 313.422 174.965,301.554 162.683,292.200 153.024 C 291.100 151.888,285.430 146.024,279.600 139.993 C 256.821 116.430,254.290 113.951,255.404 116.298 M260.800 153.647 C 260.800 154.345,260.633 154.744,260.400 154.600 C 260.180 154.464,260.000 153.813,260.000 153.153 C 260.000 152.455,260.167 152.056,260.400 152.200 C 260.620 152.336,260.800 152.987,260.800 153.647 M232.200 213.200 C 232.064 213.420,231.423 213.600,230.776 213.600 C 230.129 213.600,229.600 213.420,229.600 213.200 C 229.600 212.980,230.241 212.800,231.024 212.800 C 231.871 212.800,232.347 212.962,232.200 213.200 M78.667 319.867 C 78.302 320.231,78.328 321.600,78.700 321.600 C 78.865 321.600,79.000 321.150,79.000 320.600 C 79.000 320.050,78.985 319.600,78.967 319.600 C 78.948 319.600,78.813 319.720,78.667 319.867 " stroke="none" fill="#1c74ab" fill-rule="evenodd"></path><path id="path3" d="M202.300 79.482 C 202.795 79.578,203.605 79.578,204.100 79.482 C 204.595 79.387,204.190 79.309,203.200 79.309 C 202.210 79.309,201.805 79.387,202.300 79.482 M254.400 114.967 C 254.400 115.059,254.774 116.004,255.232 117.067 C 266.654 143.616,253.311 178.185,226.656 191.102 C 225.586 191.621,224.800 192.133,224.908 192.242 C 225.216 192.549,227.200 191.956,227.200 191.557 C 227.200 191.360,227.659 191.200,228.219 191.200 C 228.792 191.200,229.644 190.762,230.165 190.200 C 230.675 189.650,231.358 189.200,231.684 189.200 C 232.010 189.200,232.602 188.840,233.000 188.400 C 233.398 187.960,233.921 187.598,234.162 187.596 C 234.403 187.593,235.210 186.963,235.956 186.196 C 236.702 185.428,237.522 184.800,237.778 184.800 C 238.034 184.800,238.842 184.182,239.574 183.427 C 240.306 182.672,241.431 181.836,242.073 181.570 C 242.860 181.244,243.166 180.888,243.010 180.481 C 242.868 180.113,243.289 179.388,244.089 178.622 C 245.857 176.930,248.286 174.075,248.556 173.372 C 248.676 173.057,248.956 172.800,249.177 172.800 C 249.399 172.800,249.952 172.035,250.406 171.100 C 250.860 170.165,252.119 167.690,253.204 165.600 C 254.288 163.510,255.181 161.496,255.188 161.124 C 255.194 160.752,255.360 160.349,255.555 160.228 C 255.750 160.107,256.033 159.351,256.184 158.547 C 256.334 157.743,256.690 156.853,256.974 156.569 C 257.258 156.285,257.615 155.113,257.767 153.964 C 257.919 152.815,258.279 151.408,258.567 150.837 C 260.254 147.489,260.012 131.321,258.164 123.937 C 257.852 122.692,257.718 121.357,257.866 120.971 C 258.050 120.491,257.988 120.360,257.668 120.558 C 257.387 120.732,257.200 120.598,257.200 120.224 C 257.200 119.881,257.020 119.600,256.800 119.600 C 256.580 119.600,256.400 119.353,256.400 119.051 C 256.400 118.417,254.852 114.800,254.581 114.800 C 254.482 114.800,254.400 114.875,254.400 114.967 M260.000 153.153 C 260.000 153.813,260.180 154.464,260.400 154.600 C 260.633 154.744,260.800 154.345,260.800 153.647 C 260.800 152.987,260.620 152.336,260.400 152.200 C 260.167 152.056,260.000 152.455,260.000 153.153 M157.428 179.614 C 159.356 182.146,166.886 188.257,169.268 189.223 C 169.855 189.461,170.435 189.913,170.555 190.228 C 170.676 190.543,171.092 190.800,171.480 190.800 C 171.867 190.800,173.184 191.417,174.406 192.172 C 177.236 193.918,182.035 195.518,188.896 197.002 C 193.773 198.057,206.730 198.189,211.000 197.228 C 212.100 196.980,213.900 196.590,215.000 196.361 C 216.100 196.132,217.360 195.788,217.800 195.598 C 221.387 194.045,222.602 193.600,223.251 193.600 C 223.663 193.600,224.000 193.333,224.000 193.006 C 224.000 192.513,223.643 192.556,221.900 193.261 C 201.486 201.519,176.469 196.873,160.174 181.800 C 157.010 178.873,156.638 178.577,157.428 179.614 M197.733 212.377 C 187.118 212.703,188.503 212.995,200.849 213.035 C 206.779 213.055,211.489 212.936,211.315 212.772 C 210.808 212.291,205.542 212.138,197.733 212.377 M229.600 213.200 C 229.600 213.420,230.129 213.600,230.776 213.600 C 231.423 213.600,232.064 213.420,232.200 213.200 C 232.347 212.962,231.871 212.800,231.024 212.800 C 230.241 212.800,229.600 212.980,229.600 213.200 M217.492 214.030 C 227.927 215.412,240.177 218.540,249.375 222.171 C 251.342 222.948,253.025 223.509,253.115 223.418 C 253.510 223.024,252.699 222.470,251.359 222.219 C 250.561 222.069,248.984 221.518,247.855 220.993 C 245.221 219.771,241.302 218.487,238.000 217.766 C 236.570 217.453,234.950 216.952,234.400 216.652 C 233.850 216.353,232.346 215.990,231.058 215.845 C 229.770 215.701,228.345 215.385,227.892 215.142 C 226.777 214.545,217.182 213.220,214.200 213.251 C 212.336 213.270,213.071 213.444,217.492 214.030 M253.600 223.700 C 253.710 223.810,256.808 225.434,260.484 227.310 C 264.160 229.185,268.982 231.907,271.198 233.360 C 275.672 236.291,276.297 236.572,274.400 234.800 C 273.693 234.140,272.968 233.600,272.788 233.600 C 272.609 233.600,271.953 233.175,271.331 232.655 C 270.709 232.135,269.390 231.299,268.400 230.797 C 267.410 230.295,266.043 229.461,265.362 228.942 C 264.681 228.424,263.846 228.000,263.505 228.000 C 263.164 228.000,262.782 227.730,262.655 227.400 C 262.529 227.070,262.150 226.800,261.813 226.800 C 261.476 226.800,260.345 226.364,259.300 225.831 C 256.548 224.427,253.000 223.101,253.600 223.700 M280.462 239.960 C 302.592 257.281,316.807 281.795,319.800 307.800 C 320.223 311.476,320.312 311.805,320.339 309.800 C 320.357 308.480,320.112 305.960,319.794 304.200 C 319.476 302.440,319.212 300.352,319.208 299.560 C 319.200 298.203,318.764 296.417,317.996 294.600 C 317.810 294.160,317.540 293.093,317.397 292.229 C 317.254 291.364,316.805 289.924,316.399 289.029 C 315.993 288.133,315.533 286.770,315.378 286.000 C 315.223 285.230,314.759 284.171,314.348 283.646 C 313.937 283.121,313.600 282.415,313.600 282.076 C 313.600 281.737,312.982 280.186,312.226 278.630 C 311.470 277.073,310.311 274.585,309.651 273.100 C 308.991 271.615,308.259 270.400,308.025 270.400 C 307.791 270.400,307.600 270.059,307.600 269.643 C 307.600 269.226,307.330 268.782,307.000 268.655 C 306.670 268.529,306.400 268.080,306.400 267.659 C 306.400 267.237,305.950 266.597,305.400 266.237 C 304.850 265.876,304.400 265.389,304.400 265.154 C 304.400 264.919,304.040 264.269,303.600 263.709 C 303.160 263.150,302.800 262.351,302.800 261.934 C 302.800 261.516,302.560 261.083,302.266 260.970 C 301.972 260.857,300.613 259.265,299.247 257.432 C 297.881 255.599,296.277 253.656,295.682 253.115 C 295.087 252.573,294.021 251.516,293.314 250.765 C 291.243 248.567,289.629 246.923,288.738 246.106 C 288.442 245.834,287.660 245.068,287.000 244.404 C 286.340 243.739,285.485 243.094,285.100 242.970 C 284.715 242.847,284.400 242.492,284.400 242.181 C 284.400 241.870,283.699 241.259,282.842 240.821 C 281.985 240.384,281.040 239.793,280.742 239.507 C 279.431 238.252,276.843 236.400,276.399 236.400 C 276.132 236.400,277.960 238.002,280.462 239.960 M79.309 310.000 C 79.309 310.990,79.387 311.395,79.482 310.900 C 79.578 310.405,79.578 309.595,79.482 309.100 C 79.387 308.605,79.309 309.010,79.309 310.000 M320.400 317.176 C 320.400 319.480,320.556 320.800,320.827 320.800 C 321.329 320.800,321.226 314.063,320.720 313.751 C 320.544 313.642,320.400 315.183,320.400 317.176 M81.200 322.525 C 82.700 323.237,320.063 323.212,320.300 322.500 C 320.433 322.101,296.271 322.005,200.333 322.025 C 107.338 322.045,80.426 322.158,81.200 322.525 " stroke="none" fill="#2a7593" fill-rule="evenodd"></path><path id="path4" d="M199.100 79.482 C 199.595 79.578,200.405 79.578,200.900 79.482 C 201.395 79.387,200.990 79.309,200.000 79.309 C 199.010 79.309,198.605 79.387,199.100 79.482 M193.300 79.876 C 193.685 79.976,194.315 79.976,194.700 79.876 C 195.085 79.775,194.770 79.693,194.000 79.693 C 193.230 79.693,192.915 79.775,193.300 79.876 M222.000 83.800 C 222.550 84.114,223.180 84.372,223.400 84.372 C 223.620 84.372,223.350 84.114,222.800 83.800 C 222.250 83.486,221.620 83.228,221.400 83.228 C 221.180 83.228,221.450 83.486,222.000 83.800 M176.500 84.196 C 175.785 84.507,175.200 84.862,175.200 84.986 C 175.200 85.209,177.986 84.147,178.346 83.787 C 178.701 83.432,177.797 83.633,176.500 84.196 M224.033 84.549 C 224.445 84.917,226.800 86.000,226.800 85.821 C 226.800 85.590,224.582 84.400,224.153 84.400 C 223.996 84.400,223.942 84.467,224.033 84.549 M227.233 86.149 C 227.645 86.517,230.000 87.600,230.000 87.421 C 230.000 87.190,227.782 86.000,227.353 86.000 C 227.196 86.000,227.142 86.067,227.233 86.149 M231.000 88.207 C 231.440 88.566,232.160 89.035,232.600 89.251 L 233.400 89.644 232.600 88.993 C 232.160 88.634,231.440 88.165,231.000 87.949 L 230.200 87.556 231.000 88.207 M166.122 90.229 L 165.000 91.258 166.300 90.354 C 167.015 89.857,167.600 89.393,167.600 89.325 C 167.600 89.009,167.158 89.280,166.122 90.229 M237.771 93.097 C 238.415 93.809,239.030 94.304,239.138 94.196 C 239.245 94.088,239.258 93.955,239.167 93.900 C 239.075 93.845,238.460 93.351,237.800 92.801 L 236.600 91.803 237.771 93.097 M241.618 96.557 C 243.634 98.823,245.003 100.399,246.521 102.200 C 247.077 102.860,247.627 103.305,247.744 103.189 C 247.860 103.073,246.121 101.073,243.878 98.746 C 241.635 96.418,240.618 95.433,241.618 96.557 M157.986 97.100 L 155.800 99.400 158.100 97.214 C 160.237 95.182,160.583 94.800,160.286 94.800 C 160.224 94.800,159.189 95.835,157.986 97.100 M154.959 100.500 C 153.207 102.521,152.687 103.200,152.890 103.200 C 153.007 103.200,153.767 102.390,154.579 101.400 C 156.081 99.566,156.379 98.863,154.959 100.500 M150.277 106.800 C 148.825 109.385,149.117 109.385,150.724 106.800 C 151.407 105.700,151.839 104.800,151.683 104.800 C 151.528 104.801,150.895 105.701,150.277 106.800 M250.430 107.800 C 250.924 108.680,251.500 109.580,251.710 109.800 C 252.309 110.428,250.939 107.894,250.196 107.000 C 249.830 106.560,249.935 106.920,250.430 107.800 M148.023 110.650 C 147.553 111.448,147.233 112.166,147.313 112.246 C 147.392 112.326,147.861 111.673,148.354 110.796 C 149.475 108.802,149.188 108.677,148.023 110.650 M144.865 117.417 C 144.609 117.978,144.407 118.654,144.416 118.919 C 144.424 119.183,144.697 118.788,145.022 118.039 C 145.705 116.465,145.561 115.890,144.865 117.417 M141.320 135.200 C 141.320 136.410,141.395 136.905,141.487 136.300 C 141.578 135.695,141.578 134.705,141.487 134.100 C 141.395 133.495,141.320 133.990,141.320 135.200 M258.914 135.000 C 258.917 136.100,258.995 136.503,259.087 135.895 C 259.179 135.286,259.177 134.386,259.082 133.895 C 258.987 133.403,258.911 133.900,258.914 135.000 M141.334 140.400 C 141.334 142.050,141.405 142.725,141.491 141.900 C 141.578 141.075,141.578 139.725,141.491 138.900 C 141.405 138.075,141.334 138.750,141.334 140.400 M258.920 141.600 C 258.920 142.810,258.995 143.305,259.087 142.700 C 259.178 142.095,259.178 141.105,259.087 140.500 C 258.995 139.895,258.920 140.390,258.920 141.600 M147.468 165.106 C 147.594 165.605,147.855 166.110,148.048 166.230 C 148.596 166.568,148.462 165.836,147.820 164.976 C 147.260 164.227,147.248 164.232,147.468 165.106 M251.400 167.200 C 251.059 167.860,250.869 168.400,250.979 168.400 C 251.089 168.400,251.459 167.860,251.800 167.200 C 252.141 166.540,252.331 166.000,252.221 166.000 C 252.111 166.000,251.741 166.540,251.400 167.200 M152.247 172.800 C 152.833 173.997,155.963 177.837,157.625 179.400 C 158.883 180.583,158.659 180.216,156.764 177.992 C 155.354 176.337,153.695 174.357,153.077 173.592 C 152.459 172.826,152.086 172.470,152.247 172.800 M242.181 179.700 L 240.600 181.400 242.300 179.819 C 243.881 178.348,244.184 178.000,243.881 178.000 C 243.816 178.000,243.051 178.765,242.181 179.700 M159.600 181.306 C 159.600 181.394,160.365 182.074,161.300 182.817 C 162.235 183.560,162.746 183.852,162.436 183.465 C 161.851 182.737,159.600 181.023,159.600 181.306 M235.200 185.649 C 233.806 186.871,233.805 186.872,235.088 186.019 C 235.796 185.548,236.482 184.991,236.612 184.781 C 236.997 184.157,236.677 184.354,235.200 185.649 M196.900 213.097 C 198.385 213.174,200.815 213.174,202.300 213.097 C 203.785 213.020,202.570 212.957,199.600 212.957 C 196.630 212.957,195.415 213.020,196.900 213.097 M187.705 213.487 C 188.314 213.579,189.214 213.577,189.705 213.482 C 190.197 213.387,189.700 213.311,188.600 213.314 C 187.500 213.317,187.097 213.395,187.705 213.487 M209.905 213.483 C 210.402 213.579,211.122 213.575,211.505 213.475 C 211.887 213.375,211.480 213.296,210.600 213.301 C 209.720 213.305,209.407 213.387,209.905 213.483 M183.700 213.876 C 184.085 213.976,184.715 213.976,185.100 213.876 C 185.485 213.775,185.170 213.693,184.400 213.693 C 183.630 213.693,183.315 213.775,183.700 213.876 M138.800 227.233 L 137.800 228.048 139.200 227.373 C 140.912 226.548,141.094 226.397,140.367 226.409 C 140.055 226.414,139.350 226.785,138.800 227.233 M125.695 235.011 C 124.543 235.786,123.600 236.508,123.600 236.615 C 123.600 236.721,124.590 236.151,125.800 235.347 C 127.722 234.071,128.287 233.600,127.895 233.600 C 127.837 233.600,126.847 234.235,125.695 235.011 M120.176 238.963 C 118.622 240.145,116.446 241.987,115.338 243.056 C 114.045 244.305,113.911 244.497,114.963 243.594 C 115.863 242.821,118.085 241.043,119.900 239.644 C 122.777 237.426,123.509 236.777,123.100 236.807 C 123.045 236.812,121.729 237.782,120.176 238.963 M282.000 241.304 C 282.000 241.398,282.945 242.263,284.100 243.226 C 285.255 244.190,285.947 244.661,285.638 244.274 C 285.018 243.496,282.000 241.032,282.000 241.304 M108.589 249.300 L 105.800 252.200 108.700 249.411 C 111.394 246.820,111.783 246.400,111.489 246.400 C 111.428 246.400,110.123 247.705,108.589 249.300 M299.027 258.700 C 300.067 260.075,300.994 261.200,301.086 261.200 C 301.334 261.200,299.845 259.207,298.397 257.600 C 297.703 256.830,297.986 257.325,299.027 258.700 M98.323 261.100 C 97.398 262.179,95.009 265.879,95.676 265.200 C 96.467 264.396,99.314 260.400,99.096 260.400 C 99.001 260.400,98.654 260.715,98.323 261.100 M94.553 266.500 C 93.176 268.836,93.086 269.035,93.787 268.200 C 94.600 267.232,95.300 266.000,95.038 266.000 C 94.933 266.000,94.715 266.225,94.553 266.500 M92.200 270.400 C 91.859 271.060,91.669 271.600,91.779 271.600 C 91.889 271.600,92.259 271.060,92.600 270.400 C 92.941 269.740,93.131 269.200,93.021 269.200 C 92.911 269.200,92.541 269.740,92.200 270.400 M307.400 271.200 C 307.741 271.860,308.111 272.400,308.221 272.400 C 308.331 272.400,308.141 271.860,307.800 271.200 C 307.459 270.540,307.089 270.000,306.979 270.000 C 306.869 270.000,307.059 270.540,307.400 271.200 M90.200 274.000 C 89.859 274.660,89.669 275.200,89.779 275.200 C 89.889 275.200,90.259 274.660,90.600 274.000 C 90.941 273.340,91.131 272.800,91.021 272.800 C 90.911 272.800,90.541 273.340,90.200 274.000 M88.865 276.617 C 88.195 278.088,88.323 278.402,89.047 277.065 C 89.386 276.440,89.588 275.854,89.496 275.763 C 89.405 275.671,89.121 276.056,88.865 276.617 M79.331 314.200 C 79.333 315.740,79.405 316.321,79.492 315.491 C 79.579 314.661,79.577 313.401,79.489 312.691 C 79.400 311.981,79.329 312.660,79.331 314.200 M320.155 317.000 C 320.156 319.860,320.220 320.978,320.297 319.483 C 320.374 317.989,320.374 315.649,320.296 314.283 C 320.218 312.918,320.155 314.140,320.155 317.000 " stroke="none" fill="#71acc8" fill-rule="evenodd"></path></g></svg>