<svg id="svg" version="1.1" xmlns="http://www.w3.org/2000/svg" xmlns:xlink="http://www.w3.org/1999/xlink" width="400" height="396.6273187183811" viewBox="0, 0, 400,396.6273187183811"><g id="svgg"><path id="path0" d="M0.000 198.314 L 0.000 396.627 200.000 396.627 L 400.000 396.627 400.000 198.314 L 400.000 0.000 200.000 0.000 L 0.000 0.000 0.000 198.314 M206.030 6.417 C 285.801 10.288,354.020 62.114,378.515 137.454 C 418.491 260.414,327.173 386.301,197.976 386.337 C 56.132 386.376,-35.672 237.798,27.825 110.961 C 58.394 49.900,120.185 9.691,188.443 6.442 C 196.674 6.050,198.424 6.047,206.030 6.417 " stroke="none" fill="#ffffff" fill-rule="evenodd"></path><path id="path1" d="M187.352 6.642 C 75.964 12.501,-6.957 114.386,9.809 224.789 C 25.694 329.387,123.974 400.970,228.331 383.953 C 320.152 368.980,387.578 289.684,387.617 196.627 C 387.663 87.492,296.392 0.906,187.352 6.642 M131.127 125.642 C 147.108 128.810,155.162 147.521,146.528 161.418 C 136.683 177.261,112.996 175.929,105.042 159.086 C 96.692 141.404,111.951 121.840,131.127 125.642 M275.717 126.141 C 292.926 131.523,298.435 152.794,285.890 165.422 C 272.286 179.117,249.299 172.155,245.681 153.244 C 242.386 136.022,259.096 120.944,275.717 126.141 M262.113 268.898 C 271.114 273.318,271.114 285.873,262.113 290.293 L 260.202 291.231 198.820 291.331 C 131.614 291.441,134.831 291.534,131.785 289.406 C 123.494 283.613,125.368 271.305,135.004 268.278 C 136.164 267.913,147.767 267.843,198.314 267.895 L 260.202 267.960 262.113 268.898 " stroke="none" fill="#fbcb2c" fill-rule="evenodd"></path><path id="path2" d="M122.169 125.501 C 107.056 128.019,98.393 145.006,105.042 159.086 C 111.892 173.591,130.957 177.173,142.587 166.140 C 159.616 149.984,145.374 121.636,122.169 125.501 M264.250 125.604 C 242.850 130.558,238.324 158.069,257.046 169.389 C 272.402 178.674,292.749 167.000,292.749 148.904 C 292.749 134.173,278.291 122.353,264.250 125.604 M135.004 268.278 C 125.368 271.305,123.494 283.613,131.785 289.406 C 134.831 291.534,131.614 291.441,198.820 291.331 L 260.202 291.231 262.113 290.293 C 271.114 285.873,271.114 273.318,262.113 268.898 L 260.202 267.960 198.314 267.895 C 147.767 267.843,136.164 267.913,135.004 268.278 " stroke="none" fill="#6c4c43" fill-rule="evenodd"></path><path id="path3" d="M195.882 6.321 C 197.048 6.387,198.870 6.386,199.929 6.320 C 200.988 6.253,200.034 6.199,197.808 6.200 C 195.582 6.200,194.715 6.255,195.882 6.321 M329.342 59.359 C 330.256 60.287,331.079 61.046,331.172 61.046 C 331.265 61.046,330.593 60.287,329.680 59.359 C 328.766 58.432,327.943 57.673,327.850 57.673 C 327.757 57.673,328.429 58.432,329.342 59.359 M63.069 61.889 C 62.250 62.723,61.656 63.406,61.748 63.406 C 61.841 63.406,62.587 62.723,63.406 61.889 C 64.226 61.054,64.820 60.371,64.727 60.371 C 64.635 60.371,63.888 61.054,63.069 61.889 M334.570 64.587 C 335.578 65.607,336.478 66.442,336.571 66.442 C 336.663 66.442,335.915 65.607,334.907 64.587 C 333.900 63.567,332.999 62.732,332.907 62.732 C 332.814 62.732,333.562 63.567,334.570 64.587 M387.606 188.027 C 387.610 188.769,387.679 189.033,387.760 188.613 C 387.840 188.194,387.837 187.587,387.753 187.264 C 387.668 186.942,387.602 187.285,387.606 188.027 M7.531 192.074 C 7.532 193.373,7.593 193.863,7.666 193.163 C 7.739 192.463,7.738 191.401,7.663 190.802 C 7.589 190.203,7.529 190.776,7.531 192.074 M7.531 200.843 C 7.532 202.142,7.593 202.632,7.666 201.932 C 7.739 201.232,7.738 200.170,7.663 199.571 C 7.589 198.972,7.529 199.545,7.531 200.843 M387.606 204.890 C 387.610 205.632,387.679 205.896,387.760 205.477 C 387.840 205.057,387.837 204.450,387.753 204.128 C 387.668 203.805,387.602 204.148,387.606 204.890 M56.998 324.557 C 56.998 324.616,57.492 325.109,58.094 325.654 L 59.191 326.644 58.200 325.548 C 57.277 324.526,56.998 324.297,56.998 324.557 M332.034 330.944 L 328.668 334.401 332.125 331.035 C 334.026 329.184,335.582 327.628,335.582 327.578 C 335.582 327.334,335.161 327.733,332.034 330.944 M187.268 386.404 C 187.593 386.489,188.124 386.489,188.449 386.404 C 188.773 386.320,188.508 386.250,187.858 386.250 C 187.209 386.250,186.944 386.320,187.268 386.404 " stroke="none" fill="#fce4a0" fill-rule="evenodd"></path><path id="path4" d="M206.492 6.641 C 206.817 6.725,207.348 6.725,207.673 6.641 C 207.997 6.556,207.732 6.486,207.083 6.486 C 206.433 6.486,206.168 6.556,206.492 6.641 M67.601 57.757 L 66.610 58.853 67.707 57.863 C 68.728 56.939,68.958 56.661,68.697 56.661 C 68.639 56.661,68.146 57.154,67.601 57.757 M58.832 66.526 L 57.841 67.622 58.938 66.632 C 59.959 65.708,60.189 65.430,59.928 65.430 C 59.870 65.430,59.377 65.923,58.832 66.526 M387.618 190.725 C 387.620 191.653,387.686 191.992,387.763 191.479 C 387.841 190.967,387.839 190.208,387.758 189.793 C 387.678 189.378,387.615 189.798,387.618 190.725 M7.531 196.459 C 7.532 197.757,7.593 198.247,7.666 197.547 C 7.739 196.848,7.738 195.785,7.663 195.186 C 7.589 194.588,7.529 195.160,7.531 196.459 M387.618 202.192 C 387.620 203.120,387.686 203.459,387.763 202.946 C 387.841 202.434,387.839 201.675,387.758 201.260 C 387.678 200.845,387.615 201.265,387.618 202.192 M60.202 327.825 C 60.927 328.567,61.596 329.174,61.688 329.174 C 61.781 329.174,61.264 328.567,60.540 327.825 C 59.815 327.083,59.146 326.476,59.054 326.476 C 58.961 326.476,59.478 327.083,60.202 327.825 M66.090 333.642 C 66.917 334.524,67.638 335.245,67.692 335.245 C 67.946 335.245,67.678 334.942,66.189 333.544 L 64.587 332.040 66.090 333.642 M189.292 386.404 C 189.616 386.489,190.148 386.489,190.472 386.404 C 190.797 386.320,190.531 386.250,189.882 386.250 C 189.233 386.250,188.967 386.320,189.292 386.404 M204.979 386.411 C 205.398 386.491,206.005 386.488,206.328 386.404 C 206.650 386.319,206.307 386.253,205.565 386.257 C 204.823 386.261,204.559 386.330,204.979 386.411 " stroke="none" fill="#fcde7f" fill-rule="evenodd"></path></g></svg>