<svg id="svg" version="1.1" xmlns="http://www.w3.org/2000/svg" xmlns:xlink="http://www.w3.org/1999/xlink" width="400" height="294.3478260869565" viewBox="0, 0, 400,294.3478260869565"><g id="svgg"><path id="path0" d="M223.600 17.968 C 220.661 18.662,220.348 19.338,219.858 26.055 C 218.501 44.653,215.592 58.413,210.984 68.033 C 207.963 74.340,203.755 79.207,196.239 85.087 C 188.229 91.353,185.799 94.603,181.859 104.318 C 180.477 107.727,179.035 111.198,178.654 112.032 C 178.274 112.867,177.337 114.941,176.573 116.642 C 169.262 132.918,162.203 144.455,155.389 151.263 C 150.267 156.382,147.881 157.579,142.342 157.809 L 138.733 157.959 138.733 210.921 C 138.733 240.050,138.841 263.949,138.972 264.030 C 139.104 264.112,140.463 264.394,141.992 264.658 C 144.513 265.092,147.744 265.687,150.074 266.144 C 150.560 266.239,152.415 266.578,154.197 266.896 C 155.979 267.214,158.034 267.596,158.763 267.743 C 160.544 268.104,165.661 269.063,170.692 269.979 C 175.839 270.915,181.213 271.913,186.598 272.931 C 193.535 274.243,197.465 274.659,210.015 275.409 C 212.688 275.569,216.532 275.830,218.557 275.990 C 230.041 276.895,261.364 277.086,268.630 276.294 C 278.988 275.166,282.014 274.455,285.862 272.251 C 292.528 268.431,300.479 260.658,302.674 255.816 C 303.135 254.800,303.214 253.714,303.251 247.865 C 303.307 239.208,302.985 239.915,310.265 232.461 C 318.609 223.919,319.618 221.097,316.655 214.580 C 315.671 212.415,313.517 206.580,313.068 204.860 C 311.941 200.552,312.399 199.532,318.796 192.096 C 325.010 184.873,325.053 184.016,319.662 175.122 C 313.735 165.342,313.714 164.622,319.143 157.290 C 323.601 151.269,323.568 151.335,323.541 148.601 C 323.502 144.523,320.126 136.957,316.315 132.404 C 316.042 132.078,315.135 130.980,314.299 129.963 C 307.450 121.634,303.245 120.906,262.077 120.925 L 236.526 120.936 236.011 119.599 C 234.812 116.482,235.819 108.992,238.230 103.093 C 238.396 102.688,238.824 101.627,239.183 100.736 C 240.447 97.593,242.775 92.666,246.990 84.213 C 249.334 79.512,251.252 75.528,251.252 75.359 C 251.252 75.190,251.446 74.635,251.682 74.124 C 252.271 72.856,253.481 68.567,254.264 64.976 C 255.170 60.823,255.248 47.455,254.388 43.741 C 252.257 34.529,250.161 30.414,245.155 25.606 C 239.084 19.776,229.831 16.497,223.600 17.968 M83.652 153.065 C 80.793 154.069,78.317 156.187,77.135 158.639 L 76.436 160.088 76.436 212.224 L 76.436 264.359 77.132 265.685 C 78.690 268.649,80.882 270.491,83.927 271.395 C 86.636 272.200,117.910 272.101,120.514 271.280 C 123.835 270.232,126.037 268.108,127.255 264.776 C 128.053 262.594,128.171 162.255,127.378 159.979 C 126.368 157.079,124.666 155.029,122.149 153.681 L 120.913 153.019 102.504 152.964 C 92.378 152.934,83.895 152.979,83.652 153.065 " stroke="none" fill="#047c04" fill-rule="evenodd"></path><path id="path1" d="M0.000 147.275 L 0.000 294.551 200.000 294.551 L 400.000 294.551 400.000 147.275 L 400.000 0.000 200.000 0.000 L 0.000 0.000 0.000 147.275 M232.514 17.806 C 248.814 22.225,257.658 38.147,255.549 59.271 C 255.256 62.205,254.911 64.948,254.782 65.366 C 254.653 65.784,254.322 67.121,254.046 68.336 C 253.559 70.480,252.655 73.469,252.130 74.669 C 251.988 74.993,251.575 75.987,251.211 76.878 C 250.847 77.769,248.601 82.408,246.220 87.187 C 236.984 105.725,234.352 114.648,236.634 119.692 C 237.087 120.694,237.241 120.808,237.940 120.658 C 244.248 119.301,294.876 120.453,303.093 122.140 C 309.944 123.547,316.513 129.752,321.446 139.476 C 325.647 147.759,325.379 149.964,319.149 158.314 C 314.374 164.714,314.427 165.438,320.363 175.110 C 325.709 183.819,325.539 185.693,318.737 193.078 C 317.861 194.029,315.906 196.383,314.321 198.395 C 313.465 199.482,313.047 201.850,313.397 203.636 C 313.755 205.465,314.777 208.734,315.160 209.278 C 315.275 209.440,315.676 210.434,316.053 211.487 C 316.430 212.541,316.827 213.535,316.936 213.697 C 317.715 214.858,318.529 218.329,318.526 220.478 C 318.521 224.460,317.563 225.927,309.839 233.779 C 303.617 240.105,303.894 239.442,303.693 248.454 C 303.518 256.275,303.627 255.793,301.227 259.352 C 299.813 261.448,294.309 267.032,291.605 269.113 C 286.140 273.318,282.949 274.769,277.025 275.738 C 276.053 275.897,274.661 276.154,273.932 276.308 C 271.344 276.857,263.315 277.245,251.546 277.389 C 240.365 277.526,234.010 277.362,219.440 276.559 C 216.443 276.394,211.870 276.143,209.278 276.001 C 206.686 275.859,203.306 275.604,201.767 275.434 C 200.228 275.264,197.445 275.000,195.582 274.848 C 193.719 274.696,191.134 274.370,189.838 274.124 C 185.373 273.275,182.469 272.744,180.707 272.453 C 179.735 272.293,178.741 272.085,178.498 271.992 C 178.255 271.898,176.996 271.641,175.700 271.419 C 171.377 270.679,167.550 269.989,160.236 268.630 C 157.563 268.134,153.918 267.462,152.135 267.137 C 150.353 266.812,148.299 266.425,147.570 266.277 C 146.841 266.130,144.720 265.728,142.857 265.384 C 140.994 265.041,139.171 264.700,138.806 264.628 L 138.143 264.495 138.217 210.966 L 138.292 157.437 142.121 157.274 C 148.435 157.003,153.271 153.886,159.002 146.392 C 159.683 145.501,160.344 144.639,160.470 144.477 C 161.021 143.769,164.654 138.366,164.654 138.254 C 164.654 138.186,165.182 137.293,165.828 136.270 C 167.558 133.532,168.455 131.866,171.800 125.184 C 174.722 119.346,175.549 117.604,177.180 113.844 C 177.602 112.872,178.188 111.546,178.483 110.898 C 178.778 110.250,179.715 107.997,180.565 105.891 C 182.882 100.156,184.189 97.072,184.373 96.907 C 184.463 96.826,184.710 96.423,184.921 96.012 C 186.609 92.727,191.685 87.618,197.791 83.059 C 211.246 73.012,216.745 58.051,219.443 24.153 C 219.842 19.149,220.433 18.153,223.459 17.391 C 225.038 16.993,230.427 17.240,232.514 17.806 M120.239 152.446 C 123.449 153.278,125.924 155.338,127.474 158.468 L 128.277 160.088 128.277 212.224 L 128.277 264.359 127.439 266.067 C 126.564 267.850,123.993 270.692,123.255 270.692 C 123.020 270.692,122.828 270.797,122.828 270.926 C 122.828 272.219,86.257 273.206,83.623 271.984 C 83.234 271.804,82.297 271.369,81.541 271.018 C 78.767 269.732,76.583 266.833,75.994 263.656 C 75.591 261.483,75.605 162.348,76.008 160.530 C 76.327 159.096,77.087 157.400,77.708 156.738 C 77.922 156.510,78.298 156.016,78.545 155.640 C 79.226 154.601,81.884 152.961,83.675 152.475 C 86.122 151.811,117.693 151.787,120.239 152.446 " stroke="none" fill="#ffffff" fill-rule="evenodd"></path><path id="path2" d="M219.515 25.773 C 219.518 26.421,219.578 26.652,219.649 26.285 C 219.719 25.919,219.716 25.389,219.643 25.107 C 219.569 24.825,219.511 25.125,219.515 25.773 M255.488 53.756 C 255.489 55.700,255.536 56.457,255.594 55.438 C 255.652 54.419,255.651 52.828,255.593 51.903 C 255.535 50.978,255.487 51.811,255.488 53.756 M202.790 79.013 L 200.736 81.149 202.872 79.095 C 204.046 77.965,205.007 77.004,205.007 76.959 C 205.007 76.743,204.698 77.030,202.790 79.013 M189.831 90.206 L 187.482 92.636 189.912 90.287 C 192.169 88.105,192.476 87.776,192.261 87.776 C 192.217 87.776,191.123 88.870,189.831 90.206 M244.560 120.688 C 245.334 120.749,246.527 120.748,247.211 120.687 C 247.894 120.625,247.261 120.575,245.803 120.576 C 244.345 120.577,243.785 120.627,244.560 120.688 M281.510 120.684 C 282.033 120.749,282.961 120.750,283.572 120.686 C 284.183 120.622,283.756 120.569,282.622 120.568 C 281.487 120.567,280.987 120.619,281.510 120.684 M237.632 120.974 C 237.999 121.045,238.529 121.042,238.811 120.968 C 239.092 120.894,238.792 120.837,238.144 120.840 C 237.496 120.843,237.266 120.904,237.632 120.974 M287.990 120.978 C 288.513 121.043,289.441 121.045,290.052 120.981 C 290.663 120.917,290.236 120.864,289.102 120.862 C 287.968 120.861,287.468 120.913,287.990 120.978 M299.043 121.853 C 299.326 121.927,299.790 121.927,300.074 121.853 C 300.357 121.778,300.125 121.718,299.558 121.718 C 298.991 121.718,298.759 121.778,299.043 121.853 M155.073 151.178 L 153.019 153.314 155.155 151.260 C 156.329 150.130,157.290 149.169,157.290 149.124 C 157.290 148.908,156.981 149.195,155.073 151.178 M117.894 152.486 C 118.177 152.560,118.641 152.560,118.925 152.486 C 119.208 152.412,118.976 152.351,118.409 152.351 C 117.842 152.351,117.610 152.412,117.894 152.486 M138.280 157.953 C 138.203 158.155,138.174 182.180,138.216 211.340 L 138.292 264.359 138.439 210.972 C 138.520 181.609,138.549 157.585,138.503 157.585 C 138.458 157.585,138.357 157.750,138.280 157.953 M318.538 192.710 L 317.673 193.667 318.630 192.802 C 319.523 191.996,319.723 191.753,319.495 191.753 C 319.445 191.753,319.014 192.183,318.538 192.710 M312.881 202.062 C 312.881 202.629,312.942 202.861,313.016 202.577 C 313.090 202.294,313.090 201.830,313.016 201.546 C 312.942 201.263,312.881 201.495,312.881 202.062 M313.825 229.234 L 312.960 230.191 313.918 229.326 C 314.810 228.520,315.010 228.277,314.783 228.277 C 314.732 228.277,314.301 228.708,313.825 229.234 M308.683 234.389 L 305.891 237.261 308.763 234.468 C 311.430 231.875,311.769 231.517,311.555 231.517 C 311.512 231.517,310.219 232.809,308.683 234.389 M303.512 248.012 C 303.512 251.495,303.555 252.920,303.607 251.178 C 303.659 249.437,303.659 246.587,303.607 244.845 C 303.555 243.104,303.512 244.529,303.512 248.012 M298.214 262.518 L 297.349 263.476 298.306 262.611 C 298.833 262.135,299.264 261.704,299.264 261.653 C 299.264 261.426,299.021 261.626,298.214 262.518 M294.979 265.758 L 293.814 267.010 295.066 265.846 C 295.755 265.206,296.318 264.642,296.318 264.594 C 296.318 264.371,296.062 264.594,294.979 265.758 M93.467 272.091 C 98.299 272.137,106.119 272.137,110.846 272.091 C 115.573 272.046,111.620 272.008,102.062 272.008 C 92.504 272.009,88.636 272.046,93.467 272.091 M195.361 274.724 C 195.644 274.798,196.108 274.798,196.392 274.724 C 196.675 274.650,196.443 274.590,195.876 274.590 C 195.309 274.590,195.077 274.650,195.361 274.724 M198.306 275.019 C 198.590 275.093,199.054 275.093,199.337 275.019 C 199.621 274.945,199.389 274.884,198.822 274.884 C 198.255 274.884,198.023 274.945,198.306 275.019 M207.294 275.613 C 207.660 275.684,208.190 275.681,208.472 275.607 C 208.753 275.534,208.454 275.476,207.806 275.479 C 207.158 275.483,206.927 275.543,207.294 275.613 M210.682 275.911 C 211.129 275.979,211.792 275.977,212.154 275.907 C 212.517 275.837,212.150 275.782,211.340 275.784 C 210.530 275.786,210.234 275.843,210.682 275.911 M215.685 276.197 C 215.968 276.271,216.432 276.271,216.716 276.197 C 216.999 276.123,216.767 276.062,216.200 276.062 C 215.633 276.062,215.401 276.123,215.685 276.197 M221.134 276.497 C 221.499 276.567,222.095 276.567,222.459 276.497 C 222.824 276.426,222.526 276.369,221.797 276.369 C 221.068 276.369,220.770 276.426,221.134 276.497 M225.546 276.796 C 226.069 276.861,226.996 276.862,227.608 276.798 C 228.219 276.734,227.791 276.681,226.657 276.680 C 225.523 276.679,225.023 276.731,225.546 276.796 M266.495 276.791 C 266.859 276.861,267.456 276.861,267.820 276.791 C 268.185 276.721,267.887 276.663,267.158 276.663 C 266.429 276.663,266.130 276.721,266.495 276.791 M234.394 277.091 C 234.923 277.157,235.719 277.155,236.161 277.088 C 236.604 277.021,236.171 276.967,235.199 276.969 C 234.227 276.971,233.865 277.026,234.394 277.091 M260.607 277.086 C 260.974 277.157,261.504 277.154,261.785 277.080 C 262.067 277.006,261.767 276.949,261.119 276.952 C 260.471 276.955,260.241 277.016,260.607 277.086 " stroke="none" fill="#9cd49c" fill-rule="evenodd"></path><path id="path3" d="M223.920 17.629 C 223.549 17.734,225.007 17.823,227.160 17.825 C 229.597 17.829,230.630 17.752,229.897 17.622 C 228.448 17.364,224.836 17.369,223.920 17.629 M221.429 18.580 C 220.811 18.940,220.024 20.381,220.042 21.119 C 220.049 21.411,220.242 21.124,220.471 20.483 C 220.700 19.841,221.191 19.082,221.563 18.795 C 222.306 18.223,222.236 18.110,221.429 18.580 M235.935 19.588 C 236.340 19.819,236.804 20.009,236.966 20.009 C 237.128 20.009,236.929 19.819,236.524 19.588 C 236.119 19.356,235.655 19.167,235.493 19.167 C 235.331 19.167,235.530 19.356,235.935 19.588 M239.323 21.127 C 239.485 21.281,240.147 21.706,240.795 22.070 C 241.443 22.433,241.708 22.511,241.384 22.241 C 240.726 21.695,238.860 20.686,239.323 21.127 M245.822 26.227 C 247.290 27.764,249.062 29.981,249.758 31.153 C 250.455 32.325,251.088 33.284,251.166 33.284 C 252.074 33.284,246.833 26.480,244.330 24.408 C 243.682 23.871,244.353 24.690,245.822 26.227 M219.815 25.037 C 219.815 25.766,219.873 26.064,219.943 25.700 C 220.013 25.335,220.013 24.739,219.943 24.374 C 219.873 24.010,219.815 24.308,219.815 25.037 M219.344 29.417 C 219.220 30.935,219.179 32.238,219.253 32.311 C 219.444 32.503,219.814 28.247,219.681 27.382 C 219.619 26.983,219.468 27.899,219.344 29.417 M218.920 34.462 C 218.920 35.029,218.980 35.261,219.054 34.978 C 219.128 34.694,219.128 34.230,219.054 33.947 C 218.980 33.663,218.920 33.895,218.920 34.462 M251.412 34.242 C 251.522 34.606,251.734 35.034,251.882 35.192 C 252.030 35.350,252.002 35.052,251.820 34.529 C 251.447 33.459,251.103 33.216,251.412 34.242 M252.304 36.230 C 252.413 36.635,252.624 37.165,252.774 37.408 C 252.964 37.715,252.987 37.625,252.850 37.113 C 252.742 36.708,252.530 36.178,252.380 35.935 C 252.191 35.628,252.167 35.718,252.304 36.230 M218.430 37.724 C 218.318 38.718,218.286 39.592,218.360 39.666 C 218.434 39.740,218.589 38.989,218.704 37.997 C 218.819 37.005,218.851 36.131,218.774 36.054 C 218.698 35.978,218.543 36.729,218.430 37.724 M253.206 39.028 C 253.516 40.429,253.938 41.271,253.723 40.059 C 253.623 39.492,253.421 38.829,253.276 38.586 C 253.103 38.297,253.079 38.450,253.206 39.028 M254.101 42.563 C 254.386 44.350,254.811 45.487,254.595 43.888 C 254.497 43.159,254.303 42.297,254.165 41.973 C 254.002 41.594,253.979 41.803,254.101 42.563 M217.537 44.047 C 217.423 44.959,217.391 45.766,217.466 45.841 C 217.541 45.916,217.695 45.231,217.809 44.319 C 217.923 43.407,217.955 42.599,217.880 42.524 C 217.805 42.450,217.651 43.135,217.537 44.047 M216.642 48.895 C 216.529 49.565,216.503 50.180,216.584 50.261 C 216.665 50.342,216.824 49.860,216.937 49.190 C 217.050 48.520,217.076 47.906,216.995 47.825 C 216.914 47.744,216.755 48.226,216.642 48.895 M255.204 53.903 C 255.204 57.062,255.248 58.354,255.301 56.775 C 255.354 55.195,255.354 52.610,255.301 51.031 C 255.248 49.451,255.204 50.744,255.204 53.903 M215.657 53.654 C 215.464 54.487,215.360 55.223,215.426 55.288 C 215.491 55.354,215.707 54.730,215.906 53.903 C 216.104 53.075,216.208 52.340,216.137 52.268 C 216.065 52.196,215.849 52.820,215.657 53.654 M214.875 56.554 C 214.763 57.063,214.738 57.546,214.819 57.627 C 214.900 57.708,215.058 57.357,215.169 56.848 C 215.281 56.339,215.306 55.856,215.225 55.775 C 215.144 55.694,214.987 56.045,214.875 56.554 M213.903 60.000 C 213.467 61.420,213.678 61.631,214.138 60.236 C 214.333 59.647,214.434 59.108,214.364 59.038 C 214.294 58.968,214.087 59.401,213.903 60.000 M254.217 64.821 C 254.022 65.814,253.919 66.683,253.990 66.753 C 254.060 66.824,254.277 66.069,254.472 65.076 C 254.668 64.083,254.770 63.214,254.700 63.144 C 254.630 63.073,254.412 63.828,254.217 64.821 M212.124 64.961 C 211.631 66.044,211.725 66.275,212.259 65.291 C 212.508 64.831,212.657 64.399,212.589 64.332 C 212.522 64.265,212.313 64.548,212.124 64.961 M211.197 67.000 C 211.045 67.400,210.648 68.261,210.314 68.915 C 209.981 69.568,209.774 70.103,209.855 70.103 C 210.020 70.103,211.066 68.120,211.491 67.000 C 211.643 66.601,211.701 66.274,211.620 66.274 C 211.539 66.274,211.349 66.601,211.197 67.000 M253.338 68.802 C 253.148 69.557,253.048 70.230,253.115 70.297 C 253.183 70.365,253.394 69.803,253.584 69.048 C 253.774 68.293,253.874 67.620,253.807 67.552 C 253.739 67.485,253.528 68.047,253.338 68.802 M209.109 71.035 C 208.909 71.414,208.551 72.021,208.315 72.386 C 208.079 72.750,207.949 73.049,208.027 73.049 C 208.274 73.049,209.771 70.645,209.619 70.493 C 209.539 70.413,209.309 70.657,209.109 71.035 M252.489 71.782 C 252.053 73.202,252.264 73.413,252.725 72.018 C 252.919 71.429,253.021 70.890,252.951 70.820 C 252.881 70.750,252.673 71.183,252.489 71.782 M206.648 74.827 C 206.061 75.643,204.624 77.346,203.454 78.612 L 201.325 80.914 203.737 78.460 C 205.848 76.313,208.233 73.343,207.847 73.343 C 207.774 73.343,207.234 74.011,206.648 74.827 M251.531 74.415 C 251.368 74.842,251.290 75.247,251.357 75.314 C 251.424 75.380,251.619 75.031,251.792 74.536 C 252.175 73.438,251.943 73.330,251.531 74.415 M246.601 84.988 C 244.137 89.935,242.128 94.077,242.137 94.193 C 242.154 94.421,250.190 78.531,250.856 76.951 C 251.876 74.533,250.747 76.665,246.601 84.988 M196.797 84.240 C 190.573 89.265,186.548 93.510,184.860 96.834 C 184.010 98.506,184.563 97.865,185.749 95.803 C 187.218 93.249,193.139 87.306,197.415 84.094 C 199.141 82.798,200.623 81.572,200.709 81.370 C 200.912 80.891,201.282 80.619,196.797 84.240 M240.998 96.480 C 240.111 98.306,240.210 98.562,241.124 96.805 C 241.532 96.019,241.816 95.326,241.755 95.265 C 241.693 95.203,241.353 95.750,240.998 96.480 M239.228 100.525 C 238.875 101.376,238.592 102.203,238.598 102.362 C 238.605 102.521,238.944 101.875,239.352 100.926 C 239.760 99.977,240.043 99.150,239.982 99.088 C 239.920 99.027,239.581 99.673,239.228 100.525 M182.964 100.896 C 182.470 101.979,182.565 102.210,183.098 101.226 C 183.347 100.766,183.496 100.335,183.429 100.267 C 183.361 100.200,183.152 100.483,182.964 100.896 M182.065 103.126 C 181.884 103.646,181.787 104.124,181.850 104.187 C 181.913 104.250,182.113 103.875,182.294 103.355 C 182.476 102.834,182.573 102.357,182.510 102.294 C 182.447 102.231,182.247 102.605,182.065 103.126 M237.754 104.249 C 237.265 105.651,237.345 106.090,237.869 104.882 C 238.109 104.328,238.260 103.735,238.203 103.565 C 238.147 103.395,237.945 103.703,237.754 104.249 M236.819 107.216 C 236.636 107.897,236.543 108.512,236.614 108.582 C 236.684 108.653,236.885 108.147,237.060 107.457 C 237.235 106.768,237.327 106.154,237.265 106.092 C 237.203 106.030,237.002 106.536,236.819 107.216 M179.680 108.904 C 177.945 113.009,177.851 113.258,178.134 112.960 C 178.510 112.565,180.909 106.879,180.762 106.732 C 180.698 106.668,180.211 107.646,179.680 108.904 M236.082 110.162 C 235.971 110.671,235.941 111.149,236.016 111.224 C 236.091 111.299,236.237 110.937,236.340 110.420 C 236.586 109.192,236.348 108.954,236.082 110.162 M176.943 115.235 C 176.505 116.227,176.192 117.085,176.248 117.141 C 176.304 117.198,176.713 116.435,177.156 115.448 C 177.599 114.460,177.912 113.602,177.851 113.541 C 177.790 113.480,177.382 114.242,176.943 115.235 M235.434 115.464 C 235.434 116.355,235.490 116.719,235.557 116.274 C 235.625 115.828,235.625 115.099,235.557 114.654 C 235.490 114.208,235.434 114.573,235.434 115.464 M175.019 119.455 C 174.131 121.281,174.230 121.537,175.144 119.780 C 175.553 118.994,175.837 118.301,175.775 118.240 C 175.714 118.178,175.373 118.725,175.019 119.455 M235.676 118.409 C 235.671 118.652,235.849 119.249,236.072 119.735 C 236.593 120.872,236.600 120.343,236.082 118.999 C 235.864 118.432,235.681 118.166,235.676 118.409 M243.741 120.754 C 241.149 120.842,249.897 120.913,263.181 120.913 C 276.465 120.913,285.611 120.829,283.505 120.726 C 278.994 120.505,250.539 120.526,243.741 120.754 M290.505 121.272 C 290.953 121.339,291.615 121.338,291.978 121.268 C 292.340 121.198,291.973 121.142,291.163 121.145 C 290.353 121.147,290.057 121.204,290.505 121.272 M293.397 121.467 C 293.465 121.528,294.713 121.651,296.171 121.741 C 298.080 121.857,298.451 121.832,297.496 121.651 C 296.153 121.395,293.172 121.261,293.397 121.467 M302.062 122.533 C 303.308 122.850,304.377 122.850,303.387 122.533 C 302.982 122.403,302.320 122.300,301.915 122.303 C 301.253 122.308,301.268 122.331,302.062 122.533 M306.910 123.876 C 308.576 124.652,310.127 125.787,312.686 128.104 C 313.507 128.847,313.145 128.448,311.881 127.216 C 309.777 125.166,306.684 123.118,305.703 123.125 C 305.482 123.127,306.026 123.465,306.910 123.876 M169.514 130.486 C 169.104 131.296,168.834 131.959,168.915 131.959 C 168.996 131.959,169.398 131.296,169.809 130.486 C 170.219 129.676,170.489 129.013,170.408 129.013 C 170.327 129.013,169.924 129.676,169.514 130.486 M315.357 131.222 C 315.971 132.032,316.512 132.750,316.558 132.818 C 316.604 132.885,316.705 132.878,316.782 132.801 C 316.858 132.724,316.318 132.006,315.580 131.206 L 314.239 129.750 315.357 131.222 M167.859 133.500 C 167.509 134.186,166.558 135.810,165.746 137.108 C 164.934 138.407,164.075 139.801,163.838 140.206 L 163.406 140.943 164.026 140.206 C 165.132 138.894,168.987 132.253,168.644 132.253 C 168.562 132.253,168.209 132.814,167.859 133.500 M317.203 133.579 C 317.371 133.903,317.787 134.499,318.126 134.904 C 318.547 135.407,318.646 135.454,318.438 135.052 C 318.269 134.728,317.854 134.131,317.514 133.726 C 317.093 133.224,316.994 133.177,317.203 133.579 M319.315 136.819 C 319.679 137.467,320.103 138.130,320.258 138.292 C 320.699 138.754,319.690 136.888,319.143 136.230 C 318.874 135.906,318.951 136.171,319.315 136.819 M161.599 143.469 C 160.678 144.777,160.052 145.769,160.209 145.672 C 160.635 145.409,163.635 141.090,163.392 141.090 C 163.327 141.090,162.520 142.160,161.599 143.469 M321.670 141.237 C 321.670 141.399,321.860 141.863,322.091 142.268 C 322.323 142.673,322.512 142.872,322.512 142.710 C 322.512 142.548,322.323 142.084,322.091 141.679 C 321.860 141.274,321.670 141.075,321.670 141.237 M322.542 143.446 C 322.542 143.689,322.671 144.087,322.828 144.330 C 323.081 144.723,323.113 144.723,323.113 144.330 C 323.113 144.087,322.985 143.689,322.828 143.446 C 322.574 143.054,322.542 143.054,322.542 143.446 M158.589 147.496 C 157.969 148.266,156.594 149.835,155.534 150.984 C 154.469 152.139,154.765 151.890,156.195 150.427 C 158.571 147.996,160.174 146.097,159.849 146.097 C 159.777 146.097,159.210 146.727,158.589 147.496 M323.540 148.348 C 323.553 149.667,323.661 150.594,323.780 150.410 C 324.050 149.990,324.020 147.671,323.732 146.686 C 323.601 146.241,323.525 146.898,323.540 148.348 M322.718 152.209 C 322.488 152.655,321.690 153.848,320.944 154.860 C 320.199 155.873,319.655 156.701,319.736 156.701 C 319.817 156.701,320.493 155.873,321.239 154.860 C 322.609 152.998,323.555 151.399,323.285 151.399 C 323.204 151.399,322.949 151.764,322.718 152.209 M84.885 152.575 C 84.024 152.705,83.273 152.859,83.216 152.916 C 83.159 152.973,91.643 153.019,102.069 153.019 C 114.548 153.019,120.805 152.922,120.380 152.734 C 119.584 152.381,87.116 152.236,84.885 152.575 M81.721 153.594 C 81.169 154.006,81.172 154.015,81.816 153.853 C 82.183 153.760,82.555 153.568,82.643 153.425 C 82.893 153.022,82.354 153.121,81.721 153.594 M121.480 153.425 C 121.568 153.568,121.941 153.760,122.308 153.853 C 122.951 154.015,122.955 154.006,122.403 153.594 C 121.770 153.121,121.231 153.022,121.480 153.425 M152.277 153.854 C 151.870 154.205,151.141 154.800,150.657 155.176 C 150.174 155.553,149.978 155.763,150.221 155.643 C 150.464 155.522,151.193 155.023,151.841 154.533 C 152.489 154.043,153.074 153.601,153.142 153.551 C 153.209 153.502,153.209 153.406,153.142 153.339 C 153.074 153.272,152.685 153.503,152.277 153.854 M79.493 155.251 L 78.203 156.452 79.602 155.336 C 80.372 154.722,81.001 154.182,81.001 154.135 C 81.001 153.908,80.680 154.146,79.493 155.251 M124.431 155.322 C 125.232 156.080,125.951 156.701,126.029 156.701 C 126.293 156.701,124.748 155.174,123.859 154.557 C 123.373 154.219,123.630 154.563,124.431 155.322 M146.392 157.143 C 145.825 157.361,145.560 157.544,145.803 157.549 C 146.046 157.554,146.642 157.376,147.128 157.153 C 148.266 156.633,147.737 156.625,146.392 157.143 M126.567 158.023 C 126.837 158.588,127.109 158.998,127.173 158.934 C 127.308 158.799,126.414 156.996,126.212 156.996 C 126.138 156.996,126.298 157.458,126.567 158.023 M138.635 157.781 C 138.527 157.889,138.439 181.866,138.439 211.063 C 138.439 268.531,138.333 264.569,139.862 264.477 C 140.139 264.461,140.032 264.359,139.617 264.243 L 138.881 264.038 138.806 210.969 L 138.732 157.900 141.752 157.804 L 144.772 157.709 141.802 157.647 C 140.168 157.613,138.743 157.673,138.635 157.781 M127.255 159.647 C 127.255 159.890,127.383 160.287,127.541 160.530 C 127.794 160.923,127.826 160.923,127.826 160.530 C 127.826 160.287,127.698 159.890,127.541 159.647 C 127.287 159.254,127.255 159.254,127.255 159.647 M317.005 160.162 C 316.242 161.263,315.995 161.708,316.144 161.708 C 316.213 161.708,316.620 161.178,317.049 160.530 C 317.921 159.213,317.883 158.895,317.005 160.162 M76.178 161.156 C 75.933 162.380,75.998 262.693,76.244 263.567 C 76.350 263.941,76.436 240.844,76.436 212.241 C 76.436 183.638,76.419 160.236,76.399 160.236 C 76.379 160.236,76.279 160.650,76.178 161.156 M127.979 212.224 C 127.979 239.926,128.014 251.216,128.056 237.311 C 128.098 223.406,128.098 200.741,128.056 186.943 C 128.014 173.145,127.979 184.521,127.979 212.224 M315.339 166.568 C 315.433 167.216,315.627 167.868,315.771 168.016 C 315.915 168.164,315.897 167.767,315.731 167.133 C 315.288 165.438,315.146 165.234,315.339 166.568 M316.053 168.591 C 316.053 168.910,317.517 171.723,317.683 171.723 C 317.764 171.723,317.481 171.027,317.053 170.177 C 316.232 168.541,316.053 168.258,316.053 168.591 M318.358 172.975 C 318.681 173.501,319.620 175.048,320.445 176.412 C 321.970 178.933,322.617 179.830,321.949 178.498 C 321.316 177.235,318.069 172.018,317.917 172.018 C 317.837 172.018,318.036 172.448,318.358 172.975 M322.544 180.133 C 322.549 180.286,322.754 180.744,322.998 181.149 L 323.441 181.885 323.249 181.149 C 323.048 180.380,322.525 179.627,322.544 180.133 M323.564 183.947 C 323.564 184.988,323.654 185.613,323.764 185.335 C 323.874 185.058,323.964 184.433,323.964 183.947 C 323.964 183.461,323.874 182.836,323.764 182.559 C 323.654 182.281,323.564 182.906,323.564 183.947 M322.680 187.040 C 322.429 187.526,322.290 187.923,322.371 187.923 C 322.452 187.923,322.724 187.526,322.975 187.040 C 323.226 186.554,323.366 186.156,323.285 186.156 C 323.204 186.156,322.932 186.554,322.680 187.040 M319.938 190.799 C 318.249 192.818,318.129 193.015,319.379 191.712 C 320.813 190.218,322.426 188.212,322.185 188.222 C 322.133 188.224,321.122 189.384,319.938 190.799 M316.771 194.477 L 315.906 195.434 316.863 194.569 C 317.390 194.094,317.820 193.663,317.820 193.612 C 317.820 193.384,317.577 193.585,316.771 194.477 M312.642 201.054 C 312.533 201.633,312.567 202.660,312.717 203.336 C 312.965 204.456,312.988 204.361,312.981 202.283 C 312.973 199.718,312.925 199.545,312.642 201.054 M313.411 206.186 C 313.411 206.429,313.540 206.826,313.697 207.069 C 313.950 207.462,313.982 207.462,313.982 207.069 C 313.982 206.826,313.854 206.429,313.697 206.186 C 313.443 205.793,313.411 205.793,313.411 206.186 M315.338 211.193 C 315.447 211.598,315.658 212.128,315.808 212.371 C 315.998 212.678,316.021 212.588,315.884 212.077 C 315.776 211.672,315.564 211.141,315.414 210.898 C 315.225 210.591,315.201 210.681,315.338 211.193 M318.199 220.471 C 318.201 221.281,318.259 221.578,318.326 221.130 C 318.394 220.682,318.392 220.019,318.322 219.657 C 318.252 219.295,318.197 219.661,318.199 220.471 M316.862 224.766 C 316.417 225.563,316.114 226.215,316.188 226.215 C 316.389 226.215,317.910 223.555,317.782 223.427 C 317.721 223.366,317.307 223.969,316.862 224.766 M310.453 232.319 C 307.805 235.007,307.181 235.718,308.964 234.013 C 310.654 232.397,312.245 230.863,312.499 230.604 C 314.148 228.920,315.269 227.688,315.152 227.688 C 315.077 227.688,312.962 229.772,310.453 232.319 M305.250 237.776 C 304.922 238.141,304.548 238.638,304.419 238.881 C 304.170 239.349,304.238 239.285,305.431 237.923 C 305.822 237.478,306.075 237.113,305.994 237.113 C 305.913 237.113,305.578 237.412,305.250 237.776 M303.571 240.512 C 303.470 240.775,303.399 241.212,303.413 241.482 C 303.427 241.752,303.555 241.583,303.697 241.105 C 303.975 240.175,303.877 239.715,303.571 240.512 M303.184 244.919 C 303.186 245.891,303.241 246.253,303.306 245.724 C 303.372 245.194,303.370 244.399,303.303 243.956 C 303.236 243.514,303.182 243.947,303.184 244.919 M300.788 258.984 C 300.086 260.028,299.902 260.420,300.364 259.890 C 301.168 258.967,302.344 257.143,302.135 257.143 C 302.075 257.143,301.470 257.971,300.788 258.984 M296.171 264.171 C 294.254 266.200,293.842 266.728,294.993 265.681 C 295.965 264.796,296.892 263.930,297.054 263.755 C 297.216 263.581,297.873 262.883,298.513 262.205 C 299.154 261.527,299.551 260.990,299.397 261.012 C 299.243 261.034,297.791 262.456,296.171 264.171 M127.393 264.212 C 127.283 264.560,127.258 264.912,127.339 264.993 C 127.420 265.074,127.577 264.855,127.688 264.507 C 127.798 264.158,127.823 263.807,127.742 263.726 C 127.661 263.645,127.504 263.864,127.393 264.212 M142.415 264.941 C 143.225 265.157,144.153 265.338,144.477 265.343 L 145.066 265.353 144.477 265.118 C 144.153 264.989,143.225 264.807,142.415 264.715 L 140.943 264.548 142.415 264.941 M76.879 265.562 C 76.880 265.893,77.992 267.747,78.189 267.747 C 78.267 267.747,78.046 267.250,77.698 266.642 C 76.919 265.281,76.877 265.226,76.879 265.562 M126.663 266.260 C 126.275 267.197,124.365 269.329,123.122 270.213 C 122.403 270.725,122.406 270.726,123.270 270.235 C 124.980 269.262,127.670 266.011,127.174 265.515 C 127.095 265.436,126.865 265.771,126.663 266.260 M146.392 265.648 C 147.453 265.989,149.910 266.306,149.190 266.009 C 148.866 265.876,147.938 265.687,147.128 265.589 C 146.221 265.480,145.938 265.503,146.392 265.648 M152.725 266.863 C 153.971 267.180,155.040 267.180,154.050 266.863 C 153.645 266.733,152.982 266.630,152.577 266.633 C 151.916 266.638,151.931 266.661,152.725 266.863 M155.823 267.419 C 156.231 267.551,157.225 267.741,158.032 267.840 C 158.954 267.953,159.224 267.931,158.757 267.780 C 158.349 267.647,157.355 267.458,156.548 267.359 C 155.626 267.246,155.357 267.268,155.823 267.419 M291.429 268.443 C 290.603 269.113,289.543 269.966,289.073 270.338 C 288.603 270.710,288.417 270.918,288.660 270.801 C 288.903 270.684,289.888 269.982,290.849 269.241 C 291.811 268.500,292.735 267.802,292.903 267.689 C 293.071 267.576,293.146 267.426,293.070 267.354 C 292.993 267.283,292.255 267.772,291.429 268.443 M79.020 268.829 C 79.469 269.312,80.397 270.000,81.082 270.358 C 81.767 270.716,82.077 270.838,81.772 270.629 C 81.467 270.421,80.539 269.733,79.710 269.101 C 78.441 268.132,78.332 268.090,79.020 268.829 M162.150 268.630 C 163.396 268.947,164.466 268.947,163.476 268.630 C 163.071 268.501,162.408 268.397,162.003 268.400 C 161.342 268.405,161.356 268.428,162.150 268.630 M166.863 269.514 C 167.349 269.638,168.078 269.739,168.483 269.739 C 169.140 269.739,169.124 269.715,168.336 269.514 C 167.850 269.390,167.121 269.289,166.716 269.289 C 166.059 269.289,166.075 269.313,166.863 269.514 M171.576 270.398 C 172.062 270.521,172.857 270.623,173.343 270.623 C 174.086 270.624,174.039 270.586,173.049 270.381 C 171.557 270.072,170.351 270.086,171.576 270.398 M176.289 271.281 C 176.775 271.405,177.570 271.507,178.056 271.507 C 178.799 271.508,178.752 271.469,177.761 271.264 C 176.269 270.956,175.064 270.970,176.289 271.281 M286.816 271.686 C 285.401 272.556,285.006 272.967,286.156 272.372 C 287.079 271.895,288.325 271.006,288.071 271.005 C 287.990 271.005,287.425 271.312,286.816 271.686 M181.155 272.132 C 181.563 272.264,182.557 272.453,183.364 272.552 C 184.286 272.666,184.555 272.643,184.088 272.492 C 183.680 272.360,182.686 272.171,181.879 272.072 C 180.957 271.959,180.688 271.981,181.155 272.132 M185.862 273.034 C 186.597 273.284,188.425 273.441,188.193 273.234 C 188.126 273.173,187.408 273.048,186.598 272.954 C 185.605 272.839,185.365 272.865,185.862 273.034 M190.661 273.935 C 191.113 274.071,192.372 274.252,193.459 274.338 L 195.434 274.493 193.078 274.087 C 190.419 273.630,189.438 273.568,190.661 273.935 M281.885 274.080 C 281.318 274.298,281.053 274.481,281.296 274.486 C 281.539 274.491,282.135 274.313,282.622 274.090 C 283.759 273.569,283.230 273.562,281.885 274.080 M197.427 274.733 C 197.874 274.800,198.537 274.799,198.899 274.729 C 199.262 274.659,198.895 274.603,198.085 274.606 C 197.275 274.608,196.979 274.665,197.427 274.733 M199.730 274.924 C 199.797 274.983,201.377 275.102,203.240 275.187 C 205.489 275.290,206.083 275.264,205.007 275.108 C 203.333 274.866,199.513 274.733,199.730 274.924 M277.614 275.124 C 277.204 275.310,277.382 275.337,278.203 275.212 C 278.851 275.113,279.437 274.984,279.504 274.924 C 279.757 274.701,278.180 274.868,277.614 275.124 M209.503 275.616 C 209.951 275.684,210.614 275.682,210.976 275.612 C 211.338 275.542,210.972 275.487,210.162 275.489 C 209.352 275.491,209.056 275.549,209.503 275.616 M212.690 275.811 C 212.758 275.872,214.602 275.991,216.789 276.076 C 219.408 276.177,220.112 276.151,218.851 275.999 C 216.827 275.755,212.482 275.622,212.690 275.811 M271.281 275.994 C 269.771 276.312,271.469 276.323,273.490 276.008 L 274.963 275.778 273.638 275.778 C 272.909 275.777,271.848 275.875,271.281 275.994 M223.932 276.503 C 224.540 276.567,225.534 276.567,226.141 276.503 C 226.749 276.440,226.252 276.388,225.037 276.388 C 223.822 276.388,223.325 276.440,223.932 276.503 M267.378 276.497 C 267.743 276.567,268.339 276.567,268.704 276.497 C 269.068 276.426,268.770 276.369,268.041 276.369 C 267.312 276.369,267.014 276.426,267.378 276.497 M233.137 276.912 C 239.251 277.146,258.380 277.147,262.739 276.913 C 264.602 276.812,257.644 276.730,247.275 276.730 C 236.907 276.730,230.545 276.812,233.137 276.912 " stroke="none" fill="#7cbc7c" fill-rule="evenodd"></path><path id="path4" d="M225.708 17.301 C 226.483 17.362,227.676 17.361,228.359 17.299 C 229.043 17.237,228.409 17.188,226.951 17.188 C 225.493 17.189,224.934 17.240,225.708 17.301 M221.465 18.169 C 220.373 18.847,219.728 20.078,219.774 21.400 C 219.813 22.529,219.814 22.529,220.005 21.167 C 220.218 19.651,220.634 19.016,221.944 18.216 C 222.430 17.918,222.695 17.678,222.533 17.682 C 222.371 17.686,221.890 17.905,221.465 18.169 M232.253 17.968 C 232.577 18.107,233.041 18.221,233.284 18.221 C 233.563 18.221,233.508 18.127,233.137 17.968 C 232.813 17.828,232.349 17.714,232.106 17.714 C 231.828 17.714,231.882 17.808,232.253 17.968 M236.497 19.435 C 237.535 19.927,238.441 20.273,238.510 20.204 C 238.651 20.063,236.359 19.007,235.299 18.724 C 234.920 18.623,235.459 18.943,236.497 19.435 M239.028 20.538 C 239.190 20.692,239.853 21.117,240.501 21.480 C 241.149 21.844,241.414 21.922,241.090 21.652 C 240.432 21.105,238.566 20.097,239.028 20.538 M219.515 23.711 C 219.518 24.359,219.578 24.590,219.649 24.223 C 219.719 23.857,219.716 23.327,219.643 23.045 C 219.569 22.764,219.511 23.063,219.515 23.711 M244.244 24.129 C 245.007 24.804,246.399 26.180,247.337 27.187 C 248.275 28.193,248.849 28.751,248.612 28.426 C 247.809 27.324,244.629 24.112,243.741 23.506 C 243.255 23.174,243.481 23.455,244.244 24.129 M219.066 28.277 C 218.951 29.168,218.873 30.493,218.893 31.222 C 218.920 32.182,219.001 31.898,219.187 30.191 C 219.483 27.475,219.381 25.851,219.066 28.277 M218.625 33.579 C 218.625 34.146,218.686 34.378,218.760 34.094 C 218.834 33.811,218.834 33.347,218.760 33.063 C 218.686 32.780,218.625 33.012,218.625 33.579 M251.862 34.315 C 251.862 34.477,252.051 34.941,252.283 35.346 C 252.514 35.751,252.704 35.950,252.704 35.788 C 252.704 35.626,252.514 35.162,252.283 34.757 C 252.051 34.352,251.862 34.153,251.862 34.315 M252.893 36.819 C 253.002 37.224,253.213 37.754,253.363 37.997 C 253.553 38.304,253.576 38.214,253.439 37.703 C 253.331 37.297,253.120 36.767,252.969 36.524 C 252.780 36.217,252.757 36.307,252.893 36.819 M218.014 38.292 C 217.985 38.859,217.898 39.853,217.822 40.501 L 217.682 41.679 217.984 40.501 C 218.150 39.853,218.237 38.859,218.176 38.292 L 218.067 37.261 218.014 38.292 M253.788 39.764 C 253.888 40.331,254.090 40.994,254.235 41.237 C 254.549 41.760,254.247 40.233,253.858 39.323 C 253.687 38.925,253.665 39.069,253.788 39.764 M254.699 43.741 C 254.793 44.551,254.917 45.269,254.975 45.336 C 255.195 45.592,255.028 43.420,254.784 42.857 C 254.620 42.478,254.590 42.793,254.699 43.741 M217.128 44.219 C 217.104 44.645,217.018 45.440,216.938 45.987 L 216.791 46.981 217.101 45.992 C 217.272 45.448,217.358 44.653,217.292 44.225 L 217.172 43.446 217.128 44.219 M255.450 49.337 C 255.453 49.985,255.513 50.216,255.584 49.849 C 255.654 49.483,255.652 48.953,255.578 48.671 C 255.504 48.389,255.447 48.689,255.450 49.337 M216.236 49.337 C 216.212 49.661,216.124 50.258,216.041 50.663 L 215.889 51.399 216.205 50.677 C 216.378 50.279,216.466 49.683,216.400 49.351 C 216.284 48.764,216.279 48.763,216.236 49.337 M255.778 54.050 C 255.778 55.670,255.828 56.295,255.888 55.439 C 255.947 54.583,255.947 53.258,255.886 52.494 C 255.826 51.730,255.777 52.430,255.778 54.050 M215.206 53.940 C 214.961 55.167,215.199 55.405,215.464 54.197 C 215.576 53.688,215.606 53.210,215.531 53.135 C 215.456 53.060,215.310 53.422,215.206 53.940 M255.456 58.321 C 255.456 59.050,255.513 59.348,255.583 58.984 C 255.654 58.619,255.654 58.023,255.583 57.658 C 255.513 57.294,255.456 57.592,255.456 58.321 M213.288 60.710 C 213.106 61.231,213.009 61.708,213.072 61.771 C 213.135 61.834,213.335 61.460,213.517 60.939 C 213.698 60.419,213.795 59.941,213.732 59.878 C 213.669 59.815,213.469 60.190,213.288 60.710 M254.946 62.518 C 254.841 63.369,254.695 64.462,254.622 64.948 C 254.519 65.633,254.546 65.700,254.743 65.243 C 255.031 64.575,255.476 60.972,255.271 60.972 C 255.197 60.972,255.051 61.668,254.946 62.518 M212.419 63.194 C 211.925 64.277,212.020 64.508,212.553 63.523 C 212.802 63.063,212.951 62.632,212.884 62.565 C 212.816 62.497,212.607 62.780,212.419 63.194 M253.792 68.373 C 253.547 69.600,253.785 69.838,254.050 68.630 C 254.162 68.121,254.192 67.643,254.117 67.568 C 254.042 67.493,253.896 67.855,253.792 68.373 M209.122 70.324 C 208.601 71.256,207.592 72.855,206.881 73.878 C 206.170 74.902,205.725 75.655,205.892 75.552 C 206.580 75.126,210.620 68.630,210.196 68.630 C 210.127 68.630,209.644 69.392,209.122 70.324 M201.915 79.357 C 200.133 81.145,199.205 82.190,199.853 81.679 C 201.314 80.527,205.835 75.974,205.442 76.050 C 205.284 76.080,203.697 77.568,201.915 79.357 M248.075 82.929 C 247.070 84.947,246.312 86.598,246.391 86.598 C 246.586 86.598,250.136 79.493,250.006 79.363 C 249.949 79.306,249.080 80.911,248.075 82.929 M197.206 83.447 C 192.749 87.024,190.389 89.126,188.513 91.192 C 187.946 91.816,188.675 91.199,190.133 89.820 C 191.591 88.441,194.076 86.284,195.655 85.028 C 197.235 83.771,198.527 82.682,198.527 82.608 C 198.527 82.399,198.455 82.445,197.206 83.447 M186.999 93.004 C 186.151 94.027,185.792 94.551,185.938 94.551 C 186.019 94.551,186.440 94.087,186.873 93.520 C 187.675 92.468,187.772 92.070,186.999 93.004 M242.169 94.711 C 241.675 95.794,241.769 96.025,242.303 95.040 C 242.552 94.580,242.701 94.149,242.633 94.082 C 242.566 94.014,242.357 94.297,242.169 94.711 M185.136 95.607 C 184.861 96.026,184.687 96.420,184.749 96.482 C 184.811 96.544,185.094 96.201,185.378 95.720 C 186.013 94.645,185.824 94.557,185.136 95.607 M183.260 99.249 C 183.088 99.743,183.009 100.147,183.086 100.147 C 183.285 100.147,183.841 98.617,183.695 98.471 C 183.628 98.405,183.432 98.754,183.260 99.249 M240.107 99.424 C 239.613 100.507,239.707 100.738,240.241 99.753 C 240.490 99.293,240.639 98.862,240.572 98.795 C 240.504 98.727,240.295 99.010,240.107 99.424 M182.360 101.358 C 182.178 101.879,182.081 102.356,182.144 102.419 C 182.207 102.482,182.407 102.108,182.589 101.587 C 182.770 101.067,182.867 100.589,182.804 100.526 C 182.741 100.463,182.541 100.838,182.360 101.358 M181.491 103.547 C 180.998 104.630,181.092 104.861,181.625 103.877 C 181.875 103.417,182.023 102.986,181.956 102.918 C 181.889 102.851,181.679 103.134,181.491 103.547 M180.461 106.087 C 180.195 106.766,180.025 107.369,180.084 107.428 C 180.143 107.487,180.412 106.983,180.682 106.308 C 180.952 105.633,181.122 105.030,181.060 104.967 C 180.997 104.905,180.728 105.409,180.461 106.087 M179.429 108.555 C 178.936 109.638,179.030 109.869,179.564 108.884 C 179.813 108.424,179.962 107.993,179.894 107.926 C 179.827 107.858,179.618 108.141,179.429 108.555 M236.547 109.596 C 236.366 110.440,236.274 111.188,236.342 111.256 C 236.411 111.325,236.615 110.690,236.796 109.845 C 236.977 109.000,237.070 108.253,237.001 108.184 C 236.932 108.116,236.728 108.751,236.547 109.596 M177.662 112.678 C 177.168 113.761,177.263 113.993,177.796 113.008 C 178.045 112.548,178.194 112.117,178.127 112.049 C 178.059 111.982,177.850 112.265,177.662 112.678 M176.778 114.740 C 176.285 115.823,176.379 116.054,176.913 115.070 C 177.162 114.610,177.311 114.179,177.243 114.111 C 177.176 114.044,176.967 114.327,176.778 114.740 M235.725 115.611 C 235.727 116.421,235.784 116.718,235.852 116.270 C 235.920 115.822,235.918 115.159,235.848 114.797 C 235.778 114.435,235.723 114.801,235.725 115.611 M175.939 116.568 C 175.839 116.852,175.700 117.216,175.632 117.378 C 175.564 117.541,175.717 117.416,175.972 117.101 C 176.435 116.530,176.575 116.053,176.279 116.053 C 176.193 116.053,176.040 116.285,175.939 116.568 M175.011 118.569 C 174.518 119.652,174.612 119.884,175.145 118.899 C 175.394 118.439,175.543 118.008,175.476 117.940 C 175.409 117.873,175.199 118.156,175.011 118.569 M236.390 119.661 C 236.500 120.026,236.712 120.454,236.860 120.612 C 237.008 120.770,236.980 120.472,236.798 119.949 C 236.425 118.879,236.080 118.636,236.390 119.661 M257.069 120.397 C 261.322 120.443,268.281 120.443,272.533 120.397 C 276.786 120.351,273.306 120.314,264.801 120.314 C 256.296 120.314,252.817 120.351,257.069 120.397 M239.552 120.688 C 240.327 120.749,241.520 120.748,242.203 120.687 C 242.887 120.625,242.253 120.575,240.795 120.576 C 239.337 120.577,238.778 120.627,239.552 120.688 M285.199 120.682 C 285.644 120.750,286.373 120.750,286.819 120.682 C 287.264 120.615,286.900 120.560,286.009 120.560 C 285.118 120.560,284.753 120.615,285.199 120.682 M292.489 121.073 C 293.380 121.196,294.705 121.291,295.434 121.284 L 296.760 121.272 295.140 121.048 C 294.249 120.925,292.923 120.830,292.194 120.836 L 290.869 120.849 292.489 121.073 M300.884 121.944 C 301.208 122.083,301.870 122.191,302.356 122.183 L 303.240 122.169 302.356 121.944 C 301.870 121.820,301.208 121.713,300.884 121.705 L 300.295 121.691 300.884 121.944 M307.658 123.765 C 307.982 123.947,308.612 124.350,309.057 124.660 C 309.503 124.970,309.867 125.154,309.867 125.067 C 309.867 124.831,307.713 123.415,307.369 123.426 C 307.204 123.431,307.334 123.583,307.658 123.765 M310.877 125.992 C 311.351 126.516,311.804 126.880,311.883 126.801 C 311.963 126.722,311.972 126.624,311.905 126.583 C 311.837 126.543,311.384 126.179,310.898 125.774 L 310.015 125.039 310.877 125.992 M169.703 129.350 C 169.496 129.682,169.391 130.019,169.470 130.098 C 169.549 130.177,169.768 129.954,169.956 129.602 C 170.401 128.771,170.194 128.564,169.703 129.350 M313.991 129.105 C 313.991 129.156,314.422 129.587,314.948 130.063 L 315.906 130.928 315.041 129.971 C 314.234 129.078,313.991 128.878,313.991 129.105 M316.475 132.032 C 316.930 132.640,317.356 133.137,317.424 133.137 C 317.684 133.137,316.960 132.072,316.320 131.514 C 315.771 131.034,315.799 131.128,316.475 132.032 M167.623 133.092 C 167.142 133.991,167.242 134.242,167.777 133.478 C 168.036 133.107,168.180 132.735,168.095 132.651 C 168.011 132.566,167.798 132.765,167.623 133.092 M318.251 134.536 C 318.705 135.225,319.133 135.788,319.202 135.788 C 319.414 135.788,318.286 133.995,317.844 133.630 C 317.614 133.440,317.797 133.848,318.251 134.536 M165.563 136.676 C 164.676 138.117,164.269 139.145,165.043 137.989 C 165.916 136.685,166.755 135.199,166.618 135.199 C 166.537 135.199,166.063 135.864,165.563 136.676 M319.904 137.113 C 320.268 137.761,320.692 138.424,320.847 138.586 C 321.288 139.048,320.279 137.182,319.732 136.524 C 319.463 136.200,319.540 136.465,319.904 137.113 M321.060 139.210 C 321.060 139.372,321.255 139.762,321.493 140.076 C 321.731 140.391,321.925 140.515,321.925 140.353 C 321.925 140.191,321.731 139.802,321.493 139.487 C 321.255 139.173,321.060 139.048,321.060 139.210 M162.176 142.047 C 161.413 143.222,161.162 143.747,161.617 143.215 C 162.430 142.265,163.896 139.912,163.675 139.912 C 163.613 139.912,162.938 140.873,162.176 142.047 M321.965 140.943 C 321.965 141.105,322.154 141.568,322.386 141.973 C 322.617 142.378,322.807 142.577,322.807 142.415 C 322.807 142.253,322.617 141.789,322.386 141.384 C 322.154 140.979,321.965 140.781,321.965 140.943 M323.147 144.035 C 323.156 144.278,323.278 144.742,323.417 145.066 L 323.670 145.655 323.686 145.066 C 323.695 144.742,323.574 144.278,323.417 144.035 C 323.163 143.643,323.133 143.643,323.147 144.035 M155.895 149.882 C 152.173 153.806,151.950 154.079,154.301 151.841 C 156.012 150.212,159.252 146.674,159.013 146.695 C 158.956 146.700,157.553 148.134,155.895 149.882 M324.090 148.601 C 324.092 149.411,324.150 149.707,324.217 149.260 C 324.285 148.812,324.283 148.149,324.213 147.787 C 324.143 147.425,324.088 147.791,324.090 148.601 M93.615 152.209 C 98.365 152.254,106.052 152.254,110.698 152.209 C 115.345 152.163,111.458 152.126,102.062 152.126 C 92.666 152.126,88.864 152.163,93.615 152.209 M82.211 152.897 C 81.823 153.052,81.579 153.253,81.669 153.343 C 81.759 153.433,82.209 153.303,82.669 153.054 C 83.594 152.553,83.313 152.456,82.211 152.897 M120.766 152.676 C 120.766 152.752,121.194 152.963,121.716 153.146 C 122.239 153.328,122.537 153.356,122.379 153.208 C 122.044 152.894,120.766 152.472,120.766 152.676 M79.881 154.370 C 78.631 155.290,78.213 155.796,79.161 155.243 C 79.846 154.842,81.487 153.464,81.280 153.462 C 81.191 153.462,80.561 153.870,79.881 154.370 M123.564 154.161 C 124.050 154.574,124.580 154.913,124.742 154.914 C 125.078 154.915,124.150 154.155,123.270 153.708 C 122.946 153.543,123.078 153.747,123.564 154.161 M319.976 156.775 C 317.572 159.965,316.556 161.414,316.721 161.414 C 316.786 161.414,317.748 160.188,318.859 158.689 C 319.970 157.191,321.200 155.534,321.594 155.007 C 321.987 154.481,322.246 154.050,322.168 154.050 C 322.091 154.050,321.105 155.276,319.976 156.775 M148.748 155.817 C 148.181 156.128,147.823 156.387,147.953 156.394 C 148.265 156.410,149.926 155.547,149.926 155.368 C 149.926 155.175,149.909 155.182,148.748 155.817 M138.336 157.511 C 138.261 157.633,139.147 157.696,140.307 157.651 C 144.096 157.507,144.533 157.390,141.475 157.340 C 139.824 157.312,138.412 157.390,138.336 157.511 M127.766 159.941 C 128.049 161.288,128.049 263.159,127.766 264.507 C 127.580 265.399,127.599 265.458,127.914 264.948 C 128.445 264.087,128.445 160.360,127.914 159.499 C 127.599 158.989,127.580 159.049,127.766 159.941 M75.844 212.077 C 75.844 240.022,75.878 251.454,75.920 237.482 C 75.963 223.509,75.963 200.644,75.920 186.672 C 75.878 172.699,75.844 184.131,75.844 212.077 M315.544 164.948 C 315.544 165.677,315.602 165.976,315.672 165.611 C 315.742 165.247,315.742 164.650,315.672 164.286 C 315.602 163.921,315.544 164.219,315.544 164.948 M315.779 167.158 C 315.779 167.320,315.969 167.784,316.200 168.189 C 316.432 168.594,316.621 168.792,316.621 168.630 C 316.621 168.468,316.432 168.004,316.200 167.599 C 315.969 167.194,315.779 166.996,315.779 167.158 M318.252 172.091 C 318.670 172.780,319.827 174.701,320.823 176.361 C 321.819 178.021,322.686 179.327,322.749 179.264 C 322.883 179.130,317.851 170.839,317.636 170.839 C 317.557 170.839,317.834 171.403,318.252 172.091 M324.074 184.094 C 324.074 184.661,324.135 184.893,324.209 184.610 C 324.283 184.326,324.283 183.862,324.209 183.579 C 324.135 183.295,324.074 183.527,324.074 184.094 M323.327 186.602 C 323.058 187.167,322.898 187.629,322.972 187.629 C 323.174 187.629,324.068 185.825,323.933 185.691 C 323.869 185.627,323.596 186.037,323.327 186.602 M321.943 188.881 C 321.509 189.473,321.438 189.679,321.757 189.420 C 322.240 189.028,322.970 187.923,322.746 187.923 C 322.690 187.923,322.329 188.354,321.943 188.881 M319.314 192.047 C 318.306 193.181,317.558 194.109,317.652 194.109 C 317.823 194.109,319.131 192.708,320.607 190.943 C 322.078 189.183,321.169 189.959,319.314 192.047 M316.615 195.214 C 315.353 196.621,314.779 197.349,314.930 197.349 C 315.011 197.349,315.636 196.686,316.319 195.876 C 317.632 194.319,317.846 193.841,316.615 195.214 M313.304 199.902 C 313.196 200.010,313.116 200.374,313.126 200.712 C 313.143 201.276,313.168 201.269,313.427 200.620 C 313.716 199.899,313.656 199.550,313.304 199.902 M313.128 203.559 C 313.140 203.951,313.269 204.536,313.416 204.860 C 313.602 205.271,313.628 205.092,313.503 204.271 C 313.295 202.903,313.098 202.530,313.128 203.559 M314.885 209.293 C 314.891 209.447,315.095 209.904,315.339 210.309 L 315.783 211.046 315.590 210.309 C 315.389 209.541,314.866 208.787,314.885 209.293 M316.986 214.448 C 317.158 214.942,317.354 215.292,317.421 215.225 C 317.567 215.079,317.011 213.549,316.812 213.549 C 316.735 213.549,316.814 213.954,316.986 214.448 M317.572 216.053 C 317.571 216.215,317.749 216.811,317.968 217.378 C 318.186 217.946,318.369 218.211,318.374 217.968 C 318.379 217.725,318.201 217.128,317.978 216.642 C 317.756 216.156,317.573 215.891,317.572 216.053 M318.490 220.324 C 318.490 221.053,318.547 221.351,318.617 220.987 C 318.688 220.622,318.688 220.026,318.617 219.661 C 318.547 219.297,318.490 219.595,318.490 220.324 M315.631 227.246 C 315.199 227.813,314.936 228.277,315.048 228.277 C 315.269 228.277,315.884 227.553,316.363 226.730 C 316.862 225.872,316.466 226.151,315.631 227.246 M310.162 233.137 C 307.655 235.648,305.735 237.683,305.895 237.659 C 306.192 237.615,315.115 228.571,314.861 228.571 C 314.784 228.571,312.669 230.626,310.162 233.137 M303.301 254.833 C 303.188 255.263,303.020 255.860,302.928 256.158 C 302.836 256.457,302.976 256.329,303.240 255.874 C 303.503 255.419,303.671 254.823,303.613 254.549 C 303.539 254.199,303.446 254.283,303.301 254.833 M300.439 260.015 C 299.742 260.946,299.403 261.517,299.685 261.284 C 300.213 260.845,302.036 258.321,301.824 258.321 C 301.758 258.321,301.135 259.083,300.439 260.015 M296.606 264.433 L 294.109 267.010 296.686 264.513 C 299.080 262.194,299.398 261.856,299.183 261.856 C 299.139 261.856,297.980 263.015,296.606 264.433 M138.439 264.503 C 138.682 264.662,139.201 264.794,139.593 264.797 C 140.538 264.803,140.298 264.635,139.028 264.402 C 138.303 264.269,138.128 264.299,138.439 264.503 M142.857 265.354 C 143.919 265.695,146.376 266.012,145.655 265.715 C 145.331 265.581,144.404 265.392,143.594 265.295 C 142.687 265.185,142.404 265.208,142.857 265.354 M126.851 266.654 C 126.244 267.765,125.071 269.100,123.887 270.029 C 123.423 270.394,123.136 270.692,123.249 270.692 C 124.069 270.692,127.940 266.280,127.503 265.844 C 127.428 265.769,127.135 266.134,126.851 266.654 M147.576 266.241 C 147.984 266.373,148.978 266.562,149.785 266.661 C 150.707 266.775,150.976 266.752,150.510 266.601 C 150.101 266.469,149.107 266.280,148.301 266.181 C 147.379 266.068,147.109 266.090,147.576 266.241 M76.878 266.376 C 76.878 266.727,78.193 268.623,78.439 268.627 C 78.569 268.629,78.309 268.133,77.862 267.526 C 77.415 266.918,77.010 266.366,76.963 266.298 C 76.916 266.231,76.878 266.266,76.878 266.376 M152.289 267.125 C 152.697 267.257,153.691 267.446,154.498 267.545 C 155.420 267.658,155.689 267.636,155.222 267.485 C 154.814 267.353,153.820 267.164,153.013 267.065 C 152.091 266.951,151.822 266.974,152.289 267.125 M292.912 267.795 C 292.048 268.725,292.048 268.725,292.845 268.163 C 293.283 267.853,293.710 267.434,293.793 267.231 C 294.021 266.672,293.857 266.777,292.912 267.795 M158.616 268.336 C 159.862 268.653,160.931 268.653,159.941 268.336 C 159.536 268.206,158.873 268.102,158.468 268.105 C 157.807 268.110,157.822 268.134,158.616 268.336 M290.427 269.665 C 287.977 271.523,287.820 271.666,288.840 271.112 C 289.729 270.628,292.197 268.648,291.900 268.657 C 291.819 268.659,291.156 269.113,290.427 269.665 M163.328 269.219 C 164.574 269.536,165.644 269.536,164.654 269.219 C 164.249 269.090,163.586 268.986,163.181 268.989 C 162.520 268.994,162.535 269.017,163.328 269.219 M168.189 270.103 C 168.594 270.233,169.190 270.339,169.514 270.339 C 169.980 270.339,169.950 270.290,169.367 270.103 C 168.962 269.973,168.365 269.867,168.041 269.867 C 167.575 269.867,167.605 269.916,168.189 270.103 M173.196 270.987 C 173.439 271.144,173.903 271.265,174.227 271.256 L 174.816 271.240 174.227 270.987 C 173.346 270.608,172.610 270.608,173.196 270.987 M83.505 271.870 C 83.605 272.032,83.978 272.156,84.333 272.144 C 84.955 272.124,84.957 272.114,84.389 271.870 C 83.578 271.522,83.290 271.522,83.505 271.870 M119.735 271.870 L 119.146 272.124 119.735 272.140 C 120.059 272.149,120.523 272.027,120.766 271.870 C 121.351 271.492,120.615 271.492,119.735 271.870 M178.056 271.870 C 178.380 272.010,178.910 272.120,179.234 272.115 C 179.708 272.108,179.679 272.060,179.087 271.870 C 178.080 271.548,177.305 271.548,178.056 271.870 M94.056 272.386 C 98.563 272.431,105.853 272.431,110.256 272.386 C 114.660 272.340,110.972 272.302,102.062 272.302 C 93.152 272.302,89.549 272.340,94.056 272.386 M182.622 272.754 C 182.865 272.911,183.328 273.032,183.652 273.023 L 184.242 273.007 183.652 272.754 C 182.772 272.376,182.036 272.376,182.622 272.754 M187.334 273.638 C 187.577 273.795,188.108 273.912,188.513 273.898 L 189.249 273.874 188.513 273.638 C 187.377 273.274,186.772 273.274,187.334 273.638 M283.652 273.785 C 283.247 274.017,283.049 274.206,283.211 274.206 C 283.373 274.206,283.837 274.017,284.242 273.785 C 284.647 273.553,284.845 273.364,284.683 273.364 C 284.521 273.364,284.057 273.553,283.652 273.785 M192.047 274.524 C 192.448 274.781,195.257 274.959,194.968 274.710 C 194.901 274.652,194.116 274.522,193.225 274.423 C 192.143 274.302,191.752 274.336,192.047 274.524 M196.097 275.024 C 196.462 275.094,197.058 275.094,197.423 275.024 C 197.787 274.954,197.489 274.896,196.760 274.896 C 196.031 274.896,195.733 274.954,196.097 275.024 M277.172 275.574 L 275.552 275.972 277.025 275.808 C 277.835 275.717,278.697 275.528,278.940 275.386 C 279.515 275.050,279.146 275.090,277.172 275.574 M203.608 275.620 C 204.216 275.683,205.210 275.683,205.817 275.620 C 206.425 275.556,205.928 275.504,204.713 275.504 C 203.498 275.504,203.001 275.556,203.608 275.620 M207.732 275.911 C 208.177 275.978,208.906 275.978,209.352 275.911 C 209.797 275.843,209.433 275.788,208.542 275.788 C 207.651 275.788,207.286 275.843,207.732 275.911 M214.580 276.316 C 215.748 276.547,220.830 276.682,220.594 276.476 C 220.527 276.417,218.881 276.304,216.937 276.225 C 214.812 276.140,213.872 276.176,214.580 276.316 M271.281 276.323 C 268.088 276.688,267.790 276.863,270.692 276.669 C 272.069 276.577,273.461 276.396,273.785 276.267 C 274.491 275.985,274.179 275.992,271.281 276.323 M221.717 276.796 C 222.239 276.861,223.167 276.862,223.778 276.798 C 224.390 276.734,223.962 276.681,222.828 276.680 C 221.694 276.679,221.194 276.731,221.717 276.796 M230.854 277.091 C 231.381 277.156,232.242 277.156,232.769 277.091 C 233.295 277.025,232.865 276.972,231.811 276.972 C 230.758 276.972,230.328 277.025,230.854 277.091 M262.817 277.089 C 263.265 277.157,263.927 277.155,264.290 277.085 C 264.652 277.015,264.286 276.960,263.476 276.962 C 262.666 276.964,262.369 277.021,262.817 277.089 M241.478 277.393 C 245.256 277.440,251.353 277.440,255.028 277.393 C 258.702 277.346,255.611 277.308,248.159 277.308 C 240.707 277.308,237.701 277.346,241.478 277.393 " stroke="none" fill="#ccf8cc" fill-rule="evenodd"></path></g></svg>