<svg id="svg" version="1.1" xmlns="http://www.w3.org/2000/svg" xmlns:xlink="http://www.w3.org/1999/xlink" width="400" height="341.1042944785276" viewBox="0, 0, 400,341.1042944785276"><g id="svgg"><path id="path1" d="M0.000 170.648 L 0.000 341.297 200.000 341.297 L 400.000 341.297 400.000 170.648 L 400.000 0.000 200.000 0.000 L 0.000 0.000 0.000 170.648 M303.072 65.210 C 303.916 65.393,305.759 65.694,307.167 65.878 C 309.907 66.237,312.844 66.980,314.505 67.735 C 315.068 67.991,316.451 68.616,317.577 69.123 C 321.294 70.799,327.698 75.641,330.835 79.149 C 331.239 79.601,332.144 80.599,332.846 81.367 C 333.547 82.136,334.123 82.952,334.125 83.182 C 334.128 83.412,334.419 84.256,334.774 85.059 C 336.267 88.445,336.522 89.828,336.520 94.544 C 336.519 98.507,336.615 99.336,337.201 100.430 C 337.577 101.131,337.884 101.858,337.884 102.047 C 337.884 102.235,338.153 102.677,338.481 103.028 C 338.810 103.380,339.462 104.175,339.932 104.795 C 340.401 105.415,340.939 106.088,341.126 106.290 C 341.415 106.602,345.873 111.638,346.928 112.844 C 351.033 117.537,351.678 122.010,349.137 128.151 C 344.936 138.299,345.155 140.649,350.929 147.394 C 353.403 150.285,354.944 153.174,354.951 154.937 C 354.952 155.225,355.182 155.901,355.463 156.438 C 356.239 157.927,355.825 160.560,354.276 163.993 C 354.106 164.369,353.870 165.023,353.751 165.448 C 353.632 165.872,352.839 166.870,351.988 167.666 C 348.942 170.514,347.925 174.469,349.488 177.385 C 349.863 178.086,350.171 179.007,350.171 179.432 C 350.171 179.857,350.324 180.205,350.512 180.205 C 350.700 180.205,350.853 180.412,350.853 180.666 C 350.853 180.920,351.544 182.180,352.389 183.466 C 353.234 184.752,353.925 185.991,353.925 186.218 C 353.925 186.446,354.040 186.684,354.181 186.746 C 355.862 187.493,356.803 194.452,355.561 196.951 C 355.241 197.596,354.660 199.213,354.269 200.545 C 353.798 202.151,353.227 203.286,352.572 203.913 C 352.029 204.433,351.402 205.301,351.178 205.842 C 350.954 206.383,350.635 206.826,350.471 206.826 C 350.306 206.826,350.171 207.033,350.171 207.287 C 350.171 208.250,341.584 216.382,340.567 216.382 C 340.159 216.382,337.926 217.054,334.642 218.165 C 330.815 219.459,317.114 220.082,291.773 220.112 L 271.089 220.137 270.218 220.944 C 267.155 223.783,267.417 234.555,270.681 239.932 C 270.852 240.213,271.135 240.751,271.310 241.126 C 271.485 241.502,272.406 242.961,273.356 244.369 C 274.306 245.776,275.084 247.181,275.084 247.490 C 275.086 248.191,277.731 254.834,278.446 255.930 C 279.260 257.179,279.208 274.087,278.385 275.666 C 278.072 276.266,277.816 277.175,277.816 277.684 C 277.816 278.194,277.301 279.699,276.672 281.029 C 276.043 282.359,275.422 284.021,275.292 284.722 C 275.162 285.425,274.588 286.496,274.013 287.111 C 273.438 287.724,271.827 289.631,270.432 291.350 C 268.482 293.752,267.354 294.796,265.556 295.865 C 261.869 298.055,257.791 300.000,256.885 300.000 C 256.429 300.000,255.865 300.230,255.631 300.512 C 255.309 300.900,254.438 301.024,252.034 301.024 C 247.296 301.024,244.398 299.389,243.868 296.416 C 243.734 295.666,243.471 294.865,243.282 294.636 C 243.094 294.408,242.814 290.876,242.661 286.787 C 242.387 279.480,241.726 274.453,240.733 272.133 C 240.480 271.541,240.273 270.720,240.273 270.308 C 240.273 269.896,240.045 269.152,239.766 268.653 C 239.244 267.722,238.448 265.587,237.837 263.481 C 237.401 261.979,236.211 259.447,235.831 259.212 C 235.672 259.114,235.443 258.153,235.321 257.077 C 235.194 255.958,234.609 254.095,233.956 252.730 C 233.328 251.416,232.236 249.113,231.530 247.611 C 230.825 246.109,229.431 243.461,228.434 241.727 C 227.437 239.992,226.621 238.441,226.621 238.281 C 226.621 238.120,226.114 237.466,225.494 236.827 C 224.874 236.188,223.993 234.744,223.537 233.618 C 223.080 232.491,222.205 230.842,221.592 229.952 C 220.979 229.063,220.478 228.192,220.478 228.018 C 220.478 227.844,220.363 227.651,220.222 227.588 C 219.968 227.475,218.089 224.713,218.089 224.453 C 218.089 224.379,217.551 223.731,216.894 223.014 C 216.237 222.296,215.700 221.532,215.700 221.314 C 215.700 221.097,215.354 220.536,214.932 220.069 C 214.509 219.601,213.637 218.581,212.994 217.801 C 212.350 217.021,211.659 216.378,211.458 216.373 C 211.257 216.368,210.737 215.792,210.302 215.093 C 209.868 214.394,208.255 212.505,206.719 210.895 C 205.182 209.285,203.464 207.296,202.901 206.474 C 202.338 205.653,201.263 204.336,200.512 203.548 C 196.570 199.413,195.904 198.606,195.904 197.960 C 195.904 197.546,195.564 197.100,195.082 196.880 C 194.630 196.674,193.767 195.745,193.164 194.814 C 191.183 191.757,184.747 185.666,183.498 185.666 C 183.312 185.666,182.917 185.460,182.621 185.209 C 181.815 184.527,177.694 183.250,175.600 183.034 C 174.153 182.884,173.556 182.630,172.802 181.843 L 171.843 180.842 171.843 130.404 C 171.843 74.177,171.625 78.764,174.362 77.444 C 175.229 77.026,176.195 76.561,176.509 76.411 C 176.822 76.260,178.288 75.986,179.766 75.800 C 181.243 75.615,182.830 75.323,183.291 75.150 C 183.752 74.978,184.898 74.731,185.836 74.602 C 186.775 74.472,188.046 74.207,188.661 74.014 C 189.276 73.820,191.119 73.457,192.757 73.209 C 194.394 72.960,196.348 72.593,197.099 72.393 C 197.850 72.193,199.174 72.026,200.042 72.022 C 200.910 72.017,202.274 71.783,203.072 71.502 C 203.870 71.220,205.003 70.983,205.589 70.975 C 206.175 70.967,207.270 70.732,208.020 70.452 C 208.771 70.173,210.754 69.795,212.426 69.611 C 214.098 69.428,215.634 69.144,215.839 68.981 C 216.044 68.818,217.968 68.574,220.116 68.439 C 222.263 68.304,224.406 68.047,224.878 67.867 C 225.685 67.560,230.715 66.840,236.519 66.201 C 237.927 66.046,240.845 65.895,243.003 65.865 C 245.162 65.836,248.311 65.614,250.000 65.372 C 253.810 64.826,300.647 64.683,303.072 65.210 M154.195 70.501 C 156.738 71.019,156.891 71.107,158.778 73.135 C 162.411 77.043,162.116 72.029,162.116 129.789 L 162.116 179.779 161.291 181.613 C 159.835 184.847,156.530 187.948,154.266 188.203 C 147.266 188.991,82.590 188.988,76.427 188.198 C 73.414 187.812,69.561 184.948,68.578 182.363 C 67.520 179.581,67.158 82.845,68.187 77.897 C 68.875 74.592,71.381 71.944,75.085 70.610 C 77.390 69.780,150.159 69.680,154.195 70.501 " stroke="none" fill="#ffffff" fill-rule="evenodd"></path><path id="path2" d="M250.000 65.372 C 248.311 65.614,245.162 65.836,243.003 65.865 C 240.845 65.895,237.927 66.046,236.519 66.201 C 230.715 66.840,225.685 67.560,224.878 67.867 C 224.406 68.047,222.263 68.304,220.116 68.439 C 217.968 68.574,216.044 68.818,215.839 68.981 C 215.634 69.144,214.098 69.428,212.426 69.611 C 210.754 69.795,208.771 70.173,208.020 70.452 C 207.270 70.732,206.175 70.967,205.589 70.975 C 205.003 70.983,203.870 71.220,203.072 71.502 C 202.274 71.783,200.910 72.017,200.042 72.022 C 199.174 72.026,197.850 72.193,197.099 72.393 C 196.348 72.593,194.394 72.960,192.757 73.209 C 191.119 73.457,189.276 73.820,188.661 74.014 C 188.046 74.207,186.775 74.472,185.836 74.602 C 184.898 74.731,183.752 74.978,183.291 75.150 C 182.830 75.323,181.243 75.615,179.766 75.800 C 178.288 75.986,176.822 76.260,176.509 76.411 C 171.239 78.938,171.843 71.946,171.843 130.404 L 171.843 180.842 172.802 181.843 C 173.556 182.630,174.153 182.884,175.600 183.034 C 177.694 183.250,181.815 184.527,182.621 185.209 C 182.917 185.460,183.312 185.666,183.498 185.666 C 184.747 185.666,191.183 191.757,193.164 194.814 C 193.767 195.745,194.630 196.674,195.082 196.880 C 195.564 197.100,195.904 197.546,195.904 197.960 C 195.904 198.606,196.570 199.413,200.512 203.548 C 201.263 204.336,202.338 205.653,202.901 206.474 C 203.464 207.296,205.182 209.285,206.719 210.895 C 208.255 212.505,209.868 214.394,210.302 215.093 C 210.737 215.792,211.257 216.368,211.458 216.373 C 211.659 216.378,212.350 217.021,212.994 217.801 C 213.637 218.581,214.509 219.601,214.932 220.069 C 215.354 220.536,215.700 221.097,215.700 221.314 C 215.700 221.532,216.237 222.296,216.894 223.014 C 217.551 223.731,218.089 224.379,218.089 224.453 C 218.089 224.713,219.968 227.475,220.222 227.588 C 220.363 227.651,220.478 227.844,220.478 228.018 C 220.478 228.192,220.979 229.063,221.592 229.952 C 222.205 230.842,223.080 232.491,223.537 233.618 C 223.993 234.744,224.874 236.188,225.494 236.827 C 226.114 237.466,226.621 238.120,226.621 238.281 C 226.621 238.441,227.437 239.992,228.434 241.727 C 229.431 243.461,230.825 246.109,231.530 247.611 C 232.236 249.113,233.328 251.416,233.956 252.730 C 234.609 254.095,235.194 255.958,235.321 257.077 C 235.443 258.153,235.672 259.114,235.831 259.212 C 236.211 259.447,237.401 261.979,237.837 263.481 C 238.448 265.587,239.244 267.722,239.766 268.653 C 240.045 269.152,240.273 269.896,240.273 270.308 C 240.273 270.720,240.480 271.541,240.733 272.133 C 241.726 274.453,242.387 279.480,242.661 286.787 C 242.814 290.876,243.094 294.408,243.282 294.636 C 243.471 294.865,243.734 295.666,243.868 296.416 C 244.398 299.389,247.296 301.024,252.034 301.024 C 254.438 301.024,255.309 300.900,255.631 300.512 C 255.865 300.230,256.429 300.000,256.885 300.000 C 257.791 300.000,261.869 298.055,265.556 295.865 C 267.354 294.796,268.482 293.752,270.432 291.350 C 271.827 289.631,273.438 287.724,274.013 287.111 C 274.588 286.496,275.162 285.425,275.292 284.722 C 275.422 284.021,276.043 282.359,276.672 281.029 C 277.301 279.699,277.816 278.194,277.816 277.684 C 277.816 277.175,278.072 276.266,278.385 275.666 C 279.208 274.087,279.260 257.179,278.446 255.930 C 277.731 254.834,275.086 248.191,275.084 247.490 C 275.084 247.181,274.306 245.776,273.356 244.369 C 272.406 242.961,271.485 241.502,271.310 241.126 C 271.135 240.751,270.852 240.213,270.681 239.932 C 267.417 234.555,267.155 223.783,270.218 220.944 L 271.089 220.137 291.773 220.112 C 317.114 220.082,330.815 219.459,334.642 218.165 C 337.926 217.054,340.159 216.382,340.567 216.382 C 341.584 216.382,350.171 208.250,350.171 207.287 C 350.171 207.033,350.306 206.826,350.471 206.826 C 350.635 206.826,350.954 206.383,351.178 205.842 C 351.402 205.301,352.029 204.433,352.572 203.913 C 353.227 203.286,353.798 202.151,354.269 200.545 C 354.660 199.213,355.241 197.596,355.561 196.951 C 356.803 194.452,355.862 187.493,354.181 186.746 C 354.040 186.684,353.925 186.446,353.925 186.218 C 353.925 185.991,353.234 184.752,352.389 183.466 C 351.544 182.180,350.853 180.920,350.853 180.666 C 350.853 180.412,350.700 180.205,350.512 180.205 C 350.324 180.205,350.171 179.857,350.171 179.432 C 350.171 179.007,349.863 178.086,349.488 177.385 C 347.925 174.469,348.942 170.514,351.988 167.666 C 352.839 166.870,353.632 165.872,353.751 165.448 C 353.870 165.023,354.106 164.369,354.276 163.993 C 355.825 160.560,356.239 157.927,355.463 156.438 C 355.182 155.901,354.952 155.225,354.951 154.937 C 354.944 153.174,353.403 150.285,350.929 147.394 C 346.741 142.502,346.475 141.978,346.443 138.567 C 346.414 135.374,346.857 133.657,349.137 128.151 C 351.678 122.010,351.033 117.537,346.928 112.844 C 345.873 111.638,341.415 106.602,341.126 106.290 C 340.939 106.088,340.401 105.415,339.932 104.795 C 339.462 104.175,338.810 103.380,338.481 103.028 C 338.153 102.677,337.884 102.235,337.884 102.047 C 337.884 101.858,337.577 101.131,337.201 100.430 C 336.615 99.336,336.519 98.507,336.520 94.544 C 336.522 89.828,336.267 88.445,334.774 85.059 C 334.419 84.256,334.128 83.412,334.125 83.182 C 334.123 82.952,333.547 82.136,332.846 81.367 C 332.144 80.599,331.239 79.601,330.835 79.149 C 327.698 75.641,321.294 70.799,317.577 69.123 C 316.451 68.616,315.068 67.991,314.505 67.735 C 312.844 66.980,309.907 66.237,307.167 65.878 C 305.759 65.694,303.916 65.393,303.072 65.210 C 300.647 64.683,253.810 64.826,250.000 65.372 M303.584 65.833 C 308.661 66.722,313.176 67.697,313.993 68.081 C 322.277 71.979,325.638 74.447,332.168 81.426 C 334.432 83.845,335.567 87.813,335.833 94.234 C 336.121 101.176,336.879 102.757,343.104 109.406 C 349.801 116.559,350.783 118.729,349.677 123.943 C 349.192 126.236,348.874 127.229,347.243 131.570 C 344.787 138.102,345.337 142.095,349.291 146.445 C 352.796 150.300,353.185 150.883,353.904 153.352 C 354.296 154.700,354.796 156.386,355.014 157.099 C 355.751 159.508,353.794 165.096,351.417 167.374 C 347.355 171.266,347.386 176.480,351.511 183.015 C 355.404 189.183,356.886 194.550,355.235 196.497 C 354.728 197.095,353.584 200.357,353.584 201.203 C 353.584 201.446,352.969 202.422,352.218 203.372 C 351.468 204.322,350.853 205.173,350.853 205.263 C 350.853 206.333,342.473 215.047,340.801 215.716 C 340.417 215.869,339.181 216.250,338.055 216.561 C 336.928 216.873,335.239 217.362,334.300 217.649 C 330.143 218.920,304.991 219.936,282.708 219.734 L 270.705 219.625 269.838 220.438 C 267.552 222.584,266.471 232.118,268.151 235.324 C 268.544 236.075,269.072 237.375,269.324 238.214 C 269.741 239.601,271.850 243.385,273.895 246.416 C 274.338 247.073,274.800 248.072,274.922 248.635 C 275.216 249.997,277.132 254.923,277.737 255.874 C 278.745 257.456,278.881 273.389,277.903 275.288 C 277.719 275.646,277.474 276.556,277.359 277.311 C 277.244 278.066,276.709 279.602,276.170 280.724 C 275.630 281.846,275.097 283.351,274.984 284.068 C 274.830 285.048,274.161 286.071,272.287 288.193 C 269.020 291.892,268.420 292.611,267.742 293.647 C 267.430 294.123,266.853 294.615,266.461 294.739 C 266.068 294.864,264.508 295.695,262.993 296.588 C 256.022 300.693,251.471 301.559,247.381 299.557 C 244.200 298.001,243.488 295.556,243.017 284.572 C 242.779 279.017,242.537 276.470,242.162 275.572 C 241.874 274.883,241.638 273.959,241.638 273.518 C 241.638 272.090,238.086 262.079,236.534 259.136 C 235.905 257.943,235.496 256.655,235.496 255.867 C 235.495 254.556,234.479 252.155,230.988 245.222 C 230.043 243.345,228.843 241.171,228.320 240.390 C 227.798 239.610,227.267 238.646,227.140 238.248 C 227.014 237.850,226.308 236.828,225.571 235.977 C 224.835 235.126,224.232 234.237,224.232 234.002 C 224.232 232.849,219.635 225.273,217.179 222.379 C 216.553 221.641,216.041 220.890,216.041 220.709 C 216.041 220.171,212.924 216.688,212.110 216.317 C 211.696 216.129,211.124 215.490,210.838 214.899 C 210.553 214.307,208.880 212.302,207.122 210.444 C 205.364 208.586,203.642 206.590,203.296 206.007 C 202.684 204.976,200.635 202.710,197.696 199.812 C 196.898 199.025,196.246 198.072,196.246 197.694 C 196.246 197.316,195.861 196.755,195.391 196.447 C 194.921 196.139,194.129 195.238,193.631 194.445 C 189.731 188.237,183.219 183.934,175.148 182.234 C 173.282 181.841,173.071 181.703,172.650 180.598 C 171.951 178.765,172.403 79.824,173.115 78.933 C 173.967 77.867,177.784 76.492,180.842 76.150 C 182.563 75.958,184.119 75.709,184.300 75.597 C 184.617 75.402,187.081 74.901,191.809 74.074 C 193.029 73.860,195.102 73.459,196.416 73.183 C 197.730 72.906,199.957 72.531,201.365 72.348 C 203.719 72.043,207.722 71.216,211.092 70.338 C 211.843 70.142,213.120 69.978,213.930 69.974 C 214.740 69.970,215.697 69.809,216.055 69.617 C 216.414 69.425,218.822 69.047,221.408 68.777 C 223.994 68.507,226.954 68.138,227.986 67.957 C 232.580 67.151,238.958 66.515,245.904 66.171 C 250.034 65.967,255.410 65.683,257.850 65.539 C 265.062 65.116,300.797 65.346,303.584 65.833 M75.085 70.610 C 71.381 71.944,68.875 74.592,68.187 77.897 C 67.158 82.845,67.520 179.581,68.578 182.363 C 69.561 184.948,73.414 187.812,76.427 188.198 C 82.590 188.988,147.266 188.991,154.266 188.203 C 156.530 187.948,159.835 184.847,161.291 181.613 L 162.116 179.779 162.116 129.789 C 162.116 72.029,162.411 77.043,158.778 73.135 C 155.653 69.775,158.266 69.958,114.093 70.011 C 80.480 70.052,76.463 70.114,75.085 70.610 M155.105 71.208 C 157.334 71.550,160.199 75.042,161.085 78.498 C 161.595 80.487,161.739 177.669,161.236 180.009 C 160.893 181.603,160.242 182.697,158.340 184.874 C 155.438 188.195,159.877 187.884,115.358 187.884 L 75.939 187.884 73.986 186.910 C 71.930 185.885,69.353 183.271,68.794 181.643 C 68.375 180.422,68.129 89.633,68.526 82.423 C 68.800 77.440,68.902 76.842,69.692 75.597 C 70.694 74.018,72.289 72.355,72.801 72.355 C 72.996 72.355,73.414 72.120,73.731 71.833 C 74.048 71.546,74.981 71.175,75.805 71.008 C 77.441 70.676,152.877 70.866,155.105 71.208 " stroke="none" fill="#f09a9b" fill-rule="evenodd"></path><path id="path3" d="M266.317 65.443 C 268.721 65.502,272.561 65.501,274.849 65.443 C 277.138 65.384,275.171 65.335,270.478 65.336 C 265.785 65.336,263.913 65.384,266.317 65.443 M287.780 65.442 C 289.787 65.502,293.166 65.503,295.288 65.443 C 297.410 65.383,295.768 65.333,291.638 65.333 C 287.509 65.333,285.772 65.382,287.780 65.442 M237.461 66.794 C 237.886 66.876,238.500 66.873,238.827 66.787 C 239.153 66.702,238.805 66.635,238.055 66.639 C 237.304 66.643,237.037 66.713,237.461 66.794 M222.611 68.836 C 222.939 68.922,223.477 68.922,223.805 68.836 C 224.134 68.750,223.865 68.680,223.208 68.680 C 222.551 68.680,222.282 68.750,222.611 68.836 M89.505 70.904 C 94.339 70.958,102.248 70.958,107.082 70.904 C 111.916 70.851,107.961 70.807,98.294 70.807 C 88.626 70.807,84.672 70.851,89.505 70.904 M157.679 73.144 C 157.679 73.203,158.178 73.702,158.788 74.254 L 159.898 75.256 158.895 74.147 C 157.961 73.113,157.679 72.881,157.679 73.144 M326.962 76.216 C 326.962 76.275,327.462 76.774,328.072 77.325 L 329.181 78.328 328.178 77.218 C 327.244 76.184,326.962 75.952,326.962 76.216 M161.213 82.082 C 161.212 83.771,161.270 84.505,161.342 83.713 C 161.413 82.921,161.414 81.539,161.343 80.642 C 161.273 79.744,161.214 80.392,161.213 82.082 M332.082 81.741 C 332.719 82.398,333.316 82.935,333.410 82.935 C 333.504 82.935,333.060 82.398,332.423 81.741 C 331.786 81.084,331.189 80.546,331.095 80.546 C 331.001 80.546,331.445 81.084,332.082 81.741 M68.404 91.638 C 68.404 95.580,68.454 97.146,68.514 95.118 C 68.575 93.090,68.574 89.865,68.514 87.951 C 68.453 86.037,68.404 87.696,68.404 91.638 M161.569 93.515 C 161.569 96.237,161.622 97.351,161.687 95.990 C 161.752 94.629,161.752 92.402,161.687 91.041 C 161.622 89.680,161.569 90.794,161.569 93.515 M335.612 95.392 C 335.613 96.894,335.673 97.466,335.745 96.663 C 335.817 95.861,335.816 94.632,335.743 93.933 C 335.670 93.234,335.611 93.891,335.612 95.392 M68.352 100.341 C 68.352 101.186,68.419 101.532,68.500 101.109 C 68.582 100.687,68.582 99.996,68.500 99.573 C 68.419 99.151,68.352 99.497,68.352 100.341 M172.509 114.334 C 172.509 120.998,172.555 123.724,172.610 120.392 C 172.666 117.061,172.666 111.608,172.610 108.276 C 172.555 104.945,172.509 107.671,172.509 114.334 M344.539 111.263 C 345.272 112.014,345.949 112.628,346.043 112.628 C 346.137 112.628,345.614 112.014,344.881 111.263 C 344.147 110.512,343.471 109.898,343.377 109.898 C 343.283 109.898,343.806 110.512,344.539 111.263 M161.569 122.867 C 161.569 125.589,161.622 126.702,161.687 125.341 C 161.752 123.980,161.752 121.753,161.687 120.392 C 161.622 119.032,161.569 120.145,161.569 122.867 M349.927 120.648 C 349.930 121.587,349.996 121.930,350.074 121.412 C 350.153 120.893,350.151 120.125,350.070 119.705 C 349.989 119.285,349.924 119.710,349.927 120.648 M172.512 142.662 C 172.512 150.828,172.556 154.168,172.611 150.085 C 172.665 146.003,172.665 139.322,172.611 135.239 C 172.556 131.156,172.512 134.497,172.512 142.662 M346.472 132.950 C 345.900 134.205,346.009 134.473,346.627 133.332 C 346.916 132.799,347.089 132.299,347.010 132.221 C 346.932 132.143,346.690 132.471,346.472 132.950 M161.513 138.908 C 161.513 139.565,161.583 139.834,161.669 139.505 C 161.755 139.177,161.755 138.639,161.669 138.311 C 161.583 137.982,161.513 138.251,161.513 138.908 M161.550 144.539 C 161.552 146.041,161.612 146.613,161.684 145.810 C 161.756 145.007,161.755 143.779,161.682 143.080 C 161.608 142.381,161.549 143.038,161.550 144.539 M68.402 168.259 C 68.402 171.920,68.452 173.417,68.514 171.587 C 68.575 169.757,68.575 166.762,68.514 164.932 C 68.452 163.102,68.402 164.599,68.402 168.259 M68.710 179.181 C 68.710 180.401,68.772 180.900,68.848 180.290 C 68.923 179.680,68.923 178.682,68.848 178.072 C 68.772 177.462,68.710 177.961,68.710 179.181 M174.403 182.045 C 174.403 182.118,174.929 182.239,175.573 182.315 C 176.217 182.390,176.669 182.330,176.577 182.181 C 176.412 181.914,174.403 181.788,174.403 182.045 M158.511 184.386 L 157.509 185.495 158.618 184.492 C 159.652 183.558,159.884 183.276,159.620 183.276 C 159.561 183.276,159.062 183.776,158.511 184.386 M78.754 187.954 C 79.177 188.036,79.868 188.036,80.290 187.954 C 80.712 187.873,80.367 187.806,79.522 187.806 C 78.677 187.806,78.332 187.873,78.754 187.954 M130.802 187.949 C 131.131 188.034,131.668 188.034,131.997 187.949 C 132.325 187.863,132.056 187.792,131.399 187.792 C 130.742 187.792,130.474 187.863,130.802 187.949 M141.212 187.968 C 143.511 188.027,147.274 188.027,149.573 187.968 C 151.873 187.909,149.991 187.861,145.392 187.861 C 140.794 187.861,138.912 187.909,141.212 187.968 M190.102 190.273 C 191.312 191.493,192.378 192.491,192.472 192.491 C 192.566 192.491,191.653 191.493,190.444 190.273 C 189.234 189.053,188.168 188.055,188.074 188.055 C 187.980 188.055,188.893 189.053,190.102 190.273 M346.068 210.836 L 342.833 214.164 346.160 210.928 C 349.251 207.923,349.643 207.509,349.396 207.509 C 349.345 207.509,347.848 209.006,346.068 210.836 M212.628 216.489 C 212.628 216.548,213.127 217.047,213.737 217.598 L 214.846 218.601 213.844 217.491 C 212.910 216.458,212.628 216.225,212.628 216.489 M330.119 218.324 C 330.448 218.410,330.985 218.410,331.314 218.324 C 331.642 218.238,331.374 218.168,330.717 218.168 C 330.060 218.168,329.791 218.238,330.119 218.324 M326.365 218.665 C 326.694 218.751,327.231 218.751,327.560 218.665 C 327.888 218.579,327.619 218.509,326.962 218.509 C 326.305 218.509,326.037 218.579,326.365 218.665 M321.416 219.012 C 321.839 219.094,322.530 219.094,322.952 219.012 C 323.375 218.931,323.029 218.864,322.184 218.864 C 321.340 218.864,320.994 218.931,321.416 219.012 M314.078 219.348 C 314.407 219.434,314.945 219.434,315.273 219.348 C 315.602 219.262,315.333 219.192,314.676 219.192 C 314.019 219.192,313.750 219.262,314.078 219.348 M284.023 219.709 C 287.155 219.765,292.377 219.766,295.627 219.709 C 298.877 219.653,296.314 219.607,289.932 219.607 C 283.549 219.607,280.890 219.653,284.023 219.709 M278.577 266.212 C 278.577 266.869,278.648 267.137,278.734 266.809 C 278.819 266.480,278.819 265.943,278.734 265.614 C 278.648 265.286,278.577 265.555,278.577 266.212 M278.236 272.355 C 278.236 273.012,278.306 273.281,278.392 272.952 C 278.478 272.624,278.478 272.086,278.392 271.758 C 278.306 271.429,278.236 271.698,278.236 272.355 M242.741 278.498 C 242.741 279.155,242.812 279.424,242.897 279.096 C 242.983 278.767,242.983 278.230,242.897 277.901 C 242.812 277.573,242.741 277.841,242.741 278.498 M250.768 300.588 C 251.378 300.664,252.376 300.664,252.986 300.588 C 253.596 300.512,253.097 300.451,251.877 300.451 C 250.657 300.451,250.158 300.512,250.768 300.588 " stroke="none" fill="#ec7e7c" fill-rule="evenodd"></path><path id="path4" d="M266.553 65.568 C 246.597 65.914,239.447 66.429,224.744 68.578 C 223.430 68.770,221.049 69.076,219.454 69.258 C 216.066 69.644,212.443 70.285,207.679 71.340 C 205.802 71.755,202.500 72.385,200.341 72.740 C 193.129 73.923,190.637 74.374,187.372 75.089 C 185.589 75.479,182.659 76.014,180.862 76.278 C 178.758 76.587,176.793 77.129,175.343 77.800 L 173.092 78.842 172.899 80.974 C 172.753 82.587,172.264 172.294,172.367 178.494 C 172.400 180.472,173.353 181.722,174.927 181.851 C 175.666 181.912,176.467 182.124,176.706 182.323 C 176.945 182.521,177.824 182.811,178.659 182.967 C 183.378 183.849,190.195 188.931,193.534 194.056 C 194.309 195.246,195.237 196.313,195.595 196.426 C 195.963 196.543,196.246 196.944,196.246 197.350 C 196.246 198.006,196.918 198.797,201.194 203.174 C 201.945 203.942,202.954 205.194,203.437 205.955 C 203.920 206.715,205.580 208.643,207.127 210.239 C 208.674 211.834,210.324 213.786,210.795 214.575 C 211.266 215.364,211.938 216.101,212.289 216.212 C 212.825 216.382,213.858 217.435,215.334 219.315 C 215.495 219.521,215.864 220.146,216.153 220.705 C 216.442 221.265,216.934 221.934,217.247 222.194 C 217.559 222.453,218.507 223.747,219.353 225.070 C 220.200 226.392,221.325 228.099,221.855 228.861 C 222.847 230.289,224.573 233.824,224.573 234.425 C 224.573 234.611,225.106 235.328,225.756 236.018 C 226.407 236.707,227.039 237.601,227.162 238.004 C 227.284 238.407,227.581 238.968,227.822 239.249 C 228.431 239.962,230.051 242.930,231.921 246.758 C 232.792 248.541,233.883 250.727,234.347 251.615 C 234.810 252.503,235.344 254.188,235.532 255.358 C 235.721 256.528,236.312 258.335,236.847 259.374 C 237.381 260.413,237.977 261.724,238.170 262.287 C 238.364 262.850,238.925 264.386,239.418 265.700 C 240.435 268.415,241.133 270.664,241.801 273.379 C 242.054 274.411,242.415 275.870,242.603 276.621 C 242.790 277.372,243.036 280.751,243.149 284.130 C 243.459 293.378,244.245 297.333,246.023 298.596 C 250.252 301.601,255.585 300.815,263.685 295.995 C 264.642 295.425,265.736 294.861,266.116 294.740 C 266.496 294.620,267.479 293.666,268.301 292.620 C 270.034 290.416,272.477 287.612,273.763 286.350 C 274.322 285.802,274.756 284.897,274.917 283.947 C 275.058 283.109,275.595 281.553,276.110 280.489 C 276.626 279.425,277.158 277.813,277.293 276.905 C 277.428 275.998,277.716 275.040,277.933 274.777 C 278.208 274.443,278.328 271.753,278.328 265.903 L 278.328 257.509 277.261 255.290 C 276.674 254.070,275.764 251.766,275.239 250.171 C 274.713 248.575,274.019 246.886,273.697 246.416 C 271.458 243.155,269.930 240.377,269.263 238.355 C 268.838 237.064,268.264 235.742,267.988 235.419 C 266.622 233.815,267.177 224.703,268.843 221.389 C 269.815 219.457,269.849 219.454,291.371 219.452 C 315.328 219.450,329.131 218.834,333.703 217.563 C 337.040 216.635,339.075 216.096,339.976 215.901 C 341.389 215.596,348.784 208.292,350.711 205.299 C 351.620 203.886,352.476 202.730,352.612 202.730 C 352.748 202.730,353.267 201.387,353.766 199.744 C 354.264 198.102,354.905 196.496,355.190 196.177 C 356.559 194.641,355.052 188.633,352.337 184.804 C 347.297 177.695,346.930 171.927,351.231 167.406 C 352.854 165.700,353.828 163.716,354.800 160.134 C 355.328 158.189,355.368 158.428,353.583 152.842 C 353.014 151.063,351.278 148.655,348.211 145.392 C 346.156 143.206,345.904 142.423,345.904 138.214 C 345.904 134.162,345.877 134.285,347.822 129.693 C 349.815 124.990,350.351 119.666,349.072 117.282 C 348.007 115.297,343.355 109.598,340.020 106.193 C 337.044 103.154,335.346 98.511,335.610 94.135 C 336.065 86.595,333.047 81.224,324.601 74.546 C 320.932 71.645,314.560 68.108,312.287 67.710 C 311.630 67.595,310.324 67.298,309.386 67.050 C 308.447 66.801,306.681 66.502,305.461 66.383 C 304.241 66.265,302.398 66.031,301.365 65.863 C 298.819 65.449,281.727 65.304,266.553 65.568 M303.348 66.746 C 305.659 67.007,307.706 67.317,307.897 67.435 C 308.088 67.553,309.193 67.767,310.353 67.911 C 312.141 68.133,319.723 71.199,320.478 72.006 C 320.572 72.106,321.263 72.643,322.014 73.199 C 322.765 73.756,323.763 74.571,324.232 75.012 C 324.701 75.452,325.529 76.048,326.071 76.335 C 327.040 76.849,327.829 77.611,329.181 79.337 C 329.556 79.817,330.665 81.091,331.645 82.169 C 332.625 83.248,333.436 84.360,333.448 84.642 C 333.460 84.923,333.767 85.998,334.130 87.031 C 334.642 88.487,334.793 89.851,334.801 93.110 C 334.815 98.505,335.788 101.933,338.000 104.376 C 338.311 104.721,338.567 105.134,338.567 105.295 C 338.567 105.455,339.246 106.288,340.076 107.145 C 347.707 115.019,349.700 118.109,349.297 121.435 C 349.031 123.624,347.992 127.943,347.502 128.895 C 345.538 132.710,344.567 138.020,345.271 141.084 C 345.862 143.654,346.055 143.931,351.752 150.413 C 352.528 151.295,352.985 152.342,353.418 154.228 C 353.747 155.657,354.148 156.972,354.311 157.150 C 354.759 157.640,354.640 159.392,354.056 160.922 C 353.769 161.672,353.371 162.872,353.171 163.588 C 352.942 164.407,352.186 165.484,351.135 166.489 C 348.850 168.675,348.200 169.818,347.682 172.564 C 347.212 175.051,347.164 174.782,348.954 179.693 C 349.351 180.784,349.786 181.646,350.673 183.106 C 351.129 183.857,351.689 184.817,351.915 185.239 C 352.142 185.661,352.457 186.007,352.615 186.007 C 352.772 186.007,352.901 186.201,352.901 186.439 C 352.901 186.676,353.225 187.474,353.620 188.212 C 355.434 191.596,355.673 193.997,354.428 196.335 C 353.953 197.226,353.414 198.756,353.228 199.735 C 353.012 200.874,352.547 201.887,351.937 202.549 C 350.909 203.665,349.148 206.304,349.145 206.733 C 349.144 206.977,344.009 212.043,341.182 214.590 C 340.504 215.201,339.600 215.702,339.173 215.705 C 338.746 215.708,337.204 216.011,335.747 216.378 C 334.290 216.745,331.756 217.274,330.116 217.555 C 324.629 218.492,294.181 219.284,281.058 218.831 C 270.161 218.455,268.714 218.926,267.413 223.279 C 265.991 228.038,266.255 234.979,267.897 235.994 C 268.096 236.117,268.259 236.665,268.259 237.212 C 268.259 238.601,269.518 241.256,271.974 245.051 C 273.129 246.834,274.132 248.447,274.204 248.635 C 274.276 248.823,274.678 250.128,275.098 251.536 C 275.518 252.944,276.109 254.480,276.412 254.949 C 278.059 257.503,278.565 267.535,277.385 274.232 C 276.837 277.340,276.540 278.261,275.243 280.887 C 275.011 281.357,274.709 282.421,274.572 283.252 C 274.403 284.271,273.974 285.113,273.253 285.837 C 272.665 286.428,271.800 287.471,271.331 288.156 C 270.862 288.841,270.319 289.405,270.125 289.410 C 269.931 289.416,269.482 289.919,269.127 290.529 C 268.772 291.139,268.149 291.954,267.742 292.340 C 267.336 292.725,266.863 293.263,266.692 293.534 C 266.415 293.976,265.355 294.583,261.153 296.711 C 260.462 297.060,259.846 297.482,259.784 297.649 C 259.721 297.816,259.457 297.952,259.197 297.952 C 258.937 297.952,258.129 298.262,257.402 298.641 C 253.421 300.716,246.213 299.548,245.533 296.717 C 245.403 296.176,245.096 295.334,244.850 294.845 C 244.292 293.737,243.694 287.772,243.466 281.058 C 243.355 277.767,243.137 275.695,242.857 275.256 C 242.617 274.881,242.314 273.805,242.184 272.867 C 241.912 270.903,241.152 268.366,240.230 266.345 C 239.878 265.573,239.590 264.725,239.590 264.458 C 239.590 264.192,239.380 263.671,239.122 263.301 C 238.865 262.931,238.548 262.144,238.420 261.552 C 238.177 260.437,237.188 258.314,236.555 257.552 C 236.355 257.311,236.048 256.128,235.872 254.922 C 235.584 252.946,235.017 251.266,234.153 249.829 C 233.984 249.548,233.103 247.825,232.196 246.001 C 230.223 242.035,229.821 241.301,228.404 239.078 C 227.806 238.140,227.314 237.208,227.310 237.008 C 227.307 236.808,226.766 236.168,226.109 235.587 C 225.452 235.005,224.915 234.208,224.915 233.816 C 224.915 233.424,224.608 232.530,224.232 231.830 C 223.857 231.129,223.549 230.357,223.549 230.114 C 223.549 229.870,223.319 229.583,223.038 229.475 C 222.756 229.367,222.526 229.146,222.526 228.984 C 222.526 228.623,218.255 222.334,217.353 221.366 C 216.996 220.983,216.257 219.877,215.710 218.908 C 214.697 217.112,213.246 215.700,212.416 215.700 C 212.162 215.700,211.735 215.174,211.467 214.532 C 211.198 213.889,209.490 211.855,207.672 210.010 C 205.853 208.165,204.164 206.193,203.919 205.629 C 203.674 205.065,202.819 204.016,202.019 203.298 C 201.220 202.580,200.055 201.325,199.432 200.508 C 198.809 199.692,197.991 198.926,197.614 198.807 C 197.238 198.687,196.833 198.177,196.715 197.673 C 196.597 197.170,196.089 196.297,195.587 195.734 C 195.084 195.171,194.262 194.096,193.761 193.345 C 190.811 188.926,184.933 184.317,180.532 182.971 C 179.132 182.542,177.440 181.965,176.773 181.688 C 176.105 181.411,175.414 181.213,175.237 181.247 C 174.278 181.433,173.666 181.132,173.359 180.324 C 173.066 179.552,172.962 109.795,173.240 99.829 C 173.281 98.328,173.330 93.064,173.347 88.133 L 173.379 79.166 174.317 78.784 C 174.834 78.574,175.717 78.210,176.280 77.976 C 176.843 77.741,178.763 77.292,180.546 76.979 C 182.329 76.665,184.787 76.196,186.007 75.937 C 189.888 75.112,195.274 74.137,199.147 73.560 C 201.212 73.252,204.206 72.711,205.802 72.357 C 214.332 70.466,220.009 69.514,225.085 69.124 C 226.399 69.022,228.319 68.712,229.352 68.433 C 230.384 68.154,232.073 67.918,233.106 67.907 C 234.138 67.897,236.749 67.665,238.908 67.391 C 242.266 66.965,251.160 66.602,270.648 66.094 C 279.115 65.873,299.164 66.273,303.348 66.746 M75.226 71.308 C 72.261 72.027,69.261 75.474,68.821 78.669 C 67.643 87.224,68.368 180.732,69.629 182.771 C 70.795 184.659,73.191 186.535,75.333 187.238 C 80.203 188.835,156.997 188.022,156.997 186.373 C 156.997 186.230,157.750 185.252,158.671 184.199 C 159.592 183.147,160.552 181.702,160.804 180.989 C 161.466 179.117,161.485 80.997,160.823 78.126 C 160.383 76.216,157.717 72.495,156.104 71.541 C 155.360 71.101,77.013 70.875,75.226 71.308 M138.667 71.648 L 155.662 71.672 156.415 72.483 C 161.093 77.526,160.580 70.485,160.580 129.682 L 160.580 180.717 159.727 181.910 C 159.258 182.566,158.589 183.316,158.240 183.576 C 157.892 183.836,157.389 184.570,157.122 185.208 C 156.767 186.058,156.364 186.423,155.615 186.573 C 155.053 186.686,154.511 186.911,154.410 187.075 C 154.123 187.539,79.268 187.456,77.065 186.989 C 73.737 186.283,71.167 184.479,69.722 181.832 C 69.145 180.776,69.113 178.015,69.113 129.522 L 69.113 78.328 69.877 76.792 C 72.606 71.305,72.187 71.379,99.659 71.515 C 111.766 71.575,129.320 71.635,138.667 71.648 " stroke="none" fill="#e97174" fill-rule="evenodd"></path><path id="path0" d="M270.648 66.094 C 251.160 66.602,242.266 66.965,238.908 67.391 C 236.749 67.665,234.138 67.897,233.106 67.907 C 232.073 67.918,230.384 68.154,229.352 68.433 C 228.319 68.712,226.399 69.022,225.085 69.124 C 220.009 69.514,214.332 70.466,205.802 72.357 C 204.206 72.711,201.212 73.252,199.147 73.560 C 195.274 74.137,189.888 75.112,186.007 75.937 C 184.787 76.196,182.329 76.665,180.546 76.979 C 178.763 77.292,176.843 77.741,176.280 77.976 C 175.717 78.210,174.834 78.574,174.317 78.784 L 173.379 79.166 173.347 88.133 C 173.330 93.064,173.281 98.328,173.240 99.829 C 172.962 109.795,173.066 179.552,173.359 180.324 C 173.666 181.132,174.278 181.433,175.237 181.247 C 175.414 181.213,176.105 181.411,176.773 181.688 C 177.440 181.965,179.132 182.542,180.532 182.971 C 184.933 184.317,190.811 188.926,193.761 193.345 C 194.262 194.096,195.084 195.171,195.587 195.734 C 196.089 196.297,196.597 197.170,196.715 197.673 C 196.833 198.177,197.238 198.687,197.614 198.807 C 197.991 198.926,198.809 199.692,199.432 200.508 C 200.055 201.325,201.220 202.580,202.019 203.298 C 202.819 204.016,203.674 205.065,203.919 205.629 C 204.164 206.193,205.853 208.165,207.672 210.010 C 209.490 211.855,211.198 213.889,211.467 214.532 C 211.735 215.174,212.162 215.700,212.416 215.700 C 213.246 215.700,214.697 217.112,215.710 218.908 C 216.257 219.877,216.996 220.983,217.353 221.366 C 218.255 222.334,222.526 228.623,222.526 228.984 C 222.526 229.146,222.756 229.367,223.038 229.475 C 223.319 229.583,223.549 229.870,223.549 230.114 C 223.549 230.357,223.857 231.129,224.232 231.830 C 224.608 232.530,224.915 233.424,224.915 233.816 C 224.915 234.208,225.452 235.005,226.109 235.587 C 226.766 236.168,227.307 236.808,227.310 237.008 C 227.314 237.208,227.806 238.140,228.404 239.078 C 229.821 241.301,230.223 242.035,232.196 246.001 C 233.103 247.825,233.984 249.548,234.153 249.829 C 235.017 251.266,235.584 252.946,235.872 254.922 C 236.048 256.128,236.355 257.311,236.555 257.552 C 237.188 258.314,238.177 260.437,238.420 261.552 C 238.548 262.144,238.865 262.931,239.122 263.301 C 239.380 263.671,239.590 264.192,239.590 264.458 C 239.590 264.725,239.878 265.573,240.230 266.345 C 241.152 268.366,241.912 270.903,242.184 272.867 C 242.314 273.805,242.617 274.881,242.857 275.256 C 243.137 275.695,243.355 277.767,243.466 281.058 C 243.694 287.772,244.292 293.737,244.850 294.845 C 245.096 295.334,245.403 296.176,245.533 296.717 C 246.213 299.548,253.421 300.716,257.402 298.641 C 258.129 298.262,258.937 297.952,259.197 297.952 C 259.457 297.952,259.721 297.816,259.784 297.649 C 259.846 297.482,260.462 297.060,261.153 296.711 C 265.355 294.583,266.415 293.976,266.692 293.534 C 266.863 293.263,267.336 292.725,267.742 292.340 C 268.149 291.954,268.772 291.139,269.127 290.529 C 269.482 289.919,269.931 289.416,270.125 289.410 C 270.319 289.405,270.862 288.841,271.331 288.156 C 271.800 287.471,272.665 286.428,273.253 285.837 C 273.974 285.113,274.403 284.271,274.572 283.252 C 274.709 282.421,275.011 281.357,275.243 280.887 C 276.540 278.261,276.837 277.340,277.385 274.232 C 278.565 267.535,278.059 257.503,276.412 254.949 C 276.109 254.480,275.518 252.944,275.098 251.536 C 274.678 250.128,274.276 248.823,274.204 248.635 C 274.132 248.447,273.129 246.834,271.974 245.051 C 269.518 241.256,268.259 238.601,268.259 237.212 C 268.259 236.665,268.096 236.117,267.897 235.994 C 266.255 234.979,265.991 228.038,267.413 223.279 C 268.714 218.926,270.161 218.455,281.058 218.831 C 294.181 219.284,324.629 218.492,330.116 217.555 C 331.756 217.274,334.290 216.745,335.747 216.378 C 337.204 216.011,338.746 215.708,339.173 215.705 C 339.600 215.702,340.504 215.201,341.182 214.590 C 344.009 212.043,349.144 206.977,349.145 206.733 C 349.148 206.304,350.909 203.665,351.937 202.549 C 352.547 201.887,353.012 200.874,353.228 199.735 C 353.414 198.756,353.953 197.226,354.428 196.335 C 355.673 193.997,355.434 191.596,353.620 188.212 C 353.225 187.474,352.901 186.676,352.901 186.439 C 352.901 186.201,352.772 186.007,352.615 186.007 C 352.457 186.007,352.142 185.661,351.915 185.239 C 351.689 184.817,351.129 183.857,350.673 183.106 C 349.786 181.646,349.351 180.784,348.954 179.693 C 347.164 174.782,347.212 175.051,347.682 172.564 C 348.200 169.818,348.850 168.675,351.135 166.489 C 352.186 165.484,352.942 164.407,353.171 163.588 C 353.371 162.872,353.769 161.672,354.056 160.922 C 354.640 159.392,354.759 157.640,354.311 157.150 C 354.148 156.972,353.747 155.657,353.418 154.228 C 352.985 152.342,352.528 151.295,351.752 150.413 C 346.055 143.931,345.862 143.654,345.271 141.084 C 344.567 138.020,345.538 132.710,347.502 128.895 C 347.992 127.943,349.031 123.624,349.297 121.435 C 349.700 118.109,347.707 115.019,340.076 107.145 C 339.246 106.288,338.567 105.455,338.567 105.295 C 338.567 105.134,338.311 104.721,338.000 104.376 C 335.788 101.933,334.815 98.505,334.801 93.110 C 334.793 89.851,334.642 88.487,334.130 87.031 C 333.767 85.998,333.460 84.923,333.448 84.642 C 333.436 84.360,332.625 83.248,331.645 82.169 C 330.665 81.091,329.556 79.817,329.181 79.337 C 327.829 77.611,327.040 76.849,326.071 76.335 C 325.529 76.048,324.701 75.452,324.232 75.012 C 323.763 74.571,322.765 73.756,322.014 73.199 C 321.263 72.643,320.572 72.106,320.478 72.006 C 319.723 71.199,312.141 68.133,310.353 67.911 C 309.193 67.767,308.088 67.553,307.897 67.435 C 306.452 66.542,284.191 65.741,270.648 66.094 M76.280 71.643 C 73.616 72.104,71.270 73.990,69.877 76.792 L 69.113 78.328 69.113 129.522 C 69.113 178.015,69.145 180.776,69.722 181.832 C 71.167 184.479,73.737 186.283,77.065 186.989 C 79.268 187.456,154.123 187.539,154.410 187.075 C 154.511 186.911,155.053 186.686,155.615 186.573 C 156.364 186.423,156.767 186.058,157.122 185.208 C 157.389 184.570,157.892 183.836,158.240 183.576 C 158.589 183.316,159.258 182.566,159.727 181.910 L 160.580 180.717 160.580 129.682 C 160.580 70.485,161.093 77.526,156.415 72.483 L 155.662 71.672 138.667 71.648 C 129.320 71.635,111.766 71.575,99.659 71.515 C 87.551 71.455,77.031 71.513,76.280 71.643 " stroke="none" fill="#f50505" fill-rule="evenodd"></path><path id="path1" d="M0.000 170.648 L 0.000 341.297 200.000 341.297 L 400.000 341.297 400.000 170.648 L 400.000 0.000 200.000 0.000 L 0.000 0.000 0.000 170.648 M303.072 65.210 C 303.916 65.393,305.759 65.694,307.167 65.878 C 309.907 66.237,312.844 66.980,314.505 67.735 C 315.068 67.991,316.451 68.616,317.577 69.123 C 321.294 70.799,327.698 75.641,330.835 79.149 C 331.239 79.601,332.144 80.599,332.846 81.367 C 333.547 82.136,334.123 82.952,334.125 83.182 C 334.128 83.412,334.419 84.256,334.774 85.059 C 336.267 88.445,336.522 89.828,336.520 94.544 C 336.519 98.507,336.615 99.336,337.201 100.430 C 337.577 101.131,337.884 101.858,337.884 102.047 C 337.884 102.235,338.153 102.677,338.481 103.028 C 338.810 103.380,339.462 104.175,339.932 104.795 C 340.401 105.415,340.939 106.088,341.126 106.290 C 341.415 106.602,345.873 111.638,346.928 112.844 C 351.033 117.537,351.678 122.010,349.137 128.151 C 344.936 138.299,345.155 140.649,350.929 147.394 C 353.403 150.285,354.944 153.174,354.951 154.937 C 354.952 155.225,355.182 155.901,355.463 156.438 C 356.239 157.927,355.825 160.560,354.276 163.993 C 354.106 164.369,353.870 165.023,353.751 165.448 C 353.632 165.872,352.839 166.870,351.988 167.666 C 348.942 170.514,347.925 174.469,349.488 177.385 C 349.863 178.086,350.171 179.007,350.171 179.432 C 350.171 179.857,350.324 180.205,350.512 180.205 C 350.700 180.205,350.853 180.412,350.853 180.666 C 350.853 180.920,351.544 182.180,352.389 183.466 C 353.234 184.752,353.925 185.991,353.925 186.218 C 353.925 186.446,354.040 186.684,354.181 186.746 C 355.862 187.493,356.803 194.452,355.561 196.951 C 355.241 197.596,354.660 199.213,354.269 200.545 C 353.798 202.151,353.227 203.286,352.572 203.913 C 352.029 204.433,351.402 205.301,351.178 205.842 C 350.954 206.383,350.635 206.826,350.471 206.826 C 350.306 206.826,350.171 207.033,350.171 207.287 C 350.171 208.250,341.584 216.382,340.567 216.382 C 340.159 216.382,337.926 217.054,334.642 218.165 C 330.815 219.459,317.114 220.082,291.773 220.112 L 271.089 220.137 270.218 220.944 C 267.155 223.783,267.417 234.555,270.681 239.932 C 270.852 240.213,271.135 240.751,271.310 241.126 C 271.485 241.502,272.406 242.961,273.356 244.369 C 274.306 245.776,275.084 247.181,275.084 247.490 C 275.086 248.191,277.731 254.834,278.446 255.930 C 279.260 257.179,279.208 274.087,278.385 275.666 C 278.072 276.266,277.816 277.175,277.816 277.684 C 277.816 278.194,277.301 279.699,276.672 281.029 C 276.043 282.359,275.422 284.021,275.292 284.722 C 275.162 285.425,274.588 286.496,274.013 287.111 C 273.438 287.724,271.827 289.631,270.432 291.350 C 268.482 293.752,267.354 294.796,265.556 295.865 C 261.869 298.055,257.791 300.000,256.885 300.000 C 256.429 300.000,255.865 300.230,255.631 300.512 C 255.309 300.900,254.438 301.024,252.034 301.024 C 247.296 301.024,244.398 299.389,243.868 296.416 C 243.734 295.666,243.471 294.865,243.282 294.636 C 243.094 294.408,242.814 290.876,242.661 286.787 C 242.387 279.480,241.726 274.453,240.733 272.133 C 240.480 271.541,240.273 270.720,240.273 270.308 C 240.273 269.896,240.045 269.152,239.766 268.653 C 239.244 267.722,238.448 265.587,237.837 263.481 C 237.401 261.979,236.211 259.447,235.831 259.212 C 235.672 259.114,235.443 258.153,235.321 257.077 C 235.194 255.958,234.609 254.095,233.956 252.730 C 233.328 251.416,232.236 249.113,231.530 247.611 C 230.825 246.109,229.431 243.461,228.434 241.727 C 227.437 239.992,226.621 238.441,226.621 238.281 C 226.621 238.120,226.114 237.466,225.494 236.827 C 224.874 236.188,223.993 234.744,223.537 233.618 C 223.080 232.491,222.205 230.842,221.592 229.952 C 220.979 229.063,220.478 228.192,220.478 228.018 C 220.478 227.844,220.363 227.651,220.222 227.588 C 219.968 227.475,218.089 224.713,218.089 224.453 C 218.089 224.379,217.551 223.731,216.894 223.014 C 216.237 222.296,215.700 221.532,215.700 221.314 C 215.700 221.097,215.354 220.536,214.932 220.069 C 214.509 219.601,213.637 218.581,212.994 217.801 C 212.350 217.021,211.659 216.378,211.458 216.373 C 211.257 216.368,210.737 215.792,210.302 215.093 C 209.868 214.394,208.255 212.505,206.719 210.895 C 205.182 209.285,203.464 207.296,202.901 206.474 C 202.338 205.653,201.263 204.336,200.512 203.548 C 196.570 199.413,195.904 198.606,195.904 197.960 C 195.904 197.546,195.564 197.100,195.082 196.880 C 194.630 196.674,193.767 195.745,193.164 194.814 C 191.183 191.757,184.747 185.666,183.498 185.666 C 183.312 185.666,182.917 185.460,182.621 185.209 C 181.815 184.527,177.694 183.250,175.600 183.034 C 174.153 182.884,173.556 182.630,172.802 181.843 L 171.843 180.842 171.843 130.404 C 171.843 74.177,171.625 78.764,174.362 77.444 C 175.229 77.026,176.195 76.561,176.509 76.411 C 176.822 76.260,178.288 75.986,179.766 75.800 C 181.243 75.615,182.830 75.323,183.291 75.150 C 183.752 74.978,184.898 74.731,185.836 74.602 C 186.775 74.472,188.046 74.207,188.661 74.014 C 189.276 73.820,191.119 73.457,192.757 73.209 C 194.394 72.960,196.348 72.593,197.099 72.393 C 197.850 72.193,199.174 72.026,200.042 72.022 C 200.910 72.017,202.274 71.783,203.072 71.502 C 203.870 71.220,205.003 70.983,205.589 70.975 C 206.175 70.967,207.270 70.732,208.020 70.452 C 208.771 70.173,210.754 69.795,212.426 69.611 C 214.098 69.428,215.634 69.144,215.839 68.981 C 216.044 68.818,217.968 68.574,220.116 68.439 C 222.263 68.304,224.406 68.047,224.878 67.867 C 225.685 67.560,230.715 66.840,236.519 66.201 C 237.927 66.046,240.845 65.895,243.003 65.865 C 245.162 65.836,248.311 65.614,250.000 65.372 C 253.810 64.826,300.647 64.683,303.072 65.210 M154.195 70.501 C 156.738 71.019,156.891 71.107,158.778 73.135 C 162.411 77.043,162.116 72.029,162.116 129.789 L 162.116 179.779 161.291 181.613 C 159.835 184.847,156.530 187.948,154.266 188.203 C 147.266 188.991,82.590 188.988,76.427 188.198 C 73.414 187.812,69.561 184.948,68.578 182.363 C 67.520 179.581,67.158 82.845,68.187 77.897 C 68.875 74.592,71.381 71.944,75.085 70.610 C 77.390 69.780,150.159 69.680,154.195 70.501 " stroke="none" fill="#ffffff" fill-rule="evenodd"></path><path id="path2" d="M250.000 65.372 C 248.311 65.614,245.162 65.836,243.003 65.865 C 240.845 65.895,237.927 66.046,236.519 66.201 C 230.715 66.840,225.685 67.560,224.878 67.867 C 224.406 68.047,222.263 68.304,220.116 68.439 C 217.968 68.574,216.044 68.818,215.839 68.981 C 215.634 69.144,214.098 69.428,212.426 69.611 C 210.754 69.795,208.771 70.173,208.020 70.452 C 207.270 70.732,206.175 70.967,205.589 70.975 C 205.003 70.983,203.870 71.220,203.072 71.502 C 202.274 71.783,200.910 72.017,200.042 72.022 C 199.174 72.026,197.850 72.193,197.099 72.393 C 196.348 72.593,194.394 72.960,192.757 73.209 C 191.119 73.457,189.276 73.820,188.661 74.014 C 188.046 74.207,186.775 74.472,185.836 74.602 C 184.898 74.731,183.752 74.978,183.291 75.150 C 182.830 75.323,181.243 75.615,179.766 75.800 C 178.288 75.986,176.822 76.260,176.509 76.411 C 171.239 78.938,171.843 71.946,171.843 130.404 L 171.843 180.842 172.802 181.843 C 173.556 182.630,174.153 182.884,175.600 183.034 C 177.694 183.250,181.815 184.527,182.621 185.209 C 182.917 185.460,183.312 185.666,183.498 185.666 C 184.747 185.666,191.183 191.757,193.164 194.814 C 193.767 195.745,194.630 196.674,195.082 196.880 C 195.564 197.100,195.904 197.546,195.904 197.960 C 195.904 198.606,196.570 199.413,200.512 203.548 C 201.263 204.336,202.338 205.653,202.901 206.474 C 203.464 207.296,205.182 209.285,206.719 210.895 C 208.255 212.505,209.868 214.394,210.302 215.093 C 210.737 215.792,211.257 216.368,211.458 216.373 C 211.659 216.378,212.350 217.021,212.994 217.801 C 213.637 218.581,214.509 219.601,214.932 220.069 C 215.354 220.536,215.700 221.097,215.700 221.314 C 215.700 221.532,216.237 222.296,216.894 223.014 C 217.551 223.731,218.089 224.379,218.089 224.453 C 218.089 224.713,219.968 227.475,220.222 227.588 C 220.363 227.651,220.478 227.844,220.478 228.018 C 220.478 228.192,220.979 229.063,221.592 229.952 C 222.205 230.842,223.080 232.491,223.537 233.618 C 223.993 234.744,224.874 236.188,225.494 236.827 C 226.114 237.466,226.621 238.120,226.621 238.281 C 226.621 238.441,227.437 239.992,228.434 241.727 C 229.431 243.461,230.825 246.109,231.530 247.611 C 232.236 249.113,233.328 251.416,233.956 252.730 C 234.609 254.095,235.194 255.958,235.321 257.077 C 235.443 258.153,235.672 259.114,235.831 259.212 C 236.211 259.447,237.401 261.979,237.837 263.481 C 238.448 265.587,239.244 267.722,239.766 268.653 C 240.045 269.152,240.273 269.896,240.273 270.308 C 240.273 270.720,240.480 271.541,240.733 272.133 C 241.726 274.453,242.387 279.480,242.661 286.787 C 242.814 290.876,243.094 294.408,243.282 294.636 C 243.471 294.865,243.734 295.666,243.868 296.416 C 244.398 299.389,247.296 301.024,252.034 301.024 C 254.438 301.024,255.309 300.900,255.631 300.512 C 255.865 300.230,256.429 300.000,256.885 300.000 C 257.791 300.000,261.869 298.055,265.556 295.865 C 267.354 294.796,268.482 293.752,270.432 291.350 C 271.827 289.631,273.438 287.724,274.013 287.111 C 274.588 286.496,275.162 285.425,275.292 284.722 C 275.422 284.021,276.043 282.359,276.672 281.029 C 277.301 279.699,277.816 278.194,277.816 277.684 C 277.816 277.175,278.072 276.266,278.385 275.666 C 279.208 274.087,279.260 257.179,278.446 255.930 C 277.731 254.834,275.086 248.191,275.084 247.490 C 275.084 247.181,274.306 245.776,273.356 244.369 C 272.406 242.961,271.485 241.502,271.310 241.126 C 271.135 240.751,270.852 240.213,270.681 239.932 C 267.417 234.555,267.155 223.783,270.218 220.944 L 271.089 220.137 291.773 220.112 C 317.114 220.082,330.815 219.459,334.642 218.165 C 337.926 217.054,340.159 216.382,340.567 216.382 C 341.584 216.382,350.171 208.250,350.171 207.287 C 350.171 207.033,350.306 206.826,350.471 206.826 C 350.635 206.826,350.954 206.383,351.178 205.842 C 351.402 205.301,352.029 204.433,352.572 203.913 C 353.227 203.286,353.798 202.151,354.269 200.545 C 354.660 199.213,355.241 197.596,355.561 196.951 C 356.803 194.452,355.862 187.493,354.181 186.746 C 354.040 186.684,353.925 186.446,353.925 186.218 C 353.925 185.991,353.234 184.752,352.389 183.466 C 351.544 182.180,350.853 180.920,350.853 180.666 C 350.853 180.412,350.700 180.205,350.512 180.205 C 350.324 180.205,350.171 179.857,350.171 179.432 C 350.171 179.007,349.863 178.086,349.488 177.385 C 347.925 174.469,348.942 170.514,351.988 167.666 C 352.839 166.870,353.632 165.872,353.751 165.448 C 353.870 165.023,354.106 164.369,354.276 163.993 C 355.825 160.560,356.239 157.927,355.463 156.438 C 355.182 155.901,354.952 155.225,354.951 154.937 C 354.944 153.174,353.403 150.285,350.929 147.394 C 346.741 142.502,346.475 141.978,346.443 138.567 C 346.414 135.374,346.857 133.657,349.137 128.151 C 351.678 122.010,351.033 117.537,346.928 112.844 C 345.873 111.638,341.415 106.602,341.126 106.290 C 340.939 106.088,340.401 105.415,339.932 104.795 C 339.462 104.175,338.810 103.380,338.481 103.028 C 338.153 102.677,337.884 102.235,337.884 102.047 C 337.884 101.858,337.577 101.131,337.201 100.430 C 336.615 99.336,336.519 98.507,336.520 94.544 C 336.522 89.828,336.267 88.445,334.774 85.059 C 334.419 84.256,334.128 83.412,334.125 83.182 C 334.123 82.952,333.547 82.136,332.846 81.367 C 332.144 80.599,331.239 79.601,330.835 79.149 C 327.698 75.641,321.294 70.799,317.577 69.123 C 316.451 68.616,315.068 67.991,314.505 67.735 C 312.844 66.980,309.907 66.237,307.167 65.878 C 305.759 65.694,303.916 65.393,303.072 65.210 C 300.647 64.683,253.810 64.826,250.000 65.372 M303.584 65.833 C 308.661 66.722,313.176 67.697,313.993 68.081 C 322.277 71.979,325.638 74.447,332.168 81.426 C 334.432 83.845,335.567 87.813,335.833 94.234 C 336.121 101.176,336.879 102.757,343.104 109.406 C 349.801 116.559,350.783 118.729,349.677 123.943 C 349.192 126.236,348.874 127.229,347.243 131.570 C 344.787 138.102,345.337 142.095,349.291 146.445 C 352.796 150.300,353.185 150.883,353.904 153.352 C 354.296 154.700,354.796 156.386,355.014 157.099 C 355.751 159.508,353.794 165.096,351.417 167.374 C 347.355 171.266,347.386 176.480,351.511 183.015 C 355.404 189.183,356.886 194.550,355.235 196.497 C 354.728 197.095,353.584 200.357,353.584 201.203 C 353.584 201.446,352.969 202.422,352.218 203.372 C 351.468 204.322,350.853 205.173,350.853 205.263 C 350.853 206.333,342.473 215.047,340.801 215.716 C 340.417 215.869,339.181 216.250,338.055 216.561 C 336.928 216.873,335.239 217.362,334.300 217.649 C 330.143 218.920,304.991 219.936,282.708 219.734 L 270.705 219.625 269.838 220.438 C 267.552 222.584,266.471 232.118,268.151 235.324 C 268.544 236.075,269.072 237.375,269.324 238.214 C 269.741 239.601,271.850 243.385,273.895 246.416 C 274.338 247.073,274.800 248.072,274.922 248.635 C 275.216 249.997,277.132 254.923,277.737 255.874 C 278.745 257.456,278.881 273.389,277.903 275.288 C 277.719 275.646,277.474 276.556,277.359 277.311 C 277.244 278.066,276.709 279.602,276.170 280.724 C 275.630 281.846,275.097 283.351,274.984 284.068 C 274.830 285.048,274.161 286.071,272.287 288.193 C 269.020 291.892,268.420 292.611,267.742 293.647 C 267.430 294.123,266.853 294.615,266.461 294.739 C 266.068 294.864,264.508 295.695,262.993 296.588 C 256.022 300.693,251.471 301.559,247.381 299.557 C 244.200 298.001,243.488 295.556,243.017 284.572 C 242.779 279.017,242.537 276.470,242.162 275.572 C 241.874 274.883,241.638 273.959,241.638 273.518 C 241.638 272.090,238.086 262.079,236.534 259.136 C 235.905 257.943,235.496 256.655,235.496 255.867 C 235.495 254.556,234.479 252.155,230.988 245.222 C 230.043 243.345,228.843 241.171,228.320 240.390 C 227.798 239.610,227.267 238.646,227.140 238.248 C 227.014 237.850,226.308 236.828,225.571 235.977 C 224.835 235.126,224.232 234.237,224.232 234.002 C 224.232 232.849,219.635 225.273,217.179 222.379 C 216.553 221.641,216.041 220.890,216.041 220.709 C 216.041 220.171,212.924 216.688,212.110 216.317 C 211.696 216.129,211.124 215.490,210.838 214.899 C 210.553 214.307,208.880 212.302,207.122 210.444 C 205.364 208.586,203.642 206.590,203.296 206.007 C 202.684 204.976,200.635 202.710,197.696 199.812 C 196.898 199.025,196.246 198.072,196.246 197.694 C 196.246 197.316,195.861 196.755,195.391 196.447 C 194.921 196.139,194.129 195.238,193.631 194.445 C 189.731 188.237,183.219 183.934,175.148 182.234 C 173.282 181.841,173.071 181.703,172.650 180.598 C 171.951 178.765,172.403 79.824,173.115 78.933 C 173.967 77.867,177.784 76.492,180.842 76.150 C 182.563 75.958,184.119 75.709,184.300 75.597 C 184.617 75.402,187.081 74.901,191.809 74.074 C 193.029 73.860,195.102 73.459,196.416 73.183 C 197.730 72.906,199.957 72.531,201.365 72.348 C 203.719 72.043,207.722 71.216,211.092 70.338 C 211.843 70.142,213.120 69.978,213.930 69.974 C 214.740 69.970,215.697 69.809,216.055 69.617 C 216.414 69.425,218.822 69.047,221.408 68.777 C 223.994 68.507,226.954 68.138,227.986 67.957 C 232.580 67.151,238.958 66.515,245.904 66.171 C 250.034 65.967,255.410 65.683,257.850 65.539 C 265.062 65.116,300.797 65.346,303.584 65.833 M75.085 70.610 C 71.381 71.944,68.875 74.592,68.187 77.897 C 67.158 82.845,67.520 179.581,68.578 182.363 C 69.561 184.948,73.414 187.812,76.427 188.198 C 82.590 188.988,147.266 188.991,154.266 188.203 C 156.530 187.948,159.835 184.847,161.291 181.613 L 162.116 179.779 162.116 129.789 C 162.116 72.029,162.411 77.043,158.778 73.135 C 155.653 69.775,158.266 69.958,114.093 70.011 C 80.480 70.052,76.463 70.114,75.085 70.610 M155.105 71.208 C 157.334 71.550,160.199 75.042,161.085 78.498 C 161.595 80.487,161.739 177.669,161.236 180.009 C 160.893 181.603,160.242 182.697,158.340 184.874 C 155.438 188.195,159.877 187.884,115.358 187.884 L 75.939 187.884 73.986 186.910 C 71.930 185.885,69.353 183.271,68.794 181.643 C 68.375 180.422,68.129 89.633,68.526 82.423 C 68.800 77.440,68.902 76.842,69.692 75.597 C 70.694 74.018,72.289 72.355,72.801 72.355 C 72.996 72.355,73.414 72.120,73.731 71.833 C 74.048 71.546,74.981 71.175,75.805 71.008 C 77.441 70.676,152.877 70.866,155.105 71.208 " stroke="none" fill="#f09a9b" fill-rule="evenodd"></path><path id="path3" d="M266.317 65.443 C 268.721 65.502,272.561 65.501,274.849 65.443 C 277.138 65.384,275.171 65.335,270.478 65.336 C 265.785 65.336,263.913 65.384,266.317 65.443 M287.780 65.442 C 289.787 65.502,293.166 65.503,295.288 65.443 C 297.410 65.383,295.768 65.333,291.638 65.333 C 287.509 65.333,285.772 65.382,287.780 65.442 M237.461 66.794 C 237.886 66.876,238.500 66.873,238.827 66.787 C 239.153 66.702,238.805 66.635,238.055 66.639 C 237.304 66.643,237.037 66.713,237.461 66.794 M222.611 68.836 C 222.939 68.922,223.477 68.922,223.805 68.836 C 224.134 68.750,223.865 68.680,223.208 68.680 C 222.551 68.680,222.282 68.750,222.611 68.836 M89.505 70.904 C 94.339 70.958,102.248 70.958,107.082 70.904 C 111.916 70.851,107.961 70.807,98.294 70.807 C 88.626 70.807,84.672 70.851,89.505 70.904 M157.679 73.144 C 157.679 73.203,158.178 73.702,158.788 74.254 L 159.898 75.256 158.895 74.147 C 157.961 73.113,157.679 72.881,157.679 73.144 M326.962 76.216 C 326.962 76.275,327.462 76.774,328.072 77.325 L 329.181 78.328 328.178 77.218 C 327.244 76.184,326.962 75.952,326.962 76.216 M161.213 82.082 C 161.212 83.771,161.270 84.505,161.342 83.713 C 161.413 82.921,161.414 81.539,161.343 80.642 C 161.273 79.744,161.214 80.392,161.213 82.082 M332.082 81.741 C 332.719 82.398,333.316 82.935,333.410 82.935 C 333.504 82.935,333.060 82.398,332.423 81.741 C 331.786 81.084,331.189 80.546,331.095 80.546 C 331.001 80.546,331.445 81.084,332.082 81.741 M68.404 91.638 C 68.404 95.580,68.454 97.146,68.514 95.118 C 68.575 93.090,68.574 89.865,68.514 87.951 C 68.453 86.037,68.404 87.696,68.404 91.638 M161.569 93.515 C 161.569 96.237,161.622 97.351,161.687 95.990 C 161.752 94.629,161.752 92.402,161.687 91.041 C 161.622 89.680,161.569 90.794,161.569 93.515 M335.612 95.392 C 335.613 96.894,335.673 97.466,335.745 96.663 C 335.817 95.861,335.816 94.632,335.743 93.933 C 335.670 93.234,335.611 93.891,335.612 95.392 M68.352 100.341 C 68.352 101.186,68.419 101.532,68.500 101.109 C 68.582 100.687,68.582 99.996,68.500 99.573 C 68.419 99.151,68.352 99.497,68.352 100.341 M172.509 114.334 C 172.509 120.998,172.555 123.724,172.610 120.392 C 172.666 117.061,172.666 111.608,172.610 108.276 C 172.555 104.945,172.509 107.671,172.509 114.334 M344.539 111.263 C 345.272 112.014,345.949 112.628,346.043 112.628 C 346.137 112.628,345.614 112.014,344.881 111.263 C 344.147 110.512,343.471 109.898,343.377 109.898 C 343.283 109.898,343.806 110.512,344.539 111.263 M161.569 122.867 C 161.569 125.589,161.622 126.702,161.687 125.341 C 161.752 123.980,161.752 121.753,161.687 120.392 C 161.622 119.032,161.569 120.145,161.569 122.867 M349.927 120.648 C 349.930 121.587,349.996 121.930,350.074 121.412 C 350.153 120.893,350.151 120.125,350.070 119.705 C 349.989 119.285,349.924 119.710,349.927 120.648 M172.512 142.662 C 172.512 150.828,172.556 154.168,172.611 150.085 C 172.665 146.003,172.665 139.322,172.611 135.239 C 172.556 131.156,172.512 134.497,172.512 142.662 M346.472 132.950 C 345.900 134.205,346.009 134.473,346.627 133.332 C 346.916 132.799,347.089 132.299,347.010 132.221 C 346.932 132.143,346.690 132.471,346.472 132.950 M161.513 138.908 C 161.513 139.565,161.583 139.834,161.669 139.505 C 161.755 139.177,161.755 138.639,161.669 138.311 C 161.583 137.982,161.513 138.251,161.513 138.908 M161.550 144.539 C 161.552 146.041,161.612 146.613,161.684 145.810 C 161.756 145.007,161.755 143.779,161.682 143.080 C 161.608 142.381,161.549 143.038,161.550 144.539 M68.402 168.259 C 68.402 171.920,68.452 173.417,68.514 171.587 C 68.575 169.757,68.575 166.762,68.514 164.932 C 68.452 163.102,68.402 164.599,68.402 168.259 M68.710 179.181 C 68.710 180.401,68.772 180.900,68.848 180.290 C 68.923 179.680,68.923 178.682,68.848 178.072 C 68.772 177.462,68.710 177.961,68.710 179.181 M174.403 182.045 C 174.403 182.118,174.929 182.239,175.573 182.315 C 176.217 182.390,176.669 182.330,176.577 182.181 C 176.412 181.914,174.403 181.788,174.403 182.045 M158.511 184.386 L 157.509 185.495 158.618 184.492 C 159.652 183.558,159.884 183.276,159.620 183.276 C 159.561 183.276,159.062 183.776,158.511 184.386 M78.754 187.954 C 79.177 188.036,79.868 188.036,80.290 187.954 C 80.712 187.873,80.367 187.806,79.522 187.806 C 78.677 187.806,78.332 187.873,78.754 187.954 M130.802 187.949 C 131.131 188.034,131.668 188.034,131.997 187.949 C 132.325 187.863,132.056 187.792,131.399 187.792 C 130.742 187.792,130.474 187.863,130.802 187.949 M141.212 187.968 C 143.511 188.027,147.274 188.027,149.573 187.968 C 151.873 187.909,149.991 187.861,145.392 187.861 C 140.794 187.861,138.912 187.909,141.212 187.968 M190.102 190.273 C 191.312 191.493,192.378 192.491,192.472 192.491 C 192.566 192.491,191.653 191.493,190.444 190.273 C 189.234 189.053,188.168 188.055,188.074 188.055 C 187.980 188.055,188.893 189.053,190.102 190.273 M346.068 210.836 L 342.833 214.164 346.160 210.928 C 349.251 207.923,349.643 207.509,349.396 207.509 C 349.345 207.509,347.848 209.006,346.068 210.836 M212.628 216.489 C 212.628 216.548,213.127 217.047,213.737 217.598 L 214.846 218.601 213.844 217.491 C 212.910 216.458,212.628 216.225,212.628 216.489 M330.119 218.324 C 330.448 218.410,330.985 218.410,331.314 218.324 C 331.642 218.238,331.374 218.168,330.717 218.168 C 330.060 218.168,329.791 218.238,330.119 218.324 M326.365 218.665 C 326.694 218.751,327.231 218.751,327.560 218.665 C 327.888 218.579,327.619 218.509,326.962 218.509 C 326.305 218.509,326.037 218.579,326.365 218.665 M321.416 219.012 C 321.839 219.094,322.530 219.094,322.952 219.012 C 323.375 218.931,323.029 218.864,322.184 218.864 C 321.340 218.864,320.994 218.931,321.416 219.012 M314.078 219.348 C 314.407 219.434,314.945 219.434,315.273 219.348 C 315.602 219.262,315.333 219.192,314.676 219.192 C 314.019 219.192,313.750 219.262,314.078 219.348 M284.023 219.709 C 287.155 219.765,292.377 219.766,295.627 219.709 C 298.877 219.653,296.314 219.607,289.932 219.607 C 283.549 219.607,280.890 219.653,284.023 219.709 M278.577 266.212 C 278.577 266.869,278.648 267.137,278.734 266.809 C 278.819 266.480,278.819 265.943,278.734 265.614 C 278.648 265.286,278.577 265.555,278.577 266.212 M278.236 272.355 C 278.236 273.012,278.306 273.281,278.392 272.952 C 278.478 272.624,278.478 272.086,278.392 271.758 C 278.306 271.429,278.236 271.698,278.236 272.355 M242.741 278.498 C 242.741 279.155,242.812 279.424,242.897 279.096 C 242.983 278.767,242.983 278.230,242.897 277.901 C 242.812 277.573,242.741 277.841,242.741 278.498 M250.768 300.588 C 251.378 300.664,252.376 300.664,252.986 300.588 C 253.596 300.512,253.097 300.451,251.877 300.451 C 250.657 300.451,250.158 300.512,250.768 300.588 " stroke="none" fill="#ec7e7c" fill-rule="evenodd"></path><path id="path4" d="M266.553 65.568 C 246.597 65.914,239.447 66.429,224.744 68.578 C 223.430 68.770,221.049 69.076,219.454 69.258 C 216.066 69.644,212.443 70.285,207.679 71.340 C 205.802 71.755,202.500 72.385,200.341 72.740 C 193.129 73.923,190.637 74.374,187.372 75.089 C 185.589 75.479,182.659 76.014,180.862 76.278 C 178.758 76.587,176.793 77.129,175.343 77.800 L 173.092 78.842 172.899 80.974 C 172.753 82.587,172.264 172.294,172.367 178.494 C 172.400 180.472,173.353 181.722,174.927 181.851 C 175.666 181.912,176.467 182.124,176.706 182.323 C 176.945 182.521,177.824 182.811,178.659 182.967 C 183.378 183.849,190.195 188.931,193.534 194.056 C 194.309 195.246,195.237 196.313,195.595 196.426 C 195.963 196.543,196.246 196.944,196.246 197.350 C 196.246 198.006,196.918 198.797,201.194 203.174 C 201.945 203.942,202.954 205.194,203.437 205.955 C 203.920 206.715,205.580 208.643,207.127 210.239 C 208.674 211.834,210.324 213.786,210.795 214.575 C 211.266 215.364,211.938 216.101,212.289 216.212 C 212.825 216.382,213.858 217.435,215.334 219.315 C 215.495 219.521,215.864 220.146,216.153 220.705 C 216.442 221.265,216.934 221.934,217.247 222.194 C 217.559 222.453,218.507 223.747,219.353 225.070 C 220.200 226.392,221.325 228.099,221.855 228.861 C 222.847 230.289,224.573 233.824,224.573 234.425 C 224.573 234.611,225.106 235.328,225.756 236.018 C 226.407 236.707,227.039 237.601,227.162 238.004 C 227.284 238.407,227.581 238.968,227.822 239.249 C 228.431 239.962,230.051 242.930,231.921 246.758 C 232.792 248.541,233.883 250.727,234.347 251.615 C 234.810 252.503,235.344 254.188,235.532 255.358 C 235.721 256.528,236.312 258.335,236.847 259.374 C 237.381 260.413,237.977 261.724,238.170 262.287 C 238.364 262.850,238.925 264.386,239.418 265.700 C 240.435 268.415,241.133 270.664,241.801 273.379 C 242.054 274.411,242.415 275.870,242.603 276.621 C 242.790 277.372,243.036 280.751,243.149 284.130 C 243.459 293.378,244.245 297.333,246.023 298.596 C 250.252 301.601,255.585 300.815,263.685 295.995 C 264.642 295.425,265.736 294.861,266.116 294.740 C 266.496 294.620,267.479 293.666,268.301 292.620 C 270.034 290.416,272.477 287.612,273.763 286.350 C 274.322 285.802,274.756 284.897,274.917 283.947 C 275.058 283.109,275.595 281.553,276.110 280.489 C 276.626 279.425,277.158 277.813,277.293 276.905 C 277.428 275.998,277.716 275.040,277.933 274.777 C 278.208 274.443,278.328 271.753,278.328 265.903 L 278.328 257.509 277.261 255.290 C 276.674 254.070,275.764 251.766,275.239 250.171 C 274.713 248.575,274.019 246.886,273.697 246.416 C 271.458 243.155,269.930 240.377,269.263 238.355 C 268.838 237.064,268.264 235.742,267.988 235.419 C 266.622 233.815,267.177 224.703,268.843 221.389 C 269.815 219.457,269.849 219.454,291.371 219.452 C 315.328 219.450,329.131 218.834,333.703 217.563 C 337.040 216.635,339.075 216.096,339.976 215.901 C 341.389 215.596,348.784 208.292,350.711 205.299 C 351.620 203.886,352.476 202.730,352.612 202.730 C 352.748 202.730,353.267 201.387,353.766 199.744 C 354.264 198.102,354.905 196.496,355.190 196.177 C 356.559 194.641,355.052 188.633,352.337 184.804 C 347.297 177.695,346.930 171.927,351.231 167.406 C 352.854 165.700,353.828 163.716,354.800 160.134 C 355.328 158.189,355.368 158.428,353.583 152.842 C 353.014 151.063,351.278 148.655,348.211 145.392 C 346.156 143.206,345.904 142.423,345.904 138.214 C 345.904 134.162,345.877 134.285,347.822 129.693 C 349.815 124.990,350.351 119.666,349.072 117.282 C 348.007 115.297,343.355 109.598,340.020 106.193 C 337.044 103.154,335.346 98.511,335.610 94.135 C 336.065 86.595,333.047 81.224,324.601 74.546 C 320.932 71.645,314.560 68.108,312.287 67.710 C 311.630 67.595,310.324 67.298,309.386 67.050 C 308.447 66.801,306.681 66.502,305.461 66.383 C 304.241 66.265,302.398 66.031,301.365 65.863 C 298.819 65.449,281.727 65.304,266.553 65.568 M303.348 66.746 C 305.659 67.007,307.706 67.317,307.897 67.435 C 308.088 67.553,309.193 67.767,310.353 67.911 C 312.141 68.133,319.723 71.199,320.478 72.006 C 320.572 72.106,321.263 72.643,322.014 73.199 C 322.765 73.756,323.763 74.571,324.232 75.012 C 324.701 75.452,325.529 76.048,326.071 76.335 C 327.040 76.849,327.829 77.611,329.181 79.337 C 329.556 79.817,330.665 81.091,331.645 82.169 C 332.625 83.248,333.436 84.360,333.448 84.642 C 333.460 84.923,333.767 85.998,334.130 87.031 C 334.642 88.487,334.793 89.851,334.801 93.110 C 334.815 98.505,335.788 101.933,338.000 104.376 C 338.311 104.721,338.567 105.134,338.567 105.295 C 338.567 105.455,339.246 106.288,340.076 107.145 C 347.707 115.019,349.700 118.109,349.297 121.435 C 349.031 123.624,347.992 127.943,347.502 128.895 C 345.538 132.710,344.567 138.020,345.271 141.084 C 345.862 143.654,346.055 143.931,351.752 150.413 C 352.528 151.295,352.985 152.342,353.418 154.228 C 353.747 155.657,354.148 156.972,354.311 157.150 C 354.759 157.640,354.640 159.392,354.056 160.922 C 353.769 161.672,353.371 162.872,353.171 163.588 C 352.942 164.407,352.186 165.484,351.135 166.489 C 348.850 168.675,348.200 169.818,347.682 172.564 C 347.212 175.051,347.164 174.782,348.954 179.693 C 349.351 180.784,349.786 181.646,350.673 183.106 C 351.129 183.857,351.689 184.817,351.915 185.239 C 352.142 185.661,352.457 186.007,352.615 186.007 C 352.772 186.007,352.901 186.201,352.901 186.439 C 352.901 186.676,353.225 187.474,353.620 188.212 C 355.434 191.596,355.673 193.997,354.428 196.335 C 353.953 197.226,353.414 198.756,353.228 199.735 C 353.012 200.874,352.547 201.887,351.937 202.549 C 350.909 203.665,349.148 206.304,349.145 206.733 C 349.144 206.977,344.009 212.043,341.182 214.590 C 340.504 215.201,339.600 215.702,339.173 215.705 C 338.746 215.708,337.204 216.011,335.747 216.378 C 334.290 216.745,331.756 217.274,330.116 217.555 C 324.629 218.492,294.181 219.284,281.058 218.831 C 270.161 218.455,268.714 218.926,267.413 223.279 C 265.991 228.038,266.255 234.979,267.897 235.994 C 268.096 236.117,268.259 236.665,268.259 237.212 C 268.259 238.601,269.518 241.256,271.974 245.051 C 273.129 246.834,274.132 248.447,274.204 248.635 C 274.276 248.823,274.678 250.128,275.098 251.536 C 275.518 252.944,276.109 254.480,276.412 254.949 C 278.059 257.503,278.565 267.535,277.385 274.232 C 276.837 277.340,276.540 278.261,275.243 280.887 C 275.011 281.357,274.709 282.421,274.572 283.252 C 274.403 284.271,273.974 285.113,273.253 285.837 C 272.665 286.428,271.800 287.471,271.331 288.156 C 270.862 288.841,270.319 289.405,270.125 289.410 C 269.931 289.416,269.482 289.919,269.127 290.529 C 268.772 291.139,268.149 291.954,267.742 292.340 C 267.336 292.725,266.863 293.263,266.692 293.534 C 266.415 293.976,265.355 294.583,261.153 296.711 C 260.462 297.060,259.846 297.482,259.784 297.649 C 259.721 297.816,259.457 297.952,259.197 297.952 C 258.937 297.952,258.129 298.262,257.402 298.641 C 253.421 300.716,246.213 299.548,245.533 296.717 C 245.403 296.176,245.096 295.334,244.850 294.845 C 244.292 293.737,243.694 287.772,243.466 281.058 C 243.355 277.767,243.137 275.695,242.857 275.256 C 242.617 274.881,242.314 273.805,242.184 272.867 C 241.912 270.903,241.152 268.366,240.230 266.345 C 239.878 265.573,239.590 264.725,239.590 264.458 C 239.590 264.192,239.380 263.671,239.122 263.301 C 238.865 262.931,238.548 262.144,238.420 261.552 C 238.177 260.437,237.188 258.314,236.555 257.552 C 236.355 257.311,236.048 256.128,235.872 254.922 C 235.584 252.946,235.017 251.266,234.153 249.829 C 233.984 249.548,233.103 247.825,232.196 246.001 C 230.223 242.035,229.821 241.301,228.404 239.078 C 227.806 238.140,227.314 237.208,227.310 237.008 C 227.307 236.808,226.766 236.168,226.109 235.587 C 225.452 235.005,224.915 234.208,224.915 233.816 C 224.915 233.424,224.608 232.530,224.232 231.830 C 223.857 231.129,223.549 230.357,223.549 230.114 C 223.549 229.870,223.319 229.583,223.038 229.475 C 222.756 229.367,222.526 229.146,222.526 228.984 C 222.526 228.623,218.255 222.334,217.353 221.366 C 216.996 220.983,216.257 219.877,215.710 218.908 C 214.697 217.112,213.246 215.700,212.416 215.700 C 212.162 215.700,211.735 215.174,211.467 214.532 C 211.198 213.889,209.490 211.855,207.672 210.010 C 205.853 208.165,204.164 206.193,203.919 205.629 C 203.674 205.065,202.819 204.016,202.019 203.298 C 201.220 202.580,200.055 201.325,199.432 200.508 C 198.809 199.692,197.991 198.926,197.614 198.807 C 197.238 198.687,196.833 198.177,196.715 197.673 C 196.597 197.170,196.089 196.297,195.587 195.734 C 195.084 195.171,194.262 194.096,193.761 193.345 C 190.811 188.926,184.933 184.317,180.532 182.971 C 179.132 182.542,177.440 181.965,176.773 181.688 C 176.105 181.411,175.414 181.213,175.237 181.247 C 174.278 181.433,173.666 181.132,173.359 180.324 C 173.066 179.552,172.962 109.795,173.240 99.829 C 173.281 98.328,173.330 93.064,173.347 88.133 L 173.379 79.166 174.317 78.784 C 174.834 78.574,175.717 78.210,176.280 77.976 C 176.843 77.741,178.763 77.292,180.546 76.979 C 182.329 76.665,184.787 76.196,186.007 75.937 C 189.888 75.112,195.274 74.137,199.147 73.560 C 201.212 73.252,204.206 72.711,205.802 72.357 C 214.332 70.466,220.009 69.514,225.085 69.124 C 226.399 69.022,228.319 68.712,229.352 68.433 C 230.384 68.154,232.073 67.918,233.106 67.907 C 234.138 67.897,236.749 67.665,238.908 67.391 C 242.266 66.965,251.160 66.602,270.648 66.094 C 279.115 65.873,299.164 66.273,303.348 66.746 M75.226 71.308 C 72.261 72.027,69.261 75.474,68.821 78.669 C 67.643 87.224,68.368 180.732,69.629 182.771 C 70.795 184.659,73.191 186.535,75.333 187.238 C 80.203 188.835,156.997 188.022,156.997 186.373 C 156.997 186.230,157.750 185.252,158.671 184.199 C 159.592 183.147,160.552 181.702,160.804 180.989 C 161.466 179.117,161.485 80.997,160.823 78.126 C 160.383 76.216,157.717 72.495,156.104 71.541 C 155.360 71.101,77.013 70.875,75.226 71.308 M138.667 71.648 L 155.662 71.672 156.415 72.483 C 161.093 77.526,160.580 70.485,160.580 129.682 L 160.580 180.717 159.727 181.910 C 159.258 182.566,158.589 183.316,158.240 183.576 C 157.892 183.836,157.389 184.570,157.122 185.208 C 156.767 186.058,156.364 186.423,155.615 186.573 C 155.053 186.686,154.511 186.911,154.410 187.075 C 154.123 187.539,79.268 187.456,77.065 186.989 C 73.737 186.283,71.167 184.479,69.722 181.832 C 69.145 180.776,69.113 178.015,69.113 129.522 L 69.113 78.328 69.877 76.792 C 72.606 71.305,72.187 71.379,99.659 71.515 C 111.766 71.575,129.320 71.635,138.667 71.648 " stroke="none" fill="#e97174" fill-rule="evenodd"></path></g></svg>